  <svg width="222.7" height="1132.6" viewBox="0 0 2227 11326">
  <image xlink:href="centeringtower5withreflection.png"
  x="0" y="0"
  width="2264" height="11514"/>
  
<g id="wire_out">

        <path class="wire_outside" d="M 679.536 8861.14944 l16.8524928 0 L -75.5644032 11605.568832 l-16.8524928 0 z "  fill="black" stroke="none" stroke-width="0"></path>
    

        </g>
        <use xlink:href="#wire_out" transform="translate(57.081024, 0)"/>
        <use xlink:href="#wire_out" transform="translate(2227.87808, 0) scale(-1, 1)"/>
        <use xlink:href="#wire_out" transform="translate(2170.797056, 0) scale(-1, 1)"/>
    
<g id="wire_in">

        <path class="wire_outside" d="M 924.16896 8861.14944 l16.8524928 0 L 642.0256128 11605.568832 l-16.8524928 0 z "  fill="black" stroke="none" stroke-width="0"></path>
    

        </g>
        <use xlink:href="#wire_in" transform="translate(40.77216, 0)"/>
        <use xlink:href="#wire_in" transform="translate(2227.87808, 0) scale(-1, 1)"/>
        <use xlink:href="#wire_in" transform="translate(2187.10592, 0) scale(-1, 1)"/>
    

      <polygon class="bottom_subplatform" fill="#111" points="1005.71328 8480.60928, 1223.1648 8480.60928,  1440.61632 8536.784256, 1566.1945728 8878.0019328,    1223.1648 8986.184064,  1005.71328, 8986.184064,      662.6835072 8878.0019328,   788.26176 8536.784256" />
    

      <polygon id="subpeak" fill="black" points="985.3272 1404.3744, 1243.55088 1404.3744,  1114.43904 1662.59808" />
    

      <polygon id="peak" fill="black" points="985.3272 1405.3744, 1243.55088 1405.3744,  1114.43904 208.39104" />
    

    <ellipse class="spire_top" cx="1114.43904" cy="8564.871744" rx="163.08864" ry="42.131232" fill="black" stroke="none" stroke-width="0"></ellipse>
    

    <rect class="spire" x="983.968128" y="8564.871744" width="260.941824" height="1336.21240896" fill="black" stroke="none" stroke-width="0"></rect>
    

    <ellipse class="spire_top" cx="1114.43904" cy="7362.9084672" rx="148.138848" ry="39.1412736" fill="black" stroke="none" stroke-width="0"></ellipse>
    

    <rect class="spire" x="995.9279616" y="7362.9084672" width="237.0221568" height="1114.43904" fill="black" stroke="none" stroke-width="0"></rect>
    

    <ellipse class="spire_top" cx="1114.43904" cy="6160.9451904" rx="133.189056" ry="36.1513152" fill="black" stroke="none" stroke-width="0"></ellipse>
    

    <rect class="spire" x="1007.8877952" y="6160.9451904" width="213.1024896" height="1114.43904" fill="black" stroke="none" stroke-width="0"></rect>
    

    <ellipse class="spire_top" cx="1114.43904" cy="4958.9819136" rx="118.239264" ry="33.1613568" fill="black" stroke="none" stroke-width="0"></ellipse>
    

    <rect class="spire" x="1019.8476288" y="4958.9819136" width="189.1828224" height="1114.43904" fill="black" stroke="none" stroke-width="0"></rect>
    

    <ellipse class="spire_top" cx="1114.43904" cy="3757.0186368" rx="103.289472" ry="30.1713984" fill="black" stroke="none" stroke-width="0"></ellipse>
    

    <rect class="spire" x="1031.8074624" y="3757.0186368" width="165.2631552" height="1114.43904" fill="black" stroke="none" stroke-width="0"></rect>
    

    <ellipse class="spire_top" cx="1114.43904" cy="2538.6105888" rx="73.389888" ry="18.9590544" fill="black" stroke="none" stroke-width="0"></ellipse>
    

    <rect class="spire" x="1043.767296" y="2538.6105888" width="141.343488" height="1225.882944" fill="black" stroke="none" stroke-width="0"></rect>
    

    <ellipse class="spire_top" cx="1114.43904" cy="1596.47469696" rx="55.4501376" ry="14.32461888" fill="black" stroke="none" stroke-width="0"></ellipse>
    

    <rect class="spire" x="1055.7271296" y="1333.35835776" width="117.4238208" height="1225.882944" fill="black" stroke="none" stroke-width="0"></rect>
    

      <polygon class="barrier_base" fill="#111" points="1005.71328 8461.41918336, 1223.1648 8461.41918336,  1440.61632 8517.59415936, 1440.61632 8573.76913536,    1223.1648 8629.94411136,  1005.71328, 8629.94411136,      788.26176 8573.76913536,   788.26176 8517.59415936" />
    

      <polygon class="platform_underside" fill="black" points="1005.71328 8480.60928, 1223.1648 8480.60928,  1440.61632 8536.784256, 1440.61632 8592.959232,    1223.1648 8649.134208,  1005.71328, 8649.134208,      788.26176 8592.959232,   788.26176 8536.784256" />
    

    <rect class="barrier_center" x="1005.71328" y="8358.12971136" width="217.45152" height="103.289472" fill="none" stroke="#111" stroke-width="7.200363456px"></rect>

    <polygon class="barrier_perimeter" fill="none" stroke="#111" stroke-width="7.200363456" points="791.861941728 8517.59415936 791.861941728 8414.30468736   1005.71328 8358.12971136 1223.1648 8358.12971136  1437.01613827 8414.30468736 1437.01613827 8517.59415936  1223.1648 8461.41918336 1005.71328 8461.41918336"/>
    

      <polygon class="barrier_base" fill="#111" points="1015.679808 7265.43582336, 1213.198272 7265.43582336,  1410.716736 7317.62418816, 1410.716736 7369.81255296,    1213.198272 7422.00091776,  1015.679808, 7422.00091776,      818.161344 7369.81255296,   818.161344 7317.62418816" />
    

      <polygon class="platform_underside" fill="black" points="1015.679808 7284.62592, 1213.198272 7284.62592,  1410.716736 7336.8142848, 1410.716736 7389.0026496,    1213.198272 7441.1910144,  1015.679808, 7441.1910144,      818.161344 7389.0026496,   818.161344 7336.8142848" />
    

    <rect class="barrier_center" x="1015.679808" y="7162.14635136" width="197.518464" height="103.289472" fill="none" stroke="#111" stroke-width="7.200363456px"></rect>

    <polygon class="barrier_perimeter" fill="none" stroke="#111" stroke-width="7.200363456" points="821.761525728 7317.62418816 821.761525728 7214.33471616   1015.679808 7162.14635136 1213.198272 7162.14635136  1407.11655427 7214.33471616 1407.11655427 7317.62418816  1213.198272 7265.43582336 1015.679808 7265.43582336"/>
    

      <polygon class="barrier_base" fill="#111" points="1025.646336 6069.45246336, 1203.231744 6069.45246336,  1380.817152 6117.65421696, 1380.817152 6165.85597056,    1203.231744 6214.05772416,  1025.646336, 6214.05772416,      848.060928 6165.85597056,   848.060928 6117.65421696" />
    

      <polygon class="platform_underside" fill="black" points="1025.646336 6088.64256, 1203.231744 6088.64256,  1380.817152 6136.8443136, 1380.817152 6185.0460672,    1203.231744 6233.2478208,  1025.646336, 6233.2478208,      848.060928 6185.0460672,   848.060928 6136.8443136" />
    

    <rect class="barrier_center" x="1025.646336" y="5966.16299136" width="177.585408" height="103.289472" fill="none" stroke="#111" stroke-width="7.200363456px"></rect>

    <polygon class="barrier_perimeter" fill="none" stroke="#111" stroke-width="7.200363456" points="851.661109728 6117.65421696 851.661109728 6014.36474496   1025.646336 5966.16299136 1203.231744 5966.16299136  1377.21697027 6014.36474496 1377.21697027 6117.65421696  1203.231744 6069.45246336 1025.646336 6069.45246336"/>
    

      <polygon class="barrier_base" fill="#111" points="1035.612864 4873.46910336, 1193.265216 4873.46910336,  1350.917568 4917.68424576, 1350.917568 4961.89938816,    1193.265216 5006.11453056,  1035.612864, 5006.11453056,      877.960512 4961.89938816,   877.960512 4917.68424576" />
    

      <polygon class="platform_underside" fill="black" points="1035.612864 4892.6592, 1193.265216 4892.6592,  1350.917568 4936.8743424, 1350.917568 4981.0894848,    1193.265216 5025.3046272,  1035.612864, 5025.3046272,      877.960512 4981.0894848,   877.960512 4936.8743424" />
    

    <rect class="barrier_center" x="1035.612864" y="4770.17963136" width="157.652352" height="103.289472" fill="none" stroke="#111" stroke-width="7.200363456px"></rect>

    <polygon class="barrier_perimeter" fill="none" stroke="#111" stroke-width="7.200363456" points="881.560693728 4917.68424576 881.560693728 4814.39477376   1035.612864 4770.17963136 1193.265216 4770.17963136  1347.31738627 4814.39477376 1347.31738627 4917.68424576  1193.265216 4873.46910336 1035.612864 4873.46910336"/>
    

      <polygon class="barrier_base" fill="#111" points="1045.579392 3677.48574336, 1183.298688 3677.48574336,  1321.017984 3717.71427456, 1321.017984 3757.94280576,    1183.298688 3798.17133696,  1045.579392, 3798.17133696,      907.860096 3757.94280576,   907.860096 3717.71427456" />
    

      <polygon class="platform_underside" fill="black" points="1045.579392 3696.67584, 1183.298688 3696.67584,  1321.017984 3736.9043712, 1321.017984 3777.1329024,    1183.298688 3817.3614336,  1045.579392, 3817.3614336,      907.860096 3777.1329024,   907.860096 3736.9043712" />
    

    <rect class="barrier_center" x="1045.579392" y="3574.19627136" width="137.719296" height="103.289472" fill="none" stroke="#111" stroke-width="7.200363456px"></rect>

    <polygon class="barrier_perimeter" fill="none" stroke="#111" stroke-width="7.200363456" points="911.460277728 3717.71427456 911.460277728 3614.42480256   1045.579392 3574.19627136 1183.298688 3574.19627136  1317.41780227 3614.42480256 1317.41780227 3717.71427456  1183.298688 3677.48574336 1045.579392 3677.48574336"/>
    

      <polygon class="barrier_base" fill="#111" points="1065.512448 2481.50238336, 1163.365632 2481.50238336,  1261.218816 2506.78112256, 1261.218816 2532.05986176,    1163.365632 2557.33860096,  1065.512448, 2557.33860096,      967.659264 2532.05986176,   967.659264 2506.78112256" />
    

      <polygon class="platform_underside" fill="black" points="1065.512448 2500.69248, 1163.365632 2500.69248,  1261.218816 2525.9712192, 1261.218816 2551.2499584,    1163.365632 2576.5286976,  1065.512448, 2576.5286976,      967.659264 2551.2499584,   967.659264 2525.9712192" />
    

    <rect class="barrier_center" x="1065.512448" y="2378.21291136" width="97.853184" height="103.289472" fill="none" stroke="#111" stroke-width="7.200363456px"></rect>

    <polygon class="barrier_perimeter" fill="none" stroke="#111" stroke-width="7.200363456" points="971.259445728 2506.78112256 971.259445728 2403.49165056   1065.512448 2378.21291136 1163.365632 2378.21291136  1257.61863427 2403.49165056 1257.61863427 2506.78112256  1163.365632 2481.50238336 1065.512448 2481.50238336"/>
    

      <polygon class="barrier_base" fill="#111" points="1077.4722816 1548.63536256, 1151.4057984 1548.63536256,  1225.3393152 1567.7348544, 1225.3393152 1586.83434624,    1151.4057984 1605.93383808,  1077.4722816, 1605.93383808,      1003.5387648 1586.83434624,   1003.5387648 1567.7348544" />
    

      <polygon class="platform_underside" fill="black" points="1077.4722816 1567.8254592, 1151.4057984 1567.8254592,  1225.3393152 1586.92495104, 1225.3393152 1606.02444288,    1151.4057984 1625.12393472,  1077.4722816, 1625.12393472,      1003.5387648 1606.02444288,   1003.5387648 1586.92495104" />
    

    <rect class="barrier_center" x="1077.4722816" y="1445.34589056" width="73.9335168" height="103.289472" fill="none" stroke="#111" stroke-width="7.200363456px"></rect>

    <polygon class="barrier_perimeter" fill="none" stroke="#111" stroke-width="7.200363456" points="1007.13894653 1567.7348544 1007.13894653 1464.4453824   1077.4722816 1445.34589056 1151.4057984 1445.34589056  1221.73913347 1464.4453824 1221.73913347 1567.7348544  1151.4057984 1548.63536256 1077.4722816 1548.63536256"/>
    

      <polygon class="tapered_spire_base" fill="black" points="1244.909952 9779.6102976, 1357.58985044 10599.9377306,  1357.58985044 12305.5730906, 871.28822956 12305.5730906,  871.28822956 10599.9377306, 983.968128 9779.6102976" />
    

  </svg>
