<?xml version="1.0" encoding="UTF-8" standalone="no"?>
<!-- Created with Inkscape (http://www.inkscape.org/) -->

<svg
   xmlns:dc="http://purl.org/dc/elements/1.1/"
   xmlns:cc="http://creativecommons.org/ns#"
   xmlns:rdf="http://www.w3.org/1999/02/22-rdf-syntax-ns#"
   xmlns:svg="http://www.w3.org/2000/svg"
   xmlns="http://www.w3.org/2000/svg"
   xmlns:xlink="http://www.w3.org/1999/xlink"
   xmlns:sodipodi="http://sodipodi.sourceforge.net/DTD/sodipodi-0.dtd"
   xmlns:inkscape="http://www.inkscape.org/namespaces/inkscape"
   sodipodi:docname="level2-3.svg"
   style="enable-background:new"
   inkscape:version="0.91 r13725"
   version="1.1"
   id="svg2"
   viewBox="0 0 239.06123 119.18999"
   height="119.18999"
   width="239.06123">
  <sodipodi:namedview
     inkscape:window-maximized="1"
     inkscape:window-y="25"
     inkscape:window-x="0"
     inkscape:window-height="851"
     inkscape:window-width="1440"
     fit-margin-bottom="0"
     fit-margin-right="0"
     fit-margin-left="0"
     fit-margin-top="0"
     units="px"
     showgrid="false"
     inkscape:current-layer="layer1"
     inkscape:document-units="px"
     inkscape:cy="-894.43517"
     inkscape:cx="-564.73555"
     inkscape:zoom="0.90509668"
     inkscape:pageshadow="2"
     inkscape:pageopacity="0.0"
     borderopacity="1.0"
     bordercolor="#666666"
     pagecolor="#ffffff"
     id="base"
     inkscape:snap-others="false"
     inkscape:snap-nodes="false" />
  <defs
     id="defs4">
    <linearGradient
       inkscape:collect="always"
       id="linearGradient12447">
      <stop
         style="stop-color:#e5d8bc;stop-opacity:1;"
         offset="0"
         id="stop12449" />
      <stop
         style="stop-color:#d2c7a8;stop-opacity:1"
         offset="1"
         id="stop12451" />
    </linearGradient>
    <filter
       id="filter4144"
       style="color-interpolation-filters:sRGB"
       inkscape:collect="always">
      <feBlend
         id="feBlend4146"
         in2="BackgroundImage"
         mode="darken"
         inkscape:collect="always" />
    </filter>
    <filter
       inkscape:collect="always"
       style="color-interpolation-filters:sRGB"
       id="filter4144-7">
      <feBlend
         inkscape:collect="always"
         mode="darken"
         in2="BackgroundImage"
         id="feBlend4146-5" />
    </filter>
    <filter
       inkscape:collect="always"
       style="color-interpolation-filters:sRGB"
       id="filter8180"
       x="-0.15971868"
       width="1.3194373"
       y="-0.046475381"
       height="1.0929508">
      <feGaussianBlur
         inkscape:collect="always"
         stdDeviation="1.781908"
         id="feGaussianBlur8182" />
    </filter>
    <linearGradient
       inkscape:collect="always"
       xlink:href="#linearGradient8136"
       id="linearGradient8142"
       x1="1709.3033"
       y1="116.80675"
       x2="1736.6542"
       y2="116.9677"
       gradientUnits="userSpaceOnUse"
       gradientTransform="translate(48,60)" />
    <linearGradient
       inkscape:collect="always"
       id="linearGradient8136">
      <stop
         style="stop-color:#99a0b7;stop-opacity:0"
         offset="0"
         id="stop8138" />
      <stop
         id="stop8150"
         offset="0.19"
         style="stop-color:#99a0b7;stop-opacity:0.396" />
      <stop
         id="stop8144"
         offset="0.36000001"
         style="stop-color:#99a0b7;stop-opacity:0.741" />
      <stop
         style="stop-color:#99a6b7;stop-opacity:1"
         offset="0.47"
         id="stop8148" />
      <stop
         style="stop-color:#99a0b7;stop-opacity:0.769"
         offset="0.57999998"
         id="stop8146" />
      <stop
         id="stop8152"
         offset="0.72000003"
         style="stop-color:#99a0b7;stop-opacity:0.431" />
      <stop
         style="stop-color:#99a0b7;stop-opacity:0;"
         offset="1"
         id="stop8140" />
    </linearGradient>
    <filter
       inkscape:collect="always"
       style="color-interpolation-filters:sRGB"
       id="filter8328"
       x="-0.041762061"
       width="1.0835241"
       y="-0.048222676"
       height="1.0964453">
      <feGaussianBlur
         inkscape:collect="always"
         stdDeviation="0.11988506"
         id="feGaussianBlur8330" />
    </filter>
    <linearGradient
       inkscape:collect="always"
       xlink:href="#linearGradient12447"
       id="linearGradient12453"
       x1="-1498.571"
       y1="2797.5461"
       x2="-1332.527"
       y2="2583.2043"
       gradientUnits="userSpaceOnUse"
       gradientTransform="translate(789.0625,-995.3125)" />
    <filter
       inkscape:collect="always"
       style="color-interpolation-filters:sRGB"
       id="filter17403"
       x="-0.0059999896"
       width="1.012"
       y="-0.0060000104"
       height="1.012">
      <feGaussianBlur
         inkscape:collect="always"
         stdDeviation="1.4614823"
         id="feGaussianBlur17405" />
    </filter>
  </defs>
  <metadata
     id="metadata7">
    <rdf:RDF>
      <cc:Work
         rdf:about="">
        <dc:format>image/svg+xml</dc:format>
        <dc:type
           rdf:resource="http://purl.org/dc/dcmitype/StillImage" />
        <dc:title></dc:title>
      </cc:Work>
    </rdf:RDF>
  </metadata>
  <g
     transform="translate(126.74913,-796.26718)"
     style="filter:url(#filter4144)"
     id="layer1"
     inkscape:groupmode="layer"
     inkscape:label="Layer 1">
    <path
       inkscape:connector-curvature="0"
       id="path17341"
       d="m -1044.8511,1571.163 c -2.4803,0.025 -3.2071,2.6467 -5.1861,3.4151 -3.7957,-0.068 -7.1878,-2.5689 -12.0086,3.5319 -3.2645,-1.3232 -5.705,-1.702 -12.0084,-0.6074 l -2.0696,-5.3464 -7.1965,5.4434 c -5.9381,3.0244 -10.8548,1.6724 -14.1968,-0.3127 -3.3419,-1.9847 -5.4601,-1.8239 -8.6725,1.9926 -4.5326,3.422 -4.1508,0.3273 -6.6067,-1.4781 -2.456,-1.8054 -5.5985,-3.096 -9.4975,0.7301 -5.9838,4.9294 -9.5403,-0.7079 -11.607,-4.9783 0.9129,1.7526 -4.7235,5.3085 0.2059,11.2921 3.8261,3.8992 2.5357,7.0419 0.7301,9.4976 -1.8053,2.4558 -4.9003,2.0743 -1.4781,6.6068 3.8165,3.2127 3.9752,5.3304 1.9906,8.6724 -1.9848,3.3422 -3.3351,8.2589 -0.3107,14.197 l 5.4414,7.1964 -5.3444,2.0696 c 1.0947,6.3036 0.714,8.7439 -0.6094,12.0085 6.1009,4.8206 3.6008,8.2128 3.532,12.0085 1.1177,2.8782 6.1584,3.1092 1.4245,9.9368 -1.5677,1.0491 -1.5387,2.7327 -1.1594,4.5549 0.2141,2.0229 0.9165,4.1438 -0.7223,5.7976 -5.5671,2.5531 -2.4404,6.7313 -1.7808,10.4472 -1.007,4.5969 -6.6429,8.152 -1.7135,14.1356 3.8261,3.899 2.5357,7.0417 0.7301,9.4975 -1.8053,2.4561 -4.9003,2.0742 -1.4781,6.6069 3.8165,3.2121 3.9752,5.3305 1.9906,8.6723 -1.9848,3.3421 -3.3351,8.2591 -0.3107,14.1969 l 5.4414,7.1964 -5.3444,2.0697 c 1.0947,6.3034 0.714,8.7439 -0.6094,12.0085 6.1009,4.8207 3.6008,8.2108 3.532,12.0065 1.1177,2.8784 6.1584,3.1111 1.4245,9.9388 -1.5677,1.0492 -1.5387,2.7328 -1.1594,4.5549 0.2141,2.023 0.9165,4.1417 -0.7223,5.7955 -5.5671,2.5532 -2.4404,6.7314 -1.7808,10.4473 -1.007,4.5967 -6.6429,8.1518 -1.7135,14.1357 3.8261,3.899 2.5357,7.0434 0.7301,9.4995 -1.8053,2.4556 -4.9003,2.0742 -1.4781,6.6067 3.8165,3.2126 3.9752,5.3304 1.9906,8.6724 -1.9848,3.3421 -3.3351,8.2587 -0.3107,14.1969 l 5.4414,7.1964 -5.3444,2.0698 c 1.0947,6.3035 0.714,8.7438 -0.6094,12.0084 6.1009,4.8206 3.6008,8.2109 3.532,12.0065 1.1177,2.8785 6.1584,3.1111 1.4245,9.9388 -1.5677,1.049 -1.5387,2.7326 -1.1594,4.5549 0.2141,2.0228 0.9165,4.1419 -0.7223,5.7955 -5.5671,2.5532 -2.4404,6.7314 -1.7808,10.4473 -1.007,4.5967 -6.6429,8.1518 -1.7135,14.1355 3.8261,3.8989 2.5357,7.0417 0.7301,9.4976 -1.8053,2.456 -4.9003,2.076 -1.4781,6.6088 3.8165,3.2123 3.9752,5.3287 1.9906,8.6705 -1.9848,3.342 -3.3351,8.2608 -0.3107,14.1989 l 5.4414,7.1944 -5.3444,2.0716 c 1.0947,6.3035 0.714,8.7419 -0.6094,12.0065 6.1009,4.8207 3.6008,8.2128 3.532,12.0086 1.1177,2.8781 6.1584,3.109 1.4245,9.9368 -1.5677,1.0491 -1.5387,2.7324 -1.1594,4.5547 0.2141,2.0229 0.9165,4.1439 -0.7223,5.7976 -5.5671,2.5533 -2.4404,6.7314 -1.7808,10.4473 -1.007,4.5966 -6.6429,8.1518 -1.7135,14.1355 3.8261,3.8989 2.5357,7.0415 0.7301,9.4976 -1.8053,2.4558 -4.9003,2.0742 -1.4781,6.6068 3.8165,3.2125 3.9752,5.3305 1.9906,8.6725 -1.9848,3.3419 -3.3351,8.2587 -0.3107,14.1968 l 5.4414,7.1963 -5.3444,2.0698 c 1.0947,6.3036 0.714,8.7436 -0.6094,12.0085 6.1009,4.8206 3.6008,8.2128 3.532,12.0085 1.1177,2.8783 6.1584,3.1092 1.4245,9.9368 -1.5677,1.0491 -1.5387,2.7326 -1.1594,4.5549 0.2141,2.0229 0.9165,4.1438 -0.7223,5.7974 -5.025,2.3047 -2.9759,5.9256 -3.8327,7.428 3.7006,-3.9683 7.9441,-1.0671 11.7395,0.1345 3.899,-3.826 7.0415,-2.5356 9.4975,-0.7301 2.4559,1.8054 2.0741,4.9002 6.6067,1.4781 3.2124,-3.8165 5.3306,-3.9752 8.6725,-1.9906 3.342,1.985 8.2587,3.3351 14.1968,0.3107 l 7.1965,-5.4414 2.0696,5.3444 c 6.3034,-1.0945 8.7439,-0.7138 12.0084,0.6094 4.8208,-6.1008 8.2129,-3.6008 12.0086,-3.532 2.8785,-1.1177 3.1093,-6.1585 9.9368,-1.4245 1.0493,1.5677 2.7327,1.5388 4.555,1.1594 2.0229,-0.214 4.1436,-0.9167 5.7974,0.7223 2.5532,5.5669 6.7313,2.4403 10.4473,1.7808 4.5966,1.0071 8.1517,6.643 14.1355,1.7135 3.899,-3.826 7.04156,-2.5356 9.49765,-0.7301 2.4558,1.8054 2.07405,4.9002 6.60675,1.4781 3.21236,-3.8165 5.33064,-3.9752 8.67247,-1.9906 3.34203,1.985 8.25875,3.3351 14.19689,0.3107 l 7.19639,-5.4414 2.06968,5.3444 c 6.30355,-1.0945 8.74385,-0.7138 12.00848,0.6094 4.82081,-6.1008 8.21271,-3.6008 12.00849,-3.532 2.87835,-1.1177 3.10912,-6.1585 9.93683,-1.4245 1.04904,1.5677 2.73266,1.5388 4.55489,1.1594 2.023,-0.214 4.14372,-0.9167 5.79746,0.7223 2.55316,5.5669 6.7293,2.4403 10.44536,1.7808 4.59662,1.0071 8.15381,6.643 14.13753,1.7135 3.89902,-3.826 7.04157,-2.5356 9.49757,-0.7301 2.45589,1.8054 2.07425,4.9002 6.60674,1.4781 3.21256,-3.8165 5.33055,-3.9752 8.67247,-1.9906 3.34204,1.985 8.25886,3.3351 14.19689,0.3107 l 7.19639,-5.4414 2.06967,5.3444 c 6.30345,-1.0945 8.74386,-0.7138 12.0085,0.6094 4.82071,-6.1008 8.2128,-3.6008 12.00849,-3.532 2.87835,-1.1177 3.10912,-6.1585 9.93683,-1.4245 1.04914,1.5677 2.73286,1.5388 4.55488,1.1594 2.023,-0.214 4.14363,-0.9167 5.79748,0.7223 2.55304,5.5669 6.72929,2.4403 10.44534,1.7808 4.59673,1.0071 8.1539,6.643 14.13753,1.7135 3.89911,-3.826 7.04177,-2.5356 9.49757,-0.7301 2.45579,1.8054 2.07416,4.9002 6.60675,1.4781 3.21246,-3.8165 5.33053,-3.9752 8.67246,-1.9906 3.34213,1.985 8.25886,3.3351 14.1969,0.3107 l 7.19637,-5.4414 2.06969,5.3444 c 6.30334,-1.0945 8.74396,-0.7138 12.00849,0.6094 4.82072,-6.1008 8.21082,-3.6008 12.00651,-3.532 2.87845,-1.1177 3.111,-6.1585 9.93881,-1.4245 1.04904,1.5677 2.73286,1.5388 4.55488,1.1594 2.02311,-0.214 4.14363,-0.9167 5.79748,0.7223 2.55325,5.5669 6.72928,2.4403 10.44534,1.7808 4.59672,1.0071 8.15391,6.643 14.13753,1.7135 3.89912,-3.826 7.04167,-2.5356 9.49757,-0.7301 2.45579,1.8054 2.07406,4.9002 6.60675,1.4781 3.21246,-3.8165 5.33043,-3.9752 8.67247,-1.9906 3.34202,1.985 8.25885,3.3351 14.19688,0.3107 l 7.19639,-5.4414 2.06968,5.3444 c 6.30355,-1.0945 8.74395,-0.7138 12.00849,0.6094 4.82072,-6.1008 8.21073,-3.6008 12.00652,-3.532 2.87834,-1.1177 3.11099,-6.1585 9.93881,-1.4245 1.04903,1.5677 2.73265,1.5388 4.55488,1.1594 2.023,-0.214 4.14393,-0.9167 5.79747,0.7223 5.16839,-0.5354 7.08633,1.607 7.01237,4.2897 3.73673,-4.908 -1.78564,-7.9973 -1.04275,-8.3579 1.63895,-1.6536 0.93835,-3.7745 0.72419,-5.7974 -0.37899,-1.8223 -0.41022,-3.5058 1.15751,-4.5549 4.73389,-6.8276 -0.30472,-7.0585 -1.42265,-9.9368 0.0686,-3.7957 2.56902,-7.1879 -3.53191,-12.0085 1.32328,-3.2649 1.70207,-5.7049 0.60745,-12.0085 l 5.34634,-2.0698 -5.44329,-7.1963 c -3.02454,-5.9381 -1.6722,-10.8549 0.31262,-14.1968 1.98471,-3.342 1.82374,-5.46 -1.99251,-8.6725 -3.42217,-4.5326 -0.32754,-4.151 1.47806,-6.6068 1.8054,-2.4561 3.09605,-5.5987 -0.73013,-9.4976 -4.92942,-5.9837 0.70861,-9.5389 1.7155,-14.1355 -0.65942,-3.7159 -3.78793,-7.894 1.77882,-10.4473 1.63895,-1.6537 0.93835,-3.7747 0.72419,-5.7976 -0.37899,-1.8223 -0.41022,-3.5057 1.15751,-4.5547 4.73389,-6.8278 -0.30472,-7.0587 -1.42265,-9.9368 0.0686,-3.7958 2.56902,-7.1879 -3.53191,-12.0086 1.32328,-3.2646 1.70207,-5.703 0.60745,-12.0065 l 5.34634,-2.0716 -5.44329,-7.1944 c -3.02454,-5.9381 -1.6722,-10.8569 0.31262,-14.1989 1.98471,-3.3418 1.82374,-5.4582 -1.99251,-8.6705 -3.42217,-4.5328 -0.32754,-4.1528 1.47806,-6.6088 1.8054,-2.4559 3.09605,-5.5987 -0.73013,-9.4976 -4.92942,-5.9837 0.70861,-9.5388 1.7155,-14.1355 -0.65942,-3.7159 -3.78793,-7.8941 1.77882,-10.4473 1.63895,-1.6536 0.93835,-3.7727 0.72419,-5.7955 -0.37899,-1.8223 -0.41022,-3.5059 1.15751,-4.5549 4.73389,-6.8277 -0.30472,-7.0603 -1.42265,-9.9388 0.0686,-3.7956 2.56902,-7.1859 -3.53191,-12.0065 1.32328,-3.2646 1.70207,-5.7049 0.60745,-12.0084 l 5.34634,-2.0698 -5.44329,-7.1964 c -3.02454,-5.9382 -1.6722,-10.8548 0.31262,-14.1969 1.98471,-3.342 1.82374,-5.4598 -1.99251,-8.6724 -3.42217,-4.5325 -0.32754,-4.1511 1.47806,-6.6067 1.8054,-2.4561 3.09605,-5.6006 -0.73013,-9.4995 -4.92942,-5.9838 0.70861,-9.539 1.7155,-14.1357 -0.65942,-3.7159 -3.78793,-7.8941 1.77882,-10.4473 1.63895,-1.6538 0.93835,-3.7725 0.72419,-5.7955 -0.37899,-1.8221 -0.41022,-3.5057 1.15751,-4.5549 4.73389,-6.8277 -0.30472,-7.0604 -1.42265,-9.9388 0.0686,-3.7957 2.56902,-7.1858 -3.53191,-12.0065 1.32328,-3.2646 1.70207,-5.7051 0.60745,-12.0085 l 5.34634,-2.0697 -5.44329,-7.1964 c -3.02454,-5.9378 -1.6722,-10.8548 0.31262,-14.1969 1.98471,-3.3418 1.82374,-5.4602 -1.99251,-8.6723 -3.42217,-4.5327 -0.32754,-4.1508 1.47806,-6.6069 1.8054,-2.4558 3.09605,-5.5985 -0.73013,-9.4975 -4.92942,-5.9836 0.70861,-9.5387 1.7155,-14.1356 -0.65942,-3.7159 -3.78793,-7.8941 1.77882,-10.4472 1.63895,-1.6538 0.93835,-3.7747 0.72419,-5.7976 -0.37899,-1.8222 -0.41022,-3.5058 1.15751,-4.5549 4.73389,-6.8276 -0.30472,-7.0586 -1.42265,-9.9368 0.0686,-3.7957 2.56902,-7.1879 -3.53191,-12.0085 1.32328,-3.2646 1.70207,-5.7049 0.60745,-12.0085 l 5.34634,-2.0696 -5.44329,-7.1964 c -3.02454,-5.9381 -1.6722,-10.8548 0.31262,-14.197 1.98471,-3.342 1.82374,-5.4597 -1.99251,-8.6724 -3.42217,-4.5325 -0.32754,-4.151 1.47806,-6.6068 1.8054,-2.4557 3.09605,-5.5984 -0.73013,-9.4976 8.38656,-2.355 4.64104,-7.6047 4.82398,-10.0476 -1.16968,3.0829 -4.9307,5.4033 -7.29928,0.2395 -1.65354,-1.6389 -3.77447,-0.9383 -5.79747,-0.7243 -1.82223,0.3793 -3.50585,0.4104 -4.55488,-1.1573 -6.82782,-4.734 -7.06047,0.3047 -9.93881,1.4225 -3.79579,-0.068 -7.1858,-2.5689 -12.00652,3.5319 -3.26454,-1.3232 -5.70494,-1.702 -12.00849,-0.6074 l -2.06968,-5.3464 -7.19639,5.4434 c -5.93803,3.0244 -10.85486,1.6724 -14.19688,-0.3127 -3.34204,-1.9847 -5.46001,-1.8239 -8.67247,1.9926 -4.53269,3.422 -4.15096,0.3273 -6.60675,-1.4781 -2.4559,-1.8054 -5.59845,-3.096 -9.49757,0.7301 -5.98362,4.9294 -9.54081,-0.7085 -14.13753,-1.7156 -3.71606,0.6595 -7.89209,3.788 -10.44534,-1.7787 -1.65385,-1.6389 -3.77437,-0.9383 -5.79748,-0.7243 -1.82202,0.3793 -3.50584,0.4104 -4.55488,-1.1573 -6.82781,-4.734 -7.06036,0.3047 -9.93881,1.4225 -3.79569,-0.068 -7.18579,-2.5689 -12.00651,3.5319 -3.26453,-1.3232 -5.70515,-1.702 -12.00849,-0.6074 l -2.06969,-5.3464 -7.19637,5.4434 c -5.93804,3.0244 -10.85477,1.6724 -14.1969,-0.3127 -3.34193,-1.9847 -5.46,-1.8239 -8.67246,1.9926 -4.53259,3.422 -4.15096,0.3273 -6.60675,-1.4781 -2.4558,-1.8054 -5.59846,-3.096 -9.49757,0.7301 -5.98363,4.9294 -9.5408,-0.7085 -14.13753,-1.7156 -3.71605,0.6595 -7.8923,3.788 -10.44534,-1.7787 -1.65385,-1.6389 -3.77448,-0.9383 -5.79748,-0.7243 -1.82202,0.3793 -3.50574,0.4104 -4.55488,-1.1573 -6.82771,-4.734 -7.05849,0.3047 -9.93683,1.4225 -3.79568,-0.068 -7.18778,-2.5689 -12.00849,3.5319 -3.26464,-1.3232 -5.70505,-1.702 -12.0085,-0.6074 l -2.06967,-5.3464 -7.19639,5.4434 c -5.93803,3.0244 -10.85485,1.6724 -14.19689,-0.3127 -3.34192,-1.9847 -5.45991,-1.8239 -8.67247,1.9926 -4.53249,3.422 -4.15085,0.3273 -6.60674,-1.4781 -2.456,-1.8054 -5.59855,-3.096 -9.49757,0.7301 -5.98372,4.9294 -9.54091,-0.7085 -14.13753,-1.7156 -3.71606,0.6595 -7.8922,3.788 -10.44536,-1.7787 -1.65374,-1.6389 -3.77446,-0.9383 -5.79746,-0.7243 -1.82222,0.3793 -3.50585,0.4104 -4.55489,-1.1573 -6.82771,-4.734 -7.05848,0.3047 -9.93683,1.4225 -3.79578,-0.068 -7.18768,-2.5689 -12.00849,3.5319 -3.26463,-1.3232 -5.70493,-1.702 -12.00848,-0.6074 l -2.06968,-5.3464 -7.19639,5.4434 c -5.93814,3.0244 -10.85486,1.6724 -14.19689,-0.3127 -3.34183,-1.9847 -5.46011,-1.8239 -8.67247,1.9926 -4.5327,3.422 -4.15095,0.3273 -6.60675,-1.4781 -2.45609,-1.8054 -5.59865,-3.096 -9.49765,0.7301 -5.9838,4.9294 -9.5389,-0.7085 -14.1355,-1.7156 -3.716,0.6595 -7.8941,3.788 -10.4473,-1.7787 -1.6538,-1.6389 -3.7745,-0.9383 -5.7974,-0.7243 -1.8223,0.3793 -3.5057,0.4104 -4.555,-1.1573 -2.1336,-1.4795 -3.6233,-2.0043 -4.7507,-1.9926 z m 490.91752,3.6347 c 0.0913,-0.2404 0.17177,-0.4835 0.22951,-0.7301 -0.14827,0.1973 -0.20857,0.4506 -0.22951,0.7301 z m -580.09972,578.5347 c -0.1275,0.1367 -0.2556,0.26 -0.3819,0.4135 0.1729,-0.1082 0.2894,-0.2515 0.3819,-0.4135 z"
       style="fill:#cccccc;fill-opacity:1;fill-rule:evenodd;stroke:none;stroke-width:1.08599269px;stroke-linecap:butt;stroke-linejoin:miter;stroke-opacity:1;filter:url(#filter17403)" />
    <path
       style="fill:#d3c5a7;fill-opacity:1;fill-rule:evenodd;stroke:none;stroke-width:1.08599269px;stroke-linecap:butt;stroke-linejoin:miter;stroke-opacity:1"
       d="m -1043.3303,1573.3727 c -2.4616,0.025 -3.1829,2.6267 -5.1469,3.3893 -3.767,-0.068 -7.1335,-2.5495 -11.9178,3.5052 -3.2399,-1.3132 -5.6619,-1.6892 -11.9177,-0.6028 l -2.0539,-5.306 -7.1421,5.4022 c -5.8932,3.0016 -10.7727,1.6598 -14.0895,-0.3103 -3.3166,-1.9697 -5.4188,-1.8101 -8.6069,1.9775 -4.4984,3.3962 -4.1194,0.3249 -6.5568,-1.4669 -2.4374,-1.7917 -5.5562,-3.0726 -9.4257,0.7246 -5.9385,4.8921 -9.4682,-0.7026 -11.5192,-4.9407 0.906,1.7394 -4.6878,5.2684 0.2043,11.2068 3.7972,3.8697 2.5165,6.9886 0.7246,9.4258 -1.7917,2.4372 -4.8633,2.0586 -1.4669,6.5568 3.7876,3.1884 3.9451,5.2901 1.9755,8.6069 -1.9698,3.3169 -3.3099,8.1964 -0.3083,14.0896 l 5.4002,7.142 -5.304,2.054 c 1.0865,6.2559 0.7086,8.6778 -0.6048,11.9177 6.0548,4.7842 3.5736,8.1507 3.5053,11.9177 1.1093,2.8565 6.1119,3.0857 1.4138,9.8617 -1.5559,1.0412 -1.5271,2.712 -1.1507,4.5205 0.2125,2.0076 0.9096,4.1124 -0.7168,5.7537 -5.525,2.5338 -2.422,6.6804 -1.7673,10.3683 -0.9994,4.5621 -6.5927,8.0903 -1.7006,14.0287 3.7972,3.8695 2.5165,6.9885 0.7246,9.4257 -1.7917,2.4375 -4.8633,2.0585 -1.4669,6.5569 3.7876,3.1879 3.9451,5.2902 1.9755,8.6068 -1.9698,3.3168 -3.3099,8.1966 -0.3083,14.0896 l 5.4002,7.142 -5.304,2.054 c 1.0865,6.2558 0.7086,8.6778 -0.6048,11.9177 6.0548,4.7843 3.5736,8.1488 3.5053,11.9158 1.1093,2.8566 6.1119,3.0875 1.4138,9.8636 -1.5559,1.0413 -1.5271,2.7122 -1.1507,4.5205 0.2125,2.0077 0.9096,4.1104 -0.7168,5.7517 -5.525,2.5339 -2.422,6.6805 -1.7673,10.3683 -0.9994,4.5619 -6.5927,8.0902 -1.7006,14.0288 3.7972,3.8696 2.5165,6.9902 0.7246,9.4277 -1.7917,2.4371 -4.8633,2.0585 -1.4669,6.5568 3.7876,3.1883 3.9451,5.2901 1.9755,8.6068 -1.9698,3.3168 -3.3099,8.1963 -0.3083,14.0896 l 5.4002,7.142 -5.304,2.0541 c 1.0865,6.2559 0.7086,8.6777 -0.6048,11.9177 6.0548,4.7841 3.5736,8.1488 3.5053,11.9157 1.1093,2.8567 6.1119,3.0876 1.4138,9.8637 -1.5559,1.041 -1.5271,2.7119 -1.1507,4.5204 0.2125,2.0075 0.9096,4.1106 -0.7168,5.7517 -5.525,2.5339 -2.422,6.6805 -1.7673,10.3683 -0.9994,4.562 -6.5927,8.0902 -1.7006,14.0287 3.7972,3.8694 2.5165,6.9884 0.7246,9.4258 -1.7917,2.4374 -4.8633,2.0603 -1.4669,6.5588 3.7876,3.188 3.9451,5.2884 1.9755,8.605 -1.9698,3.3167 -3.3099,8.1983 -0.3083,14.0915 l 5.4002,7.14 -5.304,2.056 c 1.0865,6.2558 0.7086,8.6758 -0.6048,11.9157 6.0548,4.7843 3.5736,8.1507 3.5053,11.9178 1.1093,2.8564 6.1119,3.0855 1.4138,9.8617 -1.5559,1.0412 -1.5271,2.7117 -1.1507,4.5203 0.2125,2.0076 0.9096,4.1125 -0.7168,5.7537 -5.525,2.534 -2.422,6.6805 -1.7673,10.3684 -0.9994,4.5618 -6.5927,8.0901 -1.7006,14.0286 3.7972,3.8694 2.5165,6.9883 0.7246,9.4258 -1.7917,2.4372 -4.8633,2.0585 -1.4669,6.5568 3.7876,3.1883 3.9451,5.2902 1.9755,8.607 -1.9698,3.3166 -3.3099,8.1962 -0.3083,14.0895 l 5.4002,7.1419 -5.304,2.0541 c 1.0865,6.256 0.7086,8.6775 -0.6048,11.9177 6.0548,4.7842 3.5736,8.1507 3.5053,11.9177 1.1093,2.8566 6.1119,3.0857 1.4138,9.8617 -1.5559,1.0412 -1.5271,2.712 -1.1507,4.5205 0.2125,2.0076 0.9096,4.1125 -0.7168,5.7536 -4.987,2.2872 -2.9534,5.8808 -3.8037,7.3718 3.6726,-3.9383 7.884,-1.059 11.6507,0.1335 3.8695,-3.7971 6.9883,-2.5164 9.4257,-0.7246 2.4374,1.7918 2.0584,4.8632 6.5568,1.4669 3.1881,-3.7876 5.2903,-3.9451 8.6069,-1.9755 3.3168,1.97 8.1963,3.3099 14.0895,0.3083 l 7.1421,-5.4002 2.0539,5.304 c 6.2558,-1.0863 8.6778,-0.7084 11.9177,0.6048 4.7843,-6.0547 8.1508,-3.5736 11.9178,-3.5053 2.8567,-1.1093 3.0858,-6.112 9.8617,-1.4138 1.0413,1.5559 2.712,1.5272 4.5205,1.1507 2.0076,-0.2124 4.1123,-0.9098 5.7536,0.7168 2.5339,5.5248 6.6804,2.4219 10.3683,1.7673 4.5619,0.9995 8.0901,6.5928 14.0287,1.7006 3.8695,-3.7971 6.98828,-2.5164 9.42581,-0.7246 2.43723,1.7918 2.05837,4.8632 6.5568,1.4669 3.18807,-3.7876 5.29034,-3.9451 8.60691,-1.9755 3.31676,1.97 8.19631,3.3099 14.08956,0.3083 l 7.14199,-5.4002 2.05403,5.304 c 6.2559,-1.0863 8.67775,-0.7084 11.9177,0.6048 4.78437,-6.0547 8.15062,-3.5736 11.91771,-3.5053 2.85659,-1.1093 3.08561,-6.112 9.86171,-1.4138 1.04111,1.5559 2.712,1.5272 4.52045,1.1507 2.00771,-0.2124 4.1124,-0.9098 5.75364,0.7168 2.53385,5.5248 6.67842,2.4219 10.36639,1.7673 4.56187,0.9995 8.09217,6.5928 14.03065,1.7006 3.86955,-3.7971 6.98834,-2.5164 9.42577,-0.7246 2.43733,1.7918 2.05857,4.8632 6.5568,1.4669 3.18827,-3.7876 5.29025,-3.9451 8.60691,-1.9755 3.31677,1.97 8.19642,3.3099 14.08956,0.3083 l 7.14199,-5.4002 2.05402,5.304 c 6.2558,-1.0863 8.67776,-0.7084 11.91772,0.6048 4.78427,-6.0547 8.15071,-3.5736 11.91771,-3.5053 2.85659,-1.1093 3.08561,-6.112 9.86171,-1.4138 1.04121,1.5559 2.7122,1.5272 4.52044,1.1507 2.00771,-0.2124 4.11231,-0.9098 5.75365,0.7168 2.53374,5.5248 6.67842,2.4219 10.36638,1.7673 4.56198,0.9995 8.09226,6.5928 14.03065,1.7006 3.86964,-3.7971 6.98854,-2.5164 9.42577,-0.7246 2.43723,1.7918 2.05848,4.8632 6.55681,1.4669 3.18817,-3.7876 5.29023,-3.9451 8.6069,-1.9755 3.31686,1.97 8.19642,3.3099 14.08957,0.3083 l 7.14197,-5.4002 2.05404,5.304 c 6.25569,-1.0863 8.67786,-0.7084 11.91771,0.6048 4.78427,-6.0547 8.14875,-3.5736 11.91574,-3.5053 2.85669,-1.1093 3.08748,-6.112 9.86368,-1.4138 1.04111,1.5559 2.7122,1.5272 4.52044,1.1507 2.00782,-0.2124 4.11231,-0.9098 5.75365,0.7168 2.53395,5.5248 6.67841,2.4219 10.36638,1.7673 4.56197,0.9995 8.09227,6.5928 14.03065,1.7006 3.86965,-3.7971 6.98844,-2.5164 9.42577,-0.7246 2.43723,1.7918 2.05838,4.8632 6.55681,1.4669 3.18817,-3.7876 5.29013,-3.9451 8.6069,-1.9755 3.31676,1.97 8.19642,3.3099 14.08956,0.3083 l 7.14199,-5.4002 2.05403,5.304 c 6.2559,-1.0863 8.67785,-0.7084 11.91771,0.6048 4.78427,-6.0547 8.14866,-3.5736 11.91575,-3.5053 2.85658,-1.1093 3.08747,-6.112 9.86367,-1.4138 1.0411,1.5559 2.712,1.5272 4.52045,1.1507 2.00771,-0.2124 4.1126,-0.9098 5.75364,0.7168 5.12932,-0.5313 7.03276,1.5949 6.95936,4.2573 3.70848,-4.8709 -1.77214,-7.9369 -1.03487,-8.2947 1.62656,-1.6411 0.93126,-3.746 0.71872,-5.7536 -0.37613,-1.8085 -0.40712,-3.4793 1.14876,-4.5205 4.6981,-6.776 -0.30242,-7.0051 -1.4119,-9.8617 0.0681,-3.767 2.5496,-7.1335 -3.50521,-11.9177 1.31328,-3.2402 1.68921,-5.6617 0.60286,-11.9177 l 5.30592,-2.0541 -5.40214,-7.1419 c -3.00167,-5.8933 -1.65955,-10.7729 0.31026,-14.0895 1.96971,-3.3168 1.80995,-5.4187 -1.97745,-8.607 -3.39629,-4.4983 -0.32506,-4.1196 1.46689,-6.5568 1.79175,-2.4375 3.07264,-5.5564 -0.72461,-9.4258 -4.89215,-5.9385 0.70325,-9.4668 1.70253,-14.0286 -0.65443,-3.6879 -3.75929,-7.8344 1.76537,-10.3684 1.62656,-1.6412 0.93126,-3.7461 0.71872,-5.7537 -0.37613,-1.8086 -0.40712,-3.4792 1.14876,-4.5203 4.6981,-6.7762 -0.30242,-7.0053 -1.4119,-9.8617 0.0681,-3.7671 2.5496,-7.1335 -3.50521,-11.9178 1.31328,-3.2399 1.68921,-5.6599 0.60286,-11.9157 l 5.30592,-2.056 -5.40214,-7.14 c -3.00167,-5.8932 -1.65955,-10.7748 0.31026,-14.0915 1.96971,-3.3166 1.80995,-5.417 -1.97745,-8.605 -3.39629,-4.4985 -0.32506,-4.1214 1.46689,-6.5588 1.79175,-2.4374 3.07264,-5.5564 -0.72461,-9.4258 -4.89215,-5.9385 0.70325,-9.4667 1.70253,-14.0287 -0.65443,-3.6878 -3.75929,-7.8344 1.76537,-10.3683 1.62656,-1.6411 0.93126,-3.7442 0.71872,-5.7517 -0.37613,-1.8085 -0.40712,-3.4794 1.14876,-4.5204 4.6981,-6.7761 -0.30242,-7.007 -1.4119,-9.8637 0.0681,-3.7669 2.5496,-7.1316 -3.50521,-11.9157 1.31328,-3.24 1.68921,-5.6618 0.60286,-11.9177 l 5.30592,-2.0541 -5.40214,-7.142 c -3.00167,-5.8933 -1.65955,-10.7728 0.31026,-14.0896 1.96971,-3.3167 1.80995,-5.4185 -1.97745,-8.6068 -3.39629,-4.4983 -0.32506,-4.1197 1.46689,-6.5568 1.79175,-2.4375 3.07264,-5.5582 -0.72461,-9.4277 -4.89215,-5.9385 0.70325,-9.4669 1.70253,-14.0288 -0.65443,-3.6878 -3.75929,-7.8344 1.76537,-10.3683 1.62656,-1.6413 0.93126,-3.744 0.71872,-5.7517 -0.37613,-1.8083 -0.40712,-3.4792 1.14876,-4.5205 4.6981,-6.7761 -0.30242,-7.007 -1.4119,-9.8636 0.0681,-3.767 2.5496,-7.1315 -3.50521,-11.9158 1.31328,-3.2399 1.68921,-5.6619 0.60286,-11.9177 l 5.30592,-2.054 -5.40214,-7.142 c -3.00167,-5.893 -1.65955,-10.7728 0.31026,-14.0896 1.96971,-3.3166 1.80995,-5.4189 -1.97745,-8.6068 -3.39629,-4.4984 -0.32506,-4.1194 1.46689,-6.5569 1.79175,-2.4372 3.07264,-5.5562 -0.72461,-9.4257 -4.89215,-5.9384 0.70325,-9.4666 1.70253,-14.0287 -0.65443,-3.6879 -3.75929,-7.8345 1.76537,-10.3683 1.62656,-1.6413 0.93126,-3.7461 0.71872,-5.7537 -0.37613,-1.8085 -0.40712,-3.4793 1.14876,-4.5205 4.6981,-6.776 -0.30242,-7.0052 -1.4119,-9.8617 0.0681,-3.767 2.5496,-7.1335 -3.50521,-11.9177 1.31328,-3.2399 1.68921,-5.6618 0.60286,-11.9177 l 5.30592,-2.054 -5.40214,-7.142 c -3.00167,-5.8932 -1.65955,-10.7727 0.31026,-14.0896 1.96971,-3.3168 1.80995,-5.4185 -1.97745,-8.6069 -3.39629,-4.4982 -0.32506,-4.1196 1.46689,-6.5568 1.79175,-2.4372 3.07264,-5.5561 -0.72461,-9.4258 8.32316,-2.3372 4.60595,-7.5472 4.78751,-9.9717 -1.16084,3.0596 -4.89342,5.3625 -7.2441,0.2377 -1.64104,-1.6265 -3.74593,-0.9312 -5.75364,-0.7188 -1.80845,0.3764 -3.47935,0.4073 -4.52045,-1.1486 -6.7762,-4.6982 -7.00709,0.3024 -9.86367,1.4118 -3.76709,-0.068 -7.13148,-2.5495 -11.91575,3.5052 -3.23986,-1.3132 -5.66181,-1.6892 -11.91771,-0.6028 l -2.05403,-5.306 -7.14199,5.4022 c -5.89314,3.0016 -10.7728,1.6598 -14.08956,-0.3103 -3.31677,-1.9697 -5.41873,-1.8101 -8.6069,1.9775 -4.49843,3.3962 -4.11958,0.3249 -6.55681,-1.4669 -2.43733,-1.7917 -5.55612,-3.0726 -9.42577,0.7246 -5.93838,4.8921 -9.46868,-0.7032 -14.03065,-1.7026 -3.68797,0.6545 -7.83243,3.7593 -10.36638,-1.7653 -1.64134,-1.6265 -3.74583,-0.9312 -5.75365,-0.7188 -1.80824,0.3764 -3.47933,0.4073 -4.52044,-1.1486 -6.7762,-4.6982 -7.00699,0.3024 -9.86368,1.4118 -3.76699,-0.068 -7.13147,-2.5495 -11.91574,3.5052 -3.23985,-1.3132 -5.66202,-1.6892 -11.91771,-0.6028 l -2.05404,-5.306 -7.14197,5.4022 c -5.89315,3.0016 -10.77271,1.6598 -14.08957,-0.3103 -3.31667,-1.9697 -5.41873,-1.8101 -8.6069,1.9775 -4.49833,3.3962 -4.11958,0.3249 -6.55681,-1.4669 -2.43723,-1.7917 -5.55613,-3.0726 -9.42577,0.7246 -5.93839,4.8921 -9.46867,-0.7032 -14.03065,-1.7026 -3.68796,0.6545 -7.83264,3.7593 -10.36638,-1.7653 -1.64134,-1.6265 -3.74594,-0.9312 -5.75365,-0.7188 -1.80824,0.3764 -3.47923,0.4073 -4.52044,-1.1486 -6.7761,-4.6982 -7.00513,0.3024 -9.86171,1.4118 -3.76699,-0.068 -7.13344,-2.5495 -11.91771,3.5052 -3.23996,-1.3132 -5.66192,-1.6892 -11.91772,-0.6028 l -2.05402,-5.306 -7.14199,5.4022 c -5.89314,3.0016 -10.77279,1.6598 -14.08956,-0.3103 -3.31666,-1.9697 -5.41864,-1.8101 -8.60691,1.9775 -4.49823,3.3962 -4.11947,0.3249 -6.5568,-1.4669 -2.43743,-1.7917 -5.55622,-3.0726 -9.42577,0.7246 -5.93848,4.8921 -9.46878,-0.7032 -14.03065,-1.7026 -3.68797,0.6545 -7.83254,3.7593 -10.36639,-1.7653 -1.64124,-1.6265 -3.74593,-0.9312 -5.75364,-0.7188 -1.80844,0.3764 -3.47934,0.4073 -4.52045,-1.1486 -6.7761,-4.6982 -7.00512,0.3024 -9.86171,1.4118 -3.76709,-0.068 -7.13334,-2.5495 -11.91771,3.5052 -3.23995,-1.3132 -5.6618,-1.6892 -11.9177,-0.6028 l -2.05403,-5.306 -7.14199,5.4022 c -5.89325,3.0016 -10.7728,1.6598 -14.08956,-0.3103 -3.31657,-1.9697 -5.41884,-1.8101 -8.60691,1.9775 -4.49843,3.3962 -4.11957,0.3249 -6.5568,-1.4669 -2.43753,-1.7917 -5.55631,-3.0726 -9.42581,0.7246 -5.9386,4.8921 -9.4668,-0.7032 -14.0287,-1.7026 -3.6879,0.6545 -7.8344,3.7593 -10.3683,-1.7653 -1.6413,-1.6265 -3.746,-0.9312 -5.7536,-0.7188 -1.8085,0.3764 -3.4792,0.4073 -4.5205,-1.1486 -2.1175,-1.4683 -3.5959,-1.9891 -4.7148,-1.9775 z m 487.20625,3.6072 c 0.0906,-0.2386 0.17047,-0.4798 0.22778,-0.7246 -0.14715,0.1958 -0.207,0.4472 -0.22778,0.7246 z m -575.71425,574.1611 c -0.1266,0.1357 -0.2537,0.258 -0.379,0.4104 0.1716,-0.1074 0.2872,-0.2496 0.379,-0.4104 z"
       id="path17334"
       inkscape:connector-curvature="0" />
    <g
       transform="translate(-1878.6763,-1729.8571)"
       id="g8346"
       style="display:inline">
      <path
         sodipodi:type="star"
         style="color:#000000;clip-rule:nonzero;display:inline;overflow:visible;visibility:visible;opacity:1;isolation:auto;mix-blend-mode:normal;color-interpolation:sRGB;color-interpolation-filters:linearRGB;solid-color:#000000;solid-opacity:1;fill:#ff8080;fill-opacity:1;fill-rule:nonzero;stroke:none;stroke-width:10;stroke-linecap:butt;stroke-linejoin:miter;stroke-miterlimit:4;stroke-dasharray:none;stroke-dashoffset:0;stroke-opacity:1;color-rendering:auto;image-rendering:auto;shape-rendering:auto;text-rendering:auto;enable-background:accumulate"
         id="path8311"
         sodipodi:sides="8"
         sodipodi:cx="1722.4576"
         sodipodi:cy="2726.6948"
         sodipodi:r1="111.00158"
         sodipodi:r2="102.55209"
         sodipodi:arg1="-1.1583859"
         sodipodi:arg2="-0.7656868"
         inkscape:flatsided="true"
         inkscape:rounded="0"
         inkscape:randomized="0"
         d="m 1766.9492,2624.9999 58.8779,61.246 -1.6745,84.9404 -61.2461,58.8779 -84.9404,-1.6745 -58.8779,-61.246 1.6745,-84.9404 61.246,-58.8779 z"
         transform="matrix(1.1563441,0,0,0.34287535,-279.29594,1866.955)" />
      <path
         sodipodi:nodetypes="ccccc"
         inkscape:connector-curvature="0"
         id="path8316"
         d="m 1824.1779,2737.9488 -65.5518,-17.9739 0,46.5207 68.7236,15.8593 z"
         style="color:#000000;clip-rule:nonzero;display:inline;overflow:visible;visibility:visible;opacity:1;isolation:auto;mix-blend-mode:normal;color-interpolation:sRGB;color-interpolation-filters:linearRGB;solid-color:#000000;solid-opacity:1;fill:none;fill-opacity:1;fill-rule:nonzero;stroke:#000000;stroke-width:2.82299662;stroke-linecap:butt;stroke-linejoin:miter;stroke-miterlimit:4;stroke-dasharray:none;stroke-dashoffset:0;stroke-opacity:1;color-rendering:auto;image-rendering:auto;shape-rendering:auto;text-rendering:auto;enable-background:accumulate" />
      <path
         style="color:#000000;clip-rule:nonzero;display:inline;overflow:visible;visibility:visible;opacity:1;isolation:auto;mix-blend-mode:normal;color-interpolation:sRGB;color-interpolation-filters:linearRGB;solid-color:#000000;solid-opacity:1;fill:none;fill-opacity:1;fill-rule:nonzero;stroke:#000000;stroke-width:2.82299662;stroke-linecap:butt;stroke-linejoin:miter;stroke-miterlimit:4;stroke-dasharray:none;stroke-dashoffset:0;stroke-opacity:1;color-rendering:auto;image-rendering:auto;shape-rendering:auto;text-rendering:auto;enable-background:accumulate"
         d="m 1755.2788,2719.9715 -84.6527,0 0,46.5207 84.4537,-0.9944 z"
         id="path8320"
         inkscape:connector-curvature="0"
         sodipodi:nodetypes="ccccc" />
      <path
         style="color:#000000;clip-rule:nonzero;display:inline;overflow:visible;visibility:visible;opacity:1;isolation:auto;mix-blend-mode:normal;color-interpolation:sRGB;color-interpolation-filters:linearRGB;solid-color:#000000;solid-opacity:1;fill:none;fill-opacity:1;fill-rule:nonzero;stroke:#000000;stroke-width:2.82299662;stroke-linecap:butt;stroke-linejoin:miter;stroke-miterlimit:4;stroke-dasharray:none;stroke-dashoffset:0;stroke-opacity:1;color-rendering:auto;image-rendering:auto;shape-rendering:auto;text-rendering:auto;enable-background:accumulate"
         d="m 1601.9304,2737.9488 65.5518,-17.9739 0,46.5207 -68.7236,15.8593 z"
         id="rect8313"
         inkscape:connector-curvature="0"
         sodipodi:nodetypes="ccccc" />
    </g>
    <g
       transform="translate(-253.88082,807.60111)"
       id="g8261"
       style="enable-background:new">
      <g
         inkscape:label="Layer 1"
         id="layer1-6"
         style="filter:url(#filter4144-7)"
         transform="translate(-50.837727,-739.1985)">
        <g
           id="g8464"
           transform="matrix(0.83004747,0,0,1.0075172,-1404.4221,644.14563)">
          <path
             inkscape:connector-curvature="0"
             id="path8154"
             d="m 1765.421,98.620254 9.0509,0 9.8052,92.018166 -26.7757,0 z"
             style="fill:#4d4d4d;fill-opacity:1;fill-rule:evenodd;stroke:none;stroke-width:1px;stroke-linecap:butt;stroke-linejoin:miter;stroke-opacity:1;filter:url(#filter8180)" />
          <path
             sodipodi:nodetypes="ccccc"
             inkscape:connector-curvature="0"
             id="path8132"
             d="m 1765.421,98.620254 9.0509,0 9.8052,92.018166 c -9.9898,-2.12909 -18.7958,-1.89062 -26.7757,0 z"
             style="fill:#475c8d;fill-opacity:1;fill-rule:evenodd;stroke:none;stroke-width:1px;stroke-linecap:butt;stroke-linejoin:miter;stroke-opacity:1" />
          <path
             sodipodi:nodetypes="ccccc"
             style="fill:url(#linearGradient8142);fill-opacity:1;fill-rule:evenodd;stroke:none;stroke-width:1px;stroke-linecap:butt;stroke-linejoin:miter;stroke-opacity:1"
             d="m 1765.421,98.620254 c 2.8464,-0.682076 5.849,-0.739664 9.0509,0 l 9.8052,92.018166 c -8.9252,-2.22176 -17.8505,-1.79114 -26.7757,0 z"
             id="path8106"
             inkscape:connector-curvature="0" />
          <g
             id="g8371">
            <path
               sodipodi:type="star"
               style="color:#000000;clip-rule:nonzero;display:inline;overflow:visible;visibility:visible;opacity:1;isolation:auto;mix-blend-mode:normal;color-interpolation:sRGB;color-interpolation-filters:linearRGB;solid-color:#000000;solid-opacity:1;fill:#1f2f4a;fill-opacity:1;fill-rule:nonzero;stroke:none;stroke-width:1;stroke-linecap:butt;stroke-linejoin:miter;stroke-miterlimit:4;stroke-dasharray:none;stroke-dashoffset:0;stroke-opacity:1;color-rendering:auto;image-rendering:auto;shape-rendering:auto;text-rendering:auto;enable-background:accumulate"
               id="path8186"
               sodipodi:sides="3"
               sodipodi:cx="1722.3236"
               sodipodi:cy="183.09595"
               sodipodi:r1="3.9777157"
               sodipodi:r2="1.9888579"
               sodipodi:arg1="-1.5707963"
               sodipodi:arg2="-0.52359878"
               inkscape:flatsided="true"
               inkscape:rounded="0"
               inkscape:randomized="0"
               d="m 1722.3236,179.11823 3.4448,5.96658 -6.8896,0 z"
               inkscape:transform-center-y="-3.4941581"
               transform="matrix(1.0381662,0,0,3.5137242,-17.160958,-465.01827)"
               inkscape:transform-center-x="5.2610234e-05" />
            <path
               inkscape:transform-center-x="5.1273955e-05"
               inkscape:transform-center-y="-3.3229538"
               d="m 1722.3236,179.11823 3.4448,5.96658 -6.8896,0 z"
               inkscape:randomized="0"
               inkscape:rounded="0"
               inkscape:flatsided="true"
               sodipodi:arg2="-0.52359878"
               sodipodi:arg1="-1.5707963"
               sodipodi:r2="1.9888579"
               sodipodi:r1="3.9777157"
               sodipodi:cy="183.09595"
               sodipodi:cx="1722.3236"
               sodipodi:sides="3"
               id="path8188"
               style="color:#000000;clip-rule:nonzero;display:inline;overflow:visible;visibility:visible;opacity:1;isolation:auto;mix-blend-mode:normal;color-interpolation:sRGB;color-interpolation-filters:linearRGB;solid-color:#000000;solid-opacity:1;fill:#1f2f4a;fill-opacity:1;fill-rule:nonzero;stroke:none;stroke-width:1;stroke-linecap:butt;stroke-linejoin:miter;stroke-miterlimit:4;stroke-dasharray:none;stroke-dashoffset:0;stroke-opacity:1;filter:url(#filter8328);color-rendering:auto;image-rendering:auto;shape-rendering:auto;text-rendering:auto;enable-background:accumulate"
               sodipodi:type="star"
               transform="matrix(0.69297757,0,0,3.3415574,568.37009,-432.93295)" />
            <use
               x="0"
               y="0"
               xlink:href="#path8188"
               inkscape:transform-center-x="5.5273537e-05"
               inkscape:transform-center-y="-4.0451217"
               id="use8190"
               transform="translate(17.955961,-1.251664e-8)"
               width="100%"
               height="100%" />
            <path
               inkscape:transform-center-x="5.7985109e-05"
               transform="matrix(0.8064661,0,0,-2.6437947,376.8986,648.55183)"
               inkscape:transform-center-y="2.6290634"
               d="m 1722.3236,179.11823 3.4448,5.96658 -6.8896,0 z"
               inkscape:randomized="0"
               inkscape:rounded="0"
               inkscape:flatsided="true"
               sodipodi:arg2="-0.52359878"
               sodipodi:arg1="-1.5707963"
               sodipodi:r2="1.9888579"
               sodipodi:r1="3.9777157"
               sodipodi:cy="183.09595"
               sodipodi:cx="1722.3236"
               sodipodi:sides="3"
               id="path8340"
               style="color:#000000;clip-rule:nonzero;display:inline;overflow:visible;visibility:visible;opacity:1;isolation:auto;mix-blend-mode:normal;color-interpolation:sRGB;color-interpolation-filters:linearRGB;solid-color:#000000;solid-opacity:1;fill:#1f2f4a;fill-opacity:1;fill-rule:nonzero;stroke:none;stroke-width:1;stroke-linecap:butt;stroke-linejoin:miter;stroke-miterlimit:4;stroke-dasharray:none;stroke-dashoffset:0;stroke-opacity:1;color-rendering:auto;image-rendering:auto;shape-rendering:auto;text-rendering:auto;enable-background:accumulate"
               sodipodi:type="star" />
            <use
               x="0"
               y="0"
               xlink:href="#path8340"
               inkscape:transform-center-x="5.7985109e-05"
               inkscape:transform-center-y="3.317957"
               id="use8342"
               transform="translate(9.9903565,0)"
               width="100%"
               height="100%" />
            <path
               style="color:#000000;clip-rule:nonzero;display:inline;overflow:visible;visibility:visible;opacity:1;isolation:auto;mix-blend-mode:normal;color-interpolation:sRGB;color-interpolation-filters:linearRGB;solid-color:#000000;solid-opacity:1;fill:#1f2f4a;fill-opacity:1;fill-rule:nonzero;stroke:none;stroke-width:1;stroke-linecap:butt;stroke-linejoin:miter;stroke-miterlimit:4;stroke-dasharray:none;stroke-dashoffset:0;stroke-opacity:1;color-rendering:auto;image-rendering:auto;shape-rendering:auto;text-rendering:auto;enable-background:accumulate"
               d="m 1764.3855,149.59961 -1.2696,7.20117 5.5567,0 -1.2676,-7.20117 -3.0195,0 z"
               id="path8367"
               inkscape:connector-curvature="0" />
            <use
               x="0"
               y="0"
               xlink:href="#path8367"
               id="use8369"
               transform="matrix(-1,0,0,1,3541.7788,0)"
               width="100%"
               height="100%" />
          </g>
          <path
             sodipodi:nodetypes="ccccc"
             inkscape:connector-curvature="0"
             id="path8380"
             d="m 1765.4219,98.621094 -2.6328,30.578126 c 4.5525,-1.49776 9.3877,-2.00633 14.9414,0 l -3.2578,-30.578126 c -3.2017,-1.108837 -6.2045,-1.023795 -9.0508,0 z"
             style="opacity:0.52999998;fill:#455883;fill-opacity:1;fill-rule:evenodd;stroke:none;stroke-width:1px;stroke-linecap:butt;stroke-linejoin:miter;stroke-opacity:1" />
        </g>
      </g>
    </g>
    <rect
       style="color:#000000;clip-rule:nonzero;display:inline;overflow:visible;visibility:visible;opacity:1;isolation:auto;mix-blend-mode:normal;color-interpolation:sRGB;color-interpolation-filters:linearRGB;solid-color:#000000;solid-opacity:1;fill:#800000;fill-opacity:1;fill-rule:nonzero;stroke:none;stroke-width:1;stroke-linecap:butt;stroke-linejoin:miter;stroke-miterlimit:4;stroke-dasharray:none;stroke-dashoffset:0;stroke-opacity:1;color-rendering:auto;image-rendering:auto;shape-rendering:auto;text-rendering:auto;enable-background:accumulate"
       id="rect17314"
       width="876.5625"
       height="726.5625"
       x="-1268.9366"
       y="2260.7698" />
    <path
       id="path12376"
       style="fill:url(#linearGradient12453);fill-opacity:1;fill-rule:evenodd;stroke:none;stroke-width:1.08599269px;stroke-linecap:butt;stroke-linejoin:miter;stroke-opacity:1"
       d="m -563.9975,1586.8784 c 3.7768,3.8488 2.5036,6.9512 0.7215,9.3753 -1.7823,2.4241 -4.8366,2.0478 -1.4586,6.5218 3.767,3.1712 3.9245,5.2613 1.9654,8.5602 -1.9592,3.299 -3.2937,8.1525 -0.3082,14.0139 l 5.3728,7.103 -5.2762,2.0436 c 1.0805,6.2222 0.7053,8.6305 -0.6009,11.853 6.0222,4.7584 3.5541,8.1062 3.4864,11.8529 1.1035,2.8411 6.0782,3.0697 1.4054,9.8092 -1.5475,1.0356 -1.5182,2.6973 -1.1441,4.496 0.2114,1.9968 0.9048,4.0898 -0.713,5.7222 -5.4949,2.5202 -2.4083,6.6441 -1.7574,10.3121 -0.9939,4.5375 -6.5589,8.0471 -1.6931,13.9535 3.7768,3.8487 2.5036,6.9511 0.7215,9.3752 -1.7823,2.4243 -4.8366,2.0481 -1.4586,6.5222 3.767,3.1708 3.9245,5.2611 1.9654,8.5599 -1.9592,3.2989 -3.2937,8.1526 -0.3082,14.0139 l 5.3728,7.1032 -5.2762,2.0436 c 1.0805,6.2221 0.7053,8.6303 -0.6009,11.8528 6.0222,4.7585 3.5541,8.1062 3.4864,11.8529 1.1035,2.8412 6.0782,3.0697 1.4054,9.8093 -1.5475,1.0356 -1.5182,2.6973 -1.1441,4.4959 0.2114,1.9969 0.9048,4.0898 -0.713,5.7222 -5.4949,2.5203 -2.4083,6.6442 -1.7574,10.3122 -0.9939,4.5373 -6.5589,8.047 -1.6931,13.9535 3.7768,3.8488 2.5036,6.951 0.7215,9.3753 -1.7823,2.424 -4.8366,2.0478 -1.4586,6.5219 3.767,3.1711 3.9245,5.2612 1.9654,8.5601 -1.9592,3.2989 -3.2937,8.1524 -0.3082,14.014 l 5.3728,7.103 -5.2762,2.0436 c 1.0805,6.2222 0.7053,8.6304 -0.6009,11.8529 6.0222,4.7584 3.5541,8.1062 3.4864,11.8528 1.1035,2.8413 6.0782,3.0698 1.4054,9.8094 -1.5475,1.0354 -1.5182,2.6972 -1.1441,4.496 0.2114,1.9967 0.9048,4.0898 -0.713,5.7221 -5.4949,2.5203 -2.4083,6.6442 -1.7574,10.3122 -0.9939,4.5374 -6.5589,8.047 -1.6931,13.9535 3.7768,3.8486 2.5036,6.951 0.7215,9.3752 -1.7823,2.4243 -4.8366,2.0478 -1.4586,6.5221 3.767,3.1708 3.9245,5.2612 1.9654,8.5599 -1.9592,3.2989 -3.2937,8.1525 -0.3082,14.0139 l 5.3728,7.1032 -5.2762,2.0436 c 1.0805,6.2221 0.7053,8.6303 -0.6009,11.8527 6.0222,4.7586 3.5541,8.1063 3.4864,11.8531 1.1035,2.8411 6.0782,3.0696 1.4054,9.8092 -1.5475,1.0356 -1.5182,2.6971 -1.1441,4.496 0.2114,1.9968 0.9048,4.0897 -0.713,5.7221 -5.4949,2.5203 -2.4083,6.6442 -1.7574,10.3122 -0.9939,4.5373 -6.5589,8.0471 -1.6931,13.9536 3.7768,3.8485 2.5036,6.9508 0.7215,9.3752 -1.7823,2.4241 -4.8366,2.0478 -1.4586,6.5219 3.767,3.1711 3.9245,5.2613 1.9654,8.5602 -1.9592,3.2988 -3.2937,8.1524 -0.3082,14.0139 l 5.3728,7.103 -5.2762,2.0435 c 1.0805,6.2223 0.7053,8.6304 -0.6009,11.8531 6.0222,4.7584 3.5541,8.1061 3.4864,11.8528 1.1035,2.8412 6.0782,3.0697 1.4054,9.8092 -1.5475,1.0356 -1.5182,2.6973 -1.1441,4.496 0.2114,1.9968 0.9048,4.0899 -0.713,5.7222 -0.7333,0.3558 4.7176,3.405 1.0291,8.2497 0.073,-2.6481 -1.8219,-4.7624 -6.9236,-4.234 -1.6322,-1.6178 -3.7252,-0.9244 -5.7221,-0.7131 -1.7987,0.3744 -3.4604,0.4036 -4.4959,-1.1439 -6.7397,-4.6729 -6.9682,0.3019 -9.8094,1.4053 -3.7468,-0.068 -7.0945,-2.5357 -11.853,3.4864 -3.2224,-1.3062 -5.6306,-1.6812 -11.8528,-0.6008 l -2.0436,-5.2761 -7.1032,5.3727 c -5.8614,2.9854 -10.715,1.6511 -14.0139,-0.3083 -3.2989,-1.959 -5.3891,-1.8017 -8.5601,1.9655 -4.4742,3.378 -4.0979,0.3236 -6.522,-1.4586 -2.4242,-1.7821 -5.5266,-3.0553 -9.3754,0.7213 -5.9064,4.8659 -9.416,-0.699 -13.9534,-1.6931 -3.6681,0.6511 -7.7919,3.7377 -10.3122,-1.7573 -1.6325,-1.6178 -3.7254,-0.9244 -5.7224,-0.7131 -1.7985,0.3744 -3.4602,0.4036 -4.4957,-1.1439 -6.7397,-4.6729 -6.9682,0.3019 -9.8095,1.4053 -3.7467,-0.068 -7.0944,-2.5357 -11.8529,3.4864 -3.2224,-1.3062 -5.6308,-1.6812 -11.8528,-0.6008 l -2.0437,-5.2761 -7.1031,5.3727 c -5.8614,2.9854 -10.715,1.6511 -14.014,-0.3083 -3.2988,-1.959 -5.3891,-1.8017 -8.5601,1.9655 -4.4741,3.378 -4.0979,0.3236 -6.522,-1.4586 -2.4241,-1.7821 -5.5265,-3.0553 -9.3753,0.7213 -5.9064,4.8659 -9.4161,-0.699 -13.9535,-1.6931 -3.6681,0.6511 -7.792,3.7377 -10.3121,-1.7573 -1.6325,-1.6178 -3.7255,-0.9244 -5.7224,-0.7131 -1.7985,0.3744 -3.4603,0.4036 -4.4959,-1.1439 -6.7396,-4.6729 -6.9681,0.3019 -9.8093,1.4053 -3.7467,-0.068 -7.0944,-2.5357 -11.8529,3.4864 -3.2225,-1.3062 -5.6308,-1.6812 -11.8529,-0.6008 l -2.0437,-5.2761 -7.1031,5.3727 c -5.8614,2.9854 -10.715,1.6511 -14.0139,-0.3083 -3.2988,-1.959 -5.3891,-1.8017 -8.5602,1.9655 -4.474,3.378 -4.0977,0.3236 -6.5219,-1.4586 -2.4243,-1.7821 -5.5266,-3.0553 -9.3753,0.7213 -5.9065,4.8659 -9.4162,-0.699 -13.9535,-1.6931 -3.6681,0.6511 -7.792,3.7377 -10.3122,-1.7573 -1.6324,-1.6178 -3.7254,-0.9244 -5.7223,-0.7131 -1.7987,0.3744 -3.4604,0.4036 -4.4959,-1.1439 -6.7396,-4.6729 -6.9681,0.3019 -9.8093,1.4053 -3.7468,-0.068 -7.0944,-2.5357 -11.853,3.4864 -3.2225,-1.3062 -5.6307,-1.6812 -11.8529,-0.6008 l -2.0436,-5.2761 -7.1031,5.3727 c -5.8615,2.9854 -10.7151,1.6511 -14.014,-0.3083 -3.2987,-1.959 -5.3891,-1.8017 -8.56,1.9655 -4.4742,3.378 -4.0979,0.3236 -6.522,-1.4586 -2.4244,-1.7821 -5.5266,-3.0553 -9.3753,0.7213 -5.9066,4.8659 -9.4162,-0.699 -13.9535,-1.6931 -3.6681,0.6511 -7.792,3.7377 -10.3123,-1.7573 -1.6324,-1.6178 -3.7254,-0.9244 -5.7222,-0.7131 -1.7988,0.3744 -3.4604,0.4036 -4.496,-1.1439 -6.7395,-4.6729 -6.968,0.3019 -9.8093,1.4053 -3.7467,-0.068 -7.0944,-2.5357 -11.8529,3.4864 -3.2226,-1.3062 -5.6308,-1.6812 -11.8529,-0.6008 l -2.0436,-5.2761 -7.1031,5.3727 c -5.8615,2.9854 -10.7151,1.6511 -14.014,-0.3083 -3.2988,-1.959 -5.3891,-1.8017 -8.5601,1.9655 -4.4741,3.378 -4.0978,0.3236 -6.5221,-1.4586 -2.4242,-1.7821 -5.5265,-3.0553 -9.3753,0.7213 -3.8755,-1.2269 -8.2249,-4.2722 -11.9642,0.2754 1.7521,-1.0974 -1.3345,-5.2213 4.1607,-7.7415 1.6176,-1.6323 0.9243,-3.7254 0.7129,-5.7222 -0.3743,-1.7987 -0.4035,-3.4604 1.144,-4.496 4.6728,-6.7395 -0.3019,-6.968 -1.4054,-9.8092 0.068,-3.7467 2.5358,-7.0944 -3.4864,-11.8528 1.3064,-3.2227 1.6814,-5.6308 0.6008,-11.8531 l 5.2763,-2.0435 -5.3729,-7.103 c -2.9854,-5.8615 -1.6509,-10.7151 0.3083,-14.0139 1.959,-3.2989 1.8018,-5.3891 -1.9654,-8.5602 -3.3781,-4.4741 -0.3235,-4.0978 1.4586,-6.5219 1.7822,-2.4244 3.0553,-5.5267 -0.7214,-9.3752 -4.8658,-5.9065 0.6992,-9.4163 1.6932,-13.9536 -0.6512,-3.668 -3.7378,-7.7919 1.7574,-10.3122 1.6176,-1.6324 0.9243,-3.7253 0.7129,-5.7221 -0.3743,-1.7989 -0.4035,-3.4604 1.144,-4.496 4.6728,-6.7396 -0.3019,-6.9681 -1.4054,-9.8092 0.068,-3.7468 2.5358,-7.0945 -3.4864,-11.8531 1.3064,-3.2224 1.6814,-5.6306 0.6008,-11.8527 l 5.2763,-2.0436 -5.3729,-7.1032 c -2.9854,-5.8614 -1.6509,-10.715 0.3083,-14.0139 1.959,-3.2987 1.8018,-5.3891 -1.9654,-8.5599 -3.3781,-4.4743 -0.3235,-4.0978 1.4586,-6.5221 1.7822,-2.4242 3.0553,-5.5266 -0.7214,-9.3752 -4.8658,-5.9065 0.6992,-9.4161 1.6932,-13.9535 -0.6512,-3.668 -3.7378,-7.7919 1.7574,-10.3122 1.6176,-1.6323 0.9243,-3.7254 0.7129,-5.7221 -0.3743,-1.7988 -0.4035,-3.4606 1.144,-4.496 4.6728,-6.7396 -0.3019,-6.9681 -1.4054,-9.8094 0.068,-3.7466 2.5358,-7.0944 -3.4864,-11.8528 1.3064,-3.2225 1.6814,-5.6307 0.6008,-11.8529 l 5.2763,-2.0436 -5.3729,-7.103 c -2.9854,-5.8616 -1.6509,-10.7151 0.3083,-14.014 1.959,-3.2989 1.8018,-5.389 -1.9654,-8.5601 -3.3781,-4.4741 -0.3235,-4.0979 1.4586,-6.5219 1.7822,-2.4243 3.0553,-5.5265 -0.7214,-9.3753 -4.8658,-5.9065 0.6992,-9.4162 1.6932,-13.9535 -0.6512,-3.668 -3.7378,-7.7919 1.7574,-10.3122 1.6176,-1.6324 0.9243,-3.7253 0.7129,-5.7222 -0.3743,-1.7986 -0.4035,-3.4603 1.144,-4.4959 4.6728,-6.7396 -0.3019,-6.9681 -1.4054,-9.8093 0.068,-3.7467 2.5358,-7.0944 -3.4864,-11.8529 1.3064,-3.2225 1.6814,-5.6307 0.6008,-11.8528 l 5.2763,-2.0436 -5.3729,-7.1032 c -2.9854,-5.8613 -1.6509,-10.715 0.3083,-14.0139 1.959,-3.2988 1.8018,-5.3891 -1.9654,-8.5599 -3.3781,-4.4741 -0.3235,-4.0979 1.4586,-6.5222 1.7822,-2.4241 3.0553,-5.5265 -0.7214,-9.3752 -4.8658,-5.9064 0.6992,-9.416 1.6932,-13.9535 -0.6512,-3.668 -3.7378,-7.7919 1.7574,-10.3121 1.6176,-1.6324 0.9243,-3.7254 0.7129,-5.7222 -0.3743,-1.7987 -0.4035,-3.4604 1.144,-4.496 4.6728,-6.7395 -0.3019,-6.9681 -1.4054,-9.8092 0.068,-3.7467 2.5358,-7.0945 -3.4864,-11.8529 1.3064,-3.2225 1.6814,-5.6308 0.6008,-11.853 l 5.2763,-2.0436 -5.3729,-7.103 c -2.9854,-5.8614 -1.6509,-10.7149 0.3083,-14.0139 1.959,-3.2989 1.8018,-5.389 -1.9654,-8.5602 -3.3781,-4.474 -0.3235,-4.0977 1.4586,-6.5218 1.7822,-2.4241 3.0553,-5.5265 -0.7214,-9.3753 -4.8658,-5.9065 0.6992,-9.4162 -0.2018,-11.1463 2.0399,4.2153 5.5495,9.7802 11.4559,4.9144 3.8488,-3.7767 6.9511,-2.5034 9.3753,-0.7214 2.4243,1.7822 2.048,4.8366 6.5221,1.4587 3.171,-3.7672 5.2613,-3.9247 8.5601,-1.9656 3.2989,1.9594 8.1525,3.2937 14.014,0.3083 l 7.1031,-5.3727 2.0436,5.2762 c 6.2221,-1.0805 8.6303,-0.7055 11.8529,0.6007 4.7585,-6.0221 8.1062,-3.554 11.8529,-3.4863 2.8413,-1.1034 3.0698,-6.0783 9.8093,-1.4055 1.0356,1.5476 2.6972,1.5184 4.496,1.1441 1.9968,-0.2113 4.0898,-0.9047 5.7222,0.7131 2.5203,5.4948 6.6442,2.4083 10.3123,1.7573 4.5373,0.994 8.0469,6.5589 13.9535,1.6931 3.8487,-3.7767 6.9509,-2.5034 9.3753,-0.7214 2.4241,1.7822 2.0478,4.8366 6.522,1.4587 3.1709,-3.7672 5.2613,-3.9247 8.56,-1.9656 3.2989,1.9594 8.1525,3.2937 14.014,0.3083 l 7.1031,-5.3727 2.0436,5.2762 c 6.2222,-1.0805 8.6304,-0.7055 11.8529,0.6007 4.7586,-6.0221 8.1062,-3.554 11.853,-3.4863 2.8412,-1.1034 3.0697,-6.0783 9.8093,-1.4055 1.0355,1.5476 2.6972,1.5184 4.4959,1.1441 1.9969,-0.2113 4.0899,-0.9047 5.7223,0.7131 2.5202,5.4948 6.6441,2.4083 10.3122,1.7573 4.5373,0.994 8.047,6.5589 13.9535,1.6931 3.8487,-3.7767 6.951,-2.5034 9.3753,-0.7214 2.4242,1.7822 2.0479,4.8366 6.5219,1.4587 3.1711,-3.7672 5.2614,-3.9247 8.5602,-1.9656 3.2989,1.9594 8.1525,3.2937 14.0139,0.3083 l 7.1031,-5.3727 2.0437,5.2762 c 6.2221,-1.0805 8.6304,-0.7055 11.8529,0.6007 4.7585,-6.0221 8.1062,-3.554 11.8529,-3.4863 2.8412,-1.1034 3.0697,-6.0783 9.8093,-1.4055 1.0356,1.5476 2.6974,1.5184 4.4959,1.1441 1.9969,-0.2113 4.0899,-0.9047 5.7224,0.7131 2.5201,5.4948 6.644,2.4083 10.3121,1.7573 4.5374,0.994 8.0471,6.5589 13.9535,1.6931 3.8488,-3.7767 6.9512,-2.5034 9.3753,-0.7214 2.4241,1.7822 2.0479,4.8366 6.522,1.4587 3.171,-3.7672 5.2613,-3.9247 8.5601,-1.9656 3.299,1.9594 8.1526,3.2937 14.014,0.3083 l 7.1031,-5.3727 2.0437,5.2762 c 6.222,-1.0805 8.6304,-0.7055 11.8528,0.6007 4.7585,-6.0221 8.1062,-3.554 11.8529,-3.4863 2.8413,-1.1034 3.0698,-6.0783 9.8095,-1.4055 1.0355,1.5476 2.6972,1.5184 4.4957,1.1441 1.997,-0.2113 4.0899,-0.9047 5.7224,0.7131 2.5203,5.4948 6.6441,2.4083 10.3122,1.7573 4.5374,0.994 8.047,6.5589 13.9534,1.6931 3.8488,-3.7767 6.9512,-2.5034 9.3754,-0.7214 2.4241,1.7822 2.0478,4.8366 6.522,1.4587 3.171,-3.7672 5.2612,-3.9247 8.5601,-1.9656 3.2989,1.9594 8.1525,3.2937 14.0139,0.3083 l 7.1032,-5.3727 2.0436,5.2762 c 6.2222,-1.0805 8.6304,-0.7055 11.8528,0.6007 4.7585,-6.0221 8.1062,-3.554 11.853,-3.4863 2.8412,-1.1034 3.0697,-6.0783 9.8094,-1.4055 1.0355,1.5476 2.6972,1.5184 4.4959,1.1441 1.9969,-0.2113 4.0899,-0.9047 5.7221,0.7131 2.5204,5.4948 6.6442,2.4083 7.4319,-0.9558 -1.4253,1.8957 4.2378,8.0473 -4.9879,10.6381 z"
       inkscape:connector-curvature="0"
       sodipodi:nodetypes="ccccccccccccccccccccccccccccccccccccccccccccccccccccccccccccccccccccccccccccccccccccccccccccccccccccccccccccccccccccccccccccccccccccccccccccccccccccccccccccccccccccccccccccccccccccccccccccccccccccccccccccccccccccccccccccccccccccccccccccccccccccccccccccccccccccc" />
    <rect
       style="color:#000000;clip-rule:nonzero;display:inline;overflow:visible;visibility:visible;opacity:1;isolation:auto;mix-blend-mode:normal;color-interpolation:sRGB;color-interpolation-filters:linearRGB;solid-color:#000000;solid-opacity:1;fill:#000000;fill-opacity:1;fill-rule:nonzero;stroke:none;stroke-width:1;stroke-linecap:butt;stroke-linejoin:miter;stroke-miterlimit:4;stroke-dasharray:none;stroke-dashoffset:0;stroke-opacity:1;color-rendering:auto;image-rendering:auto;shape-rendering:auto;text-rendering:auto;enable-background:accumulate"
       id="rect12437"
       width="500"
       height="500"
       x="-1097.0616"
       y="1613.8945" />
    <g
       id="g12716"
       transform="translate(114.0625,239.0625)">
      <g
         id="g12583"
         transform="matrix(-1.1889046,1.1889046,1.1889046,1.1889046,-7379.7814,-953.8251)">
        <path
           style="fill:#242424;fill-opacity:1;fill-rule:evenodd;stroke:none;stroke-width:1px;stroke-linecap:butt;stroke-linejoin:miter;stroke-opacity:1"
           d="m -1882.1209,3298.3967 6.225,-6.0214 c 4.7219,-4.4014 9.2705,-4.3305 14.0179,-0.8677 l 24.5389,24.3467 2.1456,1.9672 c 2.2609,2.3019 0.9993,7.9183 -4.6085,8.2383 0,0 -11.2073,0.9915 -13.9648,-0.5103 -4.5724,-2.0413 -8.7067,-6.9502 -12.0691,-10.7944 -1.8525,-1.7949 -3.8391,-1.2129 -5.4047,-0.09 -13.4991,9.8548 -13.9785,10.9138 -15.6839,11.4879 -1.7054,0.574 -16.5868,0.5442 -16.5868,0.5442 -2.2934,0.01 -3.123,-4.0091 -1.0876,-5.9505 z"
           id="path12585"
           inkscape:connector-curvature="0"
           sodipodi:nodetypes="ccccccccczccc" />
        <path
           id="path12587"
           transform="translate(-126.74913,796.26718)"
           d="m -1742.0586,2494.4941 c -3.238,0 -33.9979,31.2795 -32.3789,32.9258 0.4604,0.4682 5.8401,0.7981 13.2344,1 8.0615,-8.3333 17.4603,-17.1113 19.1445,-17.1113 1.6843,0 11.0829,8.7779 19.1445,17.1113 7.3939,-0.2019 12.774,-0.5318 13.2344,-1 1.619,-1.6463 -29.141,-32.9258 -32.3789,-32.9258 z"
           style="color:#000000;clip-rule:nonzero;display:inline;overflow:visible;visibility:visible;opacity:1;isolation:auto;mix-blend-mode:normal;color-interpolation:sRGB;color-interpolation-filters:linearRGB;solid-color:#000000;solid-opacity:1;fill:#1d1d1d;fill-opacity:1;fill-rule:nonzero;stroke:none;stroke-width:1;stroke-linecap:butt;stroke-linejoin:miter;stroke-miterlimit:4;stroke-dasharray:none;stroke-dashoffset:0;stroke-opacity:1;color-rendering:auto;image-rendering:auto;shape-rendering:auto;text-rendering:auto;enable-background:accumulate"
           inkscape:connector-curvature="0" />
      </g>
      <g
         transform="matrix(-1.1889046,-1.1889046,1.1889046,-1.1889046,-7379.7814,2997.7386)"
         id="g12570">
        <path
           sodipodi:nodetypes="ccccccccczccc"
           inkscape:connector-curvature="0"
           id="path12496"
           d="m -1882.1209,3298.3967 6.225,-6.0214 c 4.7219,-4.4014 9.2705,-4.3305 14.0179,-0.8677 l 24.5389,24.3467 2.1456,1.9672 c 2.2609,2.3019 0.9993,7.9183 -4.6085,8.2383 0,0 -11.2073,0.9915 -13.9648,-0.5103 -4.5724,-2.0413 -8.7067,-6.9502 -12.0691,-10.7944 -1.8525,-1.7949 -3.8391,-1.2129 -5.4047,-0.09 -13.4991,9.8548 -13.9785,10.9138 -15.6839,11.4879 -1.7054,0.574 -16.5868,0.5442 -16.5868,0.5442 -2.2934,0.01 -3.123,-4.0091 -1.0876,-5.9505 z"
           style="fill:#242424;fill-opacity:1;fill-rule:evenodd;stroke:none;stroke-width:1px;stroke-linecap:butt;stroke-linejoin:miter;stroke-opacity:1" />
        <path
           inkscape:connector-curvature="0"
           style="color:#000000;clip-rule:nonzero;display:inline;overflow:visible;visibility:visible;opacity:1;isolation:auto;mix-blend-mode:normal;color-interpolation:sRGB;color-interpolation-filters:linearRGB;solid-color:#000000;solid-opacity:1;fill:#1d1d1d;fill-opacity:1;fill-rule:nonzero;stroke:none;stroke-width:1;stroke-linecap:butt;stroke-linejoin:miter;stroke-miterlimit:4;stroke-dasharray:none;stroke-dashoffset:0;stroke-opacity:1;color-rendering:auto;image-rendering:auto;shape-rendering:auto;text-rendering:auto;enable-background:accumulate"
           d="m -1742.0586,2494.4941 c -3.238,0 -33.9979,31.2795 -32.3789,32.9258 0.4604,0.4682 5.8401,0.7981 13.2344,1 8.0615,-8.3333 17.4603,-17.1113 19.1445,-17.1113 1.6843,0 11.0829,8.7779 19.1445,17.1113 7.3939,-0.2019 12.774,-0.5318 13.2344,-1 1.619,-1.6463 -29.141,-32.9258 -32.3789,-32.9258 z"
           transform="translate(-126.74913,796.26718)"
           id="path12544" />
        <path
           style="color:#000000;clip-rule:nonzero;display:inline;overflow:visible;visibility:visible;opacity:1;isolation:auto;mix-blend-mode:normal;color-interpolation:sRGB;color-interpolation-filters:linearRGB;solid-color:#000000;solid-opacity:1;fill:#242424;fill-opacity:1;fill-rule:nonzero;stroke:none;stroke-width:1;stroke-linecap:butt;stroke-linejoin:miter;stroke-miterlimit:4;stroke-dasharray:none;stroke-dashoffset:0;stroke-opacity:1;color-rendering:auto;image-rendering:auto;shape-rendering:auto;text-rendering:auto;enable-background:accumulate"
           d="m -1868.9425,3292.9762 c -10.8207,8.5486 -20.4279,18.6597 -29.2714,29.2187 4.5635,0.086 9.8797,1.9463 12.6231,-2.7559 5.4344,-4.656 9.9816,-11.2715 16.7831,-13.8827 6.744,2.5892 11.2619,9.133 16.6505,13.75 2.7211,4.8212 8.2747,3.0573 12.7206,2.8398 -8.8957,-10.4331 -18.5718,-21.1108 -29.5059,-29.1699 z"
           id="path12554"
           inkscape:connector-curvature="0" />
      </g>
      <g
         id="g12575"
         transform="matrix(1.1889046,-1.1889046,-1.1889046,-1.1889046,5463.8022,2997.7386)">
        <path
           style="fill:#242424;fill-opacity:1;fill-rule:evenodd;stroke:none;stroke-width:1px;stroke-linecap:butt;stroke-linejoin:miter;stroke-opacity:1"
           d="m -1882.1209,3298.3967 6.225,-6.0214 c 4.7219,-4.4014 9.2705,-4.3305 14.0179,-0.8677 l 24.5389,24.3467 2.1456,1.9672 c 2.2609,2.3019 0.9993,7.9183 -4.6085,8.2383 0,0 -11.2073,0.9915 -13.9648,-0.5103 -4.5724,-2.0413 -8.7067,-6.9502 -12.0691,-10.7944 -1.8525,-1.7949 -3.8391,-1.2129 -5.4047,-0.09 -13.4991,9.8548 -13.9785,10.9138 -15.6839,11.4879 -1.7054,0.574 -16.5868,0.5442 -16.5868,0.5442 -2.2934,0.01 -3.123,-4.0091 -1.0876,-5.9505 z"
           id="path12577"
           inkscape:connector-curvature="0"
           sodipodi:nodetypes="ccccccccczccc" />
        <path
           id="path12579"
           transform="translate(-126.74913,796.26718)"
           d="m -1742.0586,2494.4941 c -3.238,0 -33.9979,31.2795 -32.3789,32.9258 0.4604,0.4682 5.8401,0.7981 13.2344,1 8.0615,-8.3333 17.4603,-17.1113 19.1445,-17.1113 1.6843,0 11.0829,8.7779 19.1445,17.1113 7.3939,-0.2019 12.774,-0.5318 13.2344,-1 1.619,-1.6463 -29.141,-32.9258 -32.3789,-32.9258 z"
           style="color:#000000;clip-rule:nonzero;display:inline;overflow:visible;visibility:visible;opacity:1;isolation:auto;mix-blend-mode:normal;color-interpolation:sRGB;color-interpolation-filters:linearRGB;solid-color:#000000;solid-opacity:1;fill:#1d1d1d;fill-opacity:1;fill-rule:nonzero;stroke:none;stroke-width:1;stroke-linecap:butt;stroke-linejoin:miter;stroke-miterlimit:4;stroke-dasharray:none;stroke-dashoffset:0;stroke-opacity:1;color-rendering:auto;image-rendering:auto;shape-rendering:auto;text-rendering:auto;enable-background:accumulate"
           inkscape:connector-curvature="0" />
        <path
           inkscape:connector-curvature="0"
           id="path12581"
           d="m -1868.9425,3292.9762 c -10.8207,8.5486 -20.4279,18.6597 -29.2714,29.2187 4.5635,0.086 9.8797,1.9463 12.6231,-2.7559 5.4344,-4.656 9.9816,-11.2715 16.7831,-13.8827 6.744,2.5892 11.2619,9.133 16.6505,13.75 2.7211,4.8212 8.2747,3.0573 12.7206,2.8398 -8.8957,-10.4331 -18.5718,-21.1108 -29.5059,-29.1699 z"
           style="color:#000000;clip-rule:nonzero;display:inline;overflow:visible;visibility:visible;opacity:1;isolation:auto;mix-blend-mode:normal;color-interpolation:sRGB;color-interpolation-filters:linearRGB;solid-color:#000000;solid-opacity:1;fill:#242424;fill-opacity:1;fill-rule:nonzero;stroke:none;stroke-width:1;stroke-linecap:butt;stroke-linejoin:miter;stroke-miterlimit:4;stroke-dasharray:none;stroke-dashoffset:0;stroke-opacity:1;color-rendering:auto;image-rendering:auto;shape-rendering:auto;text-rendering:auto;enable-background:accumulate" />
      </g>
      <g
         transform="matrix(1.1889046,1.1889046,-1.1889046,1.1889046,5463.8022,-953.8251)"
         id="g12591">
        <path
           sodipodi:nodetypes="ccccccccczccc"
           inkscape:connector-curvature="0"
           id="path12593"
           d="m -1882.1209,3298.3967 6.225,-6.0214 c 4.7219,-4.4014 9.2705,-4.3305 14.0179,-0.8677 l 24.5389,24.3467 2.1456,1.9672 c 2.2609,2.3019 0.9993,7.9183 -4.6085,8.2383 0,0 -11.2073,0.9915 -13.9648,-0.5103 -4.5724,-2.0413 -8.7067,-6.9502 -12.0691,-10.7944 -1.8525,-1.7949 -3.8391,-1.2129 -5.4047,-0.09 -13.4991,9.8548 -13.9785,10.9138 -15.6839,11.4879 -1.7054,0.574 -16.5868,0.5442 -16.5868,0.5442 -2.2934,0.01 -3.123,-4.0091 -1.0876,-5.9505 z"
           style="fill:#242424;fill-opacity:1;fill-rule:evenodd;stroke:none;stroke-width:1px;stroke-linecap:butt;stroke-linejoin:miter;stroke-opacity:1" />
        <path
           inkscape:connector-curvature="0"
           style="color:#000000;clip-rule:nonzero;display:inline;overflow:visible;visibility:visible;opacity:1;isolation:auto;mix-blend-mode:normal;color-interpolation:sRGB;color-interpolation-filters:linearRGB;solid-color:#000000;solid-opacity:1;fill:#1d1d1d;fill-opacity:1;fill-rule:nonzero;stroke:none;stroke-width:1;stroke-linecap:butt;stroke-linejoin:miter;stroke-miterlimit:4;stroke-dasharray:none;stroke-dashoffset:0;stroke-opacity:1;color-rendering:auto;image-rendering:auto;shape-rendering:auto;text-rendering:auto;enable-background:accumulate"
           d="m -1742.0586,2494.4941 c -3.238,0 -33.9979,31.2795 -32.3789,32.9258 0.4604,0.4682 5.8401,0.7981 13.2344,1 8.0615,-8.3333 17.4603,-17.1113 19.1445,-17.1113 1.6843,0 11.0829,8.7779 19.1445,17.1113 7.3939,-0.2019 12.774,-0.5318 13.2344,-1 1.619,-1.6463 -29.141,-32.9258 -32.3789,-32.9258 z"
           transform="translate(-126.74913,796.26718)"
           id="path12595" />
        <path
           style="color:#000000;clip-rule:nonzero;display:inline;overflow:visible;visibility:visible;opacity:1;isolation:auto;mix-blend-mode:normal;color-interpolation:sRGB;color-interpolation-filters:linearRGB;solid-color:#000000;solid-opacity:1;fill:#242424;fill-opacity:1;fill-rule:nonzero;stroke:none;stroke-width:1;stroke-linecap:butt;stroke-linejoin:miter;stroke-miterlimit:4;stroke-dasharray:none;stroke-dashoffset:0;stroke-opacity:1;color-rendering:auto;image-rendering:auto;shape-rendering:auto;text-rendering:auto;enable-background:accumulate"
           d="m -1868.9425,3292.9762 c -10.8207,8.5486 -20.4279,18.6597 -29.2714,29.2187 4.5635,0.086 9.8797,1.9463 12.6231,-2.7559 5.4344,-4.656 9.9816,-11.2715 16.7831,-13.8827 6.744,2.5892 11.2619,9.133 16.6505,13.75 2.7211,4.8212 8.2747,3.0573 12.7206,2.8398 -8.8957,-10.4331 -18.5718,-21.1108 -29.5059,-29.1699 z"
           id="path12597"
           inkscape:connector-curvature="0" />
      </g>
    </g>
  </g>
</svg>
