<?xml version="1.0" encoding="UTF-8" standalone="no"?>
<!-- Created with Inkscape (http://www.inkscape.org/) -->

<svg
   xmlns:dc="http://purl.org/dc/elements/1.1/"
   xmlns:cc="http://creativecommons.org/ns#"
   xmlns:rdf="http://www.w3.org/1999/02/22-rdf-syntax-ns#"
   xmlns:svg="http://www.w3.org/2000/svg"
   xmlns="http://www.w3.org/2000/svg"
   xmlns:xlink="http://www.w3.org/1999/xlink"
   xmlns:sodipodi="http://sodipodi.sourceforge.net/DTD/sodipodi-0.dtd"
   xmlns:inkscape="http://www.inkscape.org/namespaces/inkscape"
   id="svg2"
   version="1.1"
   inkscape:version="0.91 r13725"
   width="4000"
   height="6000"
   viewBox="0 0 4000 6000"
   sodipodi:docname="technology-skyscraper-new-york-antenna-vehicle-tower-mast-spire-steeple-one-world-trade-center-control-tower-electronics-accessory-342810-2.svg">
  <metadata
     id="metadata8">
    <rdf:RDF>
      <cc:Work
         rdf:about="">
        <dc:format>image/svg+xml</dc:format>
        <dc:type
           rdf:resource="http://purl.org/dc/dcmitype/StillImage" />
        <dc:title></dc:title>
      </cc:Work>
    </rdf:RDF>
  </metadata>
  <defs
     id="defs6" />
  <sodipodi:namedview
     pagecolor="#ffffff"
     bordercolor="#666666"
     borderopacity="1"
     objecttolerance="10"
     gridtolerance="10"
     guidetolerance="10"
     inkscape:pageopacity="0"
     inkscape:pageshadow="2"
     inkscape:window-width="1440"
     inkscape:window-height="851"
     id="namedview4"
     showgrid="false"
     showguides="true"
     inkscape:guide-bbox="true"
     inkscape:snap-bbox="true"
     inkscape:object-paths="true"
     inkscape:snap-intersection-paths="true"
     inkscape:object-nodes="true"
     inkscape:snap-smooth-nodes="true"
     inkscape:snap-global="true"
     inkscape:zoom="0.055625733"
     inkscape:cx="-3162.7404"
     inkscape:cy="4572.0605"
     inkscape:window-x="0"
     inkscape:window-y="25"
     inkscape:window-maximized="1"
     inkscape:current-layer="layer5">
    <sodipodi:guide
       position="1686.4946,5206.8134"
       orientation="0,1"
       id="guide4457" />
    <sodipodi:guide
       position="1696.9346,3226.8273"
       orientation="0,1"
       id="guide4459" />
    <sodipodi:guide
       position="1719.7807,4214.8321"
       orientation="0,1"
       id="guide4461" />
    <sodipodi:guide
       position="1716.1017,5722.7225"
       orientation="1,0"
       id="guide4465" />
  </sodipodi:namedview>
  <g
     inkscape:groupmode="layer"
     id="layer1"
     inkscape:label="pic"
     style="display:none">
    <image
       sodipodi:absref="/home/louie/Documents/prog/graphics/mine/wtc/imageold/technology-skyscraper-new-york-antenna-vehicle-tower-mast-spire-steeple-one-world-trade-center-control-tower-electronics-accessory-342810.jpg"
       xlink:href="imageold/technology-skyscraper-new-york-antenna-vehicle-tower-mast-spire-steeple-one-world-trade-center-control-tower-electronics-accessory-342810.jpg"
       transform="matrix(0.99999925,-0.00122173,0.00122173,0.99999925,0,0)"
       inkscape:transform-center-y="2677.9561"
       inkscape:transform-center-x="-287.18539"
       y="2.0963547"
       x="-0.39430523"
       id="image10"
       preserveAspectRatio="none"
       height="6000"
       width="4000" />
  </g>
  <g
     inkscape:groupmode="layer"
     id="layer2"
     inkscape:label="heights"
     style="display:none">
    <g
       id="g4410"
       style="opacity:0.4"
       transform="matrix(1,0,0,0.95855165,594.6945,654.48111)">
      <g
         transform="translate(12.71186,1512.7119)"
         id="g4180">
        <g
           id="g4158">
          <g
             id="g4154">
            <rect
               style="opacity:1;fill:#ff0000;fill-opacity:1;stroke:none;stroke-width:2;stroke-miterlimit:4;stroke-dasharray:none;stroke-opacity:1"
               id="rect4142"
               width="203.38983"
               height="257.54999"
               x="1639.036"
               y="3277.8379" />
            <rect
               y="3020.2878"
               x="1666.0487"
               height="257.54999"
               width="203.38983"
               id="rect4144"
               style="opacity:1;fill:#ff0000;fill-opacity:1;stroke:none;stroke-width:2;stroke-miterlimit:4;stroke-dasharray:none;stroke-opacity:1" />
          </g>
          <g
             transform="translate(0,15.230042)"
             id="g4150">
            <rect
               y="2747.5078"
               x="1634.5416"
               height="257.54999"
               width="203.38983"
               id="rect4146"
               style="opacity:1;fill:#ff0000;fill-opacity:1;stroke:none;stroke-width:2;stroke-miterlimit:4;stroke-dasharray:none;stroke-opacity:1" />
            <rect
               style="opacity:1;fill:#ff0000;fill-opacity:1;stroke:none;stroke-width:2;stroke-miterlimit:4;stroke-dasharray:none;stroke-opacity:1"
               id="rect4148"
               width="203.38983"
               height="257.54999"
               x="1661.5543"
               y="2489.9578" />
          </g>
        </g>
        <g
           id="g4166"
           transform="translate(0,-1030.2001)">
          <g
             id="g4168">
            <rect
               y="3277.8379"
               x="1639.036"
               height="257.54999"
               width="203.38983"
               id="rect4170"
               style="opacity:1;fill:#ff0000;fill-opacity:1;stroke:none;stroke-width:2;stroke-miterlimit:4;stroke-dasharray:none;stroke-opacity:1" />
            <rect
               style="opacity:1;fill:#ff0000;fill-opacity:1;stroke:none;stroke-width:2;stroke-miterlimit:4;stroke-dasharray:none;stroke-opacity:1"
               id="rect4172"
               width="203.38983"
               height="257.54999"
               x="1666.0487"
               y="3020.2878" />
          </g>
          <g
             id="g4174"
             transform="translate(0,15.230042)">
            <rect
               style="opacity:1;fill:#ff0000;fill-opacity:1;stroke:none;stroke-width:2;stroke-miterlimit:4;stroke-dasharray:none;stroke-opacity:1"
               id="rect4176"
               width="203.38983"
               height="257.54999"
               x="1634.5416"
               y="2747.5078" />
            <rect
               y="2489.9578"
               x="1661.5543"
               height="257.54999"
               width="203.38983"
               id="rect4178"
               style="opacity:1;fill:#ff0000;fill-opacity:1;stroke:none;stroke-width:2;stroke-miterlimit:4;stroke-dasharray:none;stroke-opacity:1" />
          </g>
        </g>
      </g>
      <g
         id="g4288"
         transform="translate(25.423724,-2608.0885)">
        <g
           id="g4290">
          <g
             id="g4292">
            <rect
               y="3277.8379"
               x="1639.036"
               height="257.54999"
               width="203.38983"
               id="rect4294"
               style="opacity:1;fill:#ff0000;fill-opacity:1;stroke:none;stroke-width:2;stroke-miterlimit:4;stroke-dasharray:none;stroke-opacity:1" />
            <rect
               style="opacity:1;fill:#ff0000;fill-opacity:1;stroke:none;stroke-width:2;stroke-miterlimit:4;stroke-dasharray:none;stroke-opacity:1"
               id="rect4296"
               width="203.38983"
               height="257.54999"
               x="1666.0487"
               y="3020.2878" />
          </g>
          <g
             id="g4298"
             transform="translate(0,15.230042)">
            <rect
               style="opacity:1;fill:#ff0000;fill-opacity:1;stroke:none;stroke-width:2;stroke-miterlimit:4;stroke-dasharray:none;stroke-opacity:1"
               id="rect4300"
               width="203.38983"
               height="257.54999"
               x="1634.5416"
               y="2747.5078" />
            <rect
               y="2489.9578"
               x="1661.5543"
               height="257.54999"
               width="203.38983"
               id="rect4302"
               style="opacity:1;fill:#ff0000;fill-opacity:1;stroke:none;stroke-width:2;stroke-miterlimit:4;stroke-dasharray:none;stroke-opacity:1" />
          </g>
        </g>
        <g
           transform="translate(0,-1030.2001)"
           id="g4304">
          <g
             id="g4306">
            <rect
               style="opacity:1;fill:#ff0000;fill-opacity:1;stroke:none;stroke-width:2;stroke-miterlimit:4;stroke-dasharray:none;stroke-opacity:1"
               id="rect4308"
               width="203.38983"
               height="257.54999"
               x="1639.036"
               y="3277.8379" />
            <rect
               y="3020.2878"
               x="1666.0487"
               height="257.54999"
               width="203.38983"
               id="rect4310"
               style="opacity:1;fill:#ff0000;fill-opacity:1;stroke:none;stroke-width:2;stroke-miterlimit:4;stroke-dasharray:none;stroke-opacity:1" />
          </g>
          <g
             transform="translate(0,15.230042)"
             id="g4312">
            <rect
               y="2747.5078"
               x="1634.5416"
               height="257.54999"
               width="203.38983"
               id="rect4314"
               style="opacity:1;fill:#ff0000;fill-opacity:1;stroke:none;stroke-width:2;stroke-miterlimit:4;stroke-dasharray:none;stroke-opacity:1" />
            <rect
               style="opacity:1;fill:#ff0000;fill-opacity:1;stroke:none;stroke-width:2;stroke-miterlimit:4;stroke-dasharray:none;stroke-opacity:1"
               id="rect4316"
               width="203.38983"
               height="257.54999"
               x="1661.5543"
               y="2489.9578" />
          </g>
        </g>
      </g>
      <g
         transform="translate(-0.771108,-547.6883)"
         id="g4196">
        <g
           id="g4198">
          <g
             id="g4200">
            <rect
               y="3277.8379"
               x="1639.036"
               height="257.54999"
               width="203.38983"
               id="rect4202"
               style="opacity:1;fill:#ff0000;fill-opacity:1;stroke:none;stroke-width:2;stroke-miterlimit:4;stroke-dasharray:none;stroke-opacity:1" />
            <rect
               style="opacity:1;fill:#ff0000;fill-opacity:1;stroke:none;stroke-width:2;stroke-miterlimit:4;stroke-dasharray:none;stroke-opacity:1"
               id="rect4204"
               width="203.38983"
               height="257.54999"
               x="1666.0487"
               y="3020.2878" />
          </g>
          <g
             id="g4206"
             transform="translate(0,15.230042)">
            <rect
               style="opacity:1;fill:#ff0000;fill-opacity:1;stroke:none;stroke-width:2;stroke-miterlimit:4;stroke-dasharray:none;stroke-opacity:1"
               id="rect4208"
               width="203.38983"
               height="257.54999"
               x="1634.5416"
               y="2747.5078" />
            <rect
               y="2489.9578"
               x="1661.5543"
               height="257.54999"
               width="203.38983"
               id="rect4210"
               style="opacity:1;fill:#ff0000;fill-opacity:1;stroke:none;stroke-width:2;stroke-miterlimit:4;stroke-dasharray:none;stroke-opacity:1" />
          </g>
        </g>
        <g
           transform="translate(0,-1030.2001)"
           id="g4212">
          <g
             id="g4214">
            <rect
               style="opacity:1;fill:#ff0000;fill-opacity:1;stroke:none;stroke-width:2;stroke-miterlimit:4;stroke-dasharray:none;stroke-opacity:1"
               id="rect4216"
               width="203.38983"
               height="257.54999"
               x="1639.036"
               y="3277.8379" />
            <rect
               y="3020.2878"
               x="1666.0487"
               height="257.54999"
               width="203.38983"
               id="rect4218"
               style="opacity:1;fill:#ff0000;fill-opacity:1;stroke:none;stroke-width:2;stroke-miterlimit:4;stroke-dasharray:none;stroke-opacity:1" />
          </g>
          <g
             transform="translate(0,15.230042)"
             id="g4220">
            <rect
               y="2747.5078"
               x="1634.5416"
               height="257.54999"
               width="203.38983"
               id="rect4222"
               style="opacity:1;fill:#ff0000;fill-opacity:1;stroke:none;stroke-width:2;stroke-miterlimit:4;stroke-dasharray:none;stroke-opacity:1" />
            <rect
               style="opacity:1;fill:#ff0000;fill-opacity:1;stroke:none;stroke-width:2;stroke-miterlimit:4;stroke-dasharray:none;stroke-opacity:1"
               id="rect4224"
               width="203.38983"
               height="257.54999"
               x="1661.5543"
               y="2489.9578" />
          </g>
        </g>
      </g>
    </g>
  </g>
  <g
     inkscape:groupmode="layer"
     id="layer4"
     inkscape:label="building"
     style="display:none">
    <path
       style="fill:#999999;fill-rule:evenodd;stroke:none;stroke-width:1px;stroke-linecap:butt;stroke-linejoin:miter;stroke-opacity:1"
       d="m 814.07186,5487.9096 c -14.01889,5.2048 -362.80067,199.0607 -362.80067,199.0607 l -3.17797,161.2818 2553.49578,0 -15.0953,-401.2182 -293.1674,-27.0127 -41.5296,-4.7432 z"
       id="path4515"
       inkscape:connector-curvature="0" />
  </g>
  <g
     inkscape:groupmode="layer"
     id="layer3"
     inkscape:label="base"
     style="display:none">
    <g
       id="g4638">
      <ellipse
         ry="231.48102"
         rx="936.21948"
         cy="5276.5513"
         cx="1715.7036"
         id="path4507"
         style="opacity:1;fill:#0000ff;fill-opacity:1;stroke:none" />
      <ellipse
         style="opacity:1;fill:#0000ff;fill-opacity:1;stroke:none"
         id="ellipse4509"
         cx="1711.7312"
         cy="5419.0737"
         rx="940.19196"
         ry="231.48102" />
      <ellipse
         ry="231.48102"
         rx="936.21948"
         cy="5134.9624"
         cx="1715.7036"
         id="ellipse4511"
         style="opacity:1;fill:#0000ff;fill-opacity:1;stroke:none" />
      <path
         inkscape:connector-curvature="0"
         id="path4513"
         d="m 2693.3263,5420.0212 0,-52.4365 -93.75,-28.6017 -359.1102,-58.7923 271.7161,119.1737 z"
         style="fill:#008000;fill-rule:evenodd;stroke:none;stroke-width:1px;stroke-linecap:butt;stroke-linejoin:miter;stroke-opacity:1" />
    </g>
  </g>
  <g
     inkscape:groupmode="layer"
     id="layer5"
     inkscape:label="tower"
     style="display:inline">
    <g
       id="g4683">
      <path
         inkscape:connector-curvature="0"
         id="path4491"
         d="m 1716.1017,228.01905 0,92.16102"
         style="fill:none;fill-rule:evenodd;stroke:#000000;stroke-width:1px;stroke-linecap:butt;stroke-linejoin:miter;stroke-opacity:1" />
      <path
         sodipodi:nodetypes="ccccc"
         inkscape:connector-curvature="0"
         id="path4493"
         d="m 1710.3416,324.35114 -6.1573,54.6213 c 6.9044,1.70292 13.9019,2.98701 21.8485,0 l -4.9655,-54.42267 c -3.5752,-4.24564 -7.1505,-2.76196 -10.7257,-0.19863 z"
         style="fill:#ff0000;fill-rule:evenodd" />
      <path
         sodipodi:nodetypes="cccccccccccccc"
         inkscape:connector-curvature="0"
         id="path4495"
         d="m 1746.2924,549.58949 -13.3078,-126.52277 c -13.1035,-6.78472 -29.2334,-4.88828 -37.3411,-0.39725 l -1.7876,10.52701 -10.7256,115.99577 -15.4926,126.92002 -7.5477,126.32415 34.1632,-9.24982 41.3135,0 29.5755,11.18159 2.3035,-11.18159 -0.6952,-7.23588 -6.3559,-107.25635 z"
         style="fill:#008000;fill-rule:evenodd;stroke:none;stroke-width:1px;stroke-linecap:butt;stroke-linejoin:miter;stroke-opacity:1" />
      <path
         inkscape:connector-curvature="0"
         id="path4497"
         d="m 1709.1194,380.06117 -3.6185,39.2986 -6.7528,1.87016 5.4362,-42.25749 z"
         style="fill:#000080;fill-rule:evenodd;stroke:none;stroke-width:1px;stroke-linecap:butt;stroke-linejoin:miter;stroke-opacity:1" />
      <path
         inkscape:connector-curvature="0"
         id="path4499"
         d="m 1726.0328,378.97244 3.8083,42.6512 -6.3911,-1.96743 -3.3767,-39.16084 z"
         style="fill:#000080;fill-opacity:1;fill-rule:evenodd;stroke:none;stroke-width:1px;stroke-linecap:butt;stroke-linejoin:miter;stroke-opacity:1" />
      <path
         inkscape:connector-curvature="0"
         id="path4501"
         d="m 1660.09,802.43642 28.999,56.01166 48.464,-0.79449 29.1372,-52.80983 -31.1235,-11.65716 -41.3135,0 z"
         style="fill:#ff0000;fill-rule:evenodd" />
      <path
         sodipodi:nodetypes="ccccccccccc"
         inkscape:connector-curvature="0"
         id="path4503"
         d="m 1694.8491,869.9682 -2.1849,-2.38347 -1.589,0.19862 -3.3766,2.38347 -0.9931,-0.79449 -1.1917,1.78761 -0.9931,5.36282 0,350.37074 54.8199,0 0,-354.74045 c -14.1518,-3.66949 -28.7576,-5.3715 -44.4915,-2.18485 z"
         style="fill:#00ff00;fill-rule:evenodd;stroke:none;stroke-width:1px;stroke-linecap:butt;stroke-linejoin:miter;stroke-opacity:1" />
      <path
         inkscape:connector-curvature="0"
         id="path4517"
         d="m 1523.2945,3951.1506 0,0 -264.8841,926.3923 -20.7908,58.3953 20.918,-2.9823 11.1086,-61.5927 259.5514,-914.3982 1.6811,-2.1628 -7.5842,-3.6516 z"
         style="fill:#ff0000;fill-opacity:1;fill-rule:evenodd;stroke:none;stroke-width:1px;stroke-linecap:butt;stroke-linejoin:miter;stroke-opacity:1" />
      <path
         inkscape:connector-curvature="0"
         id="path4519"
         d="m 1535.373,3989.6332 0,0 0,5.3371 -0.5618,4.7752 -248.5922,874.1457 -21.2152,58.1784 15.5523,-2.0651 2.8539,-4.7094 10.1123,-55.0555 248.1885,-873.55 1.5273,-2.2811 z"
         style="fill:#ff0000;fill-rule:evenodd;stroke:none;stroke-width:1px;stroke-linecap:butt;stroke-linejoin:miter;stroke-opacity:1" />
      <path
         inkscape:connector-curvature="0"
         id="path4521"
         d="m 1628.0684,4028.1159 1.6854,7.5842 -101.2359,872.4552 5.9977,-0.2975 1.981,-17.6746 98.0208,-858.0851 z"
         style="fill:#ff0000;fill-rule:evenodd;stroke:none;stroke-width:1px;stroke-linecap:butt;stroke-linejoin:miter;stroke-opacity:1" />
      <path
         inkscape:connector-curvature="0"
         id="path4523"
         d="m 1638.3416,4032.8255 -1.5654,21.9754 0,8.7078 -98.4036,844.163 5.393,-0.2532 1.4387,-9.3703 1.9663,-16.8537 94.0999,-823.5846 6.1797,-23.8761 z"
         style="fill:#ff0000;fill-rule:evenodd;stroke:none;stroke-width:1px;stroke-linecap:butt;stroke-linejoin:miter;stroke-opacity:1" />
      <path
         inkscape:connector-curvature="0"
         id="path4544"
         d="m 1788.9773,3956.7977 3.3956,12.8792 110.4343,839.7775 1.1917,8.7395 2.7808,59.9841 1.9862,9.5339 -4.3697,5.5614 4.7613,15.2038 26.1774,1.4641 -1.9398,-6.3395 5.9587,-7.1504 -0.3972,-19.8623 -7.1504,-0.3973 0,-5.1642 3.5752,-3.9724 -17.4789,-74.6822 -5.5614,2.3835 3.5752,36.1493 -3.9724,-0.3972 -5.1642,-35.7521 -107.6536,-820.3126 -0.2749,-18.8933 z"
         style="fill:#ff0000;fill-rule:evenodd;stroke:none;stroke-width:1px;stroke-linecap:butt;stroke-linejoin:miter;stroke-opacity:1" />
      <path
         inkscape:connector-curvature="0"
         id="path4546"
         d="m 1802.1427,3955.1347 110.1984,839.6217 5.5614,-2.3835 -110.9038,-837.8516 z"
         style="fill:#ff0000;fill-rule:evenodd;stroke:none;stroke-width:1px;stroke-linecap:butt;stroke-linejoin:miter;stroke-opacity:1" />
      <path
         inkscape:connector-curvature="0"
         id="path4548"
         d="m 1862.6455,3959.771 9.5738,20.6315 15.8898,52.8337 1.1918,3.178 236.4775,890.4538 7.0473,0.8581 -5.9719,-23.3299 -230.4025,-864.4068 -1.9863,-13.1091 -7.1504,-34.5604 -1.1917,-7.5477 -2.7807,-6.3559 -1.9063,-16.8726 z"
         style="fill:#ff0000;fill-rule:evenodd;stroke:none;stroke-width:1px;stroke-linecap:butt;stroke-linejoin:miter;stroke-opacity:1" />
      <path
         inkscape:connector-curvature="0"
         id="path4550"
         d="m 1889.406,3959.3298 c -0.6147,0.1707 12.6067,40.935 12.6067,40.935 l 5.9587,21.054 2.7807,11.1229 240.1692,897.5719 6.5908,0.8639 -7.2208,-26.4813 -241.9226,-904.5286 -0.7945,-5.5615 -6.897,-35.9927 0.9831,-2.3876 z"
         style="fill:#ff0000;fill-rule:evenodd;stroke:none;stroke-width:1px;stroke-linecap:butt;stroke-linejoin:miter;stroke-opacity:1" />
      <path
         sodipodi:nodetypes="ccccccccccccccccccccscccccccccccccccccccccccccccccccccccccccccccccccccccccccccccccccccccccccccccccccccccccccccccccccccccccccccccccccccccccccccccccccccsccccsscccccccccccccccccccccccccccccccccccccccccccccccccccccccccccccccccccccccccccccccccccccccccccccccccccccccccccccccccccccccccccccccc"
         inkscape:connector-curvature="0"
         id="path4505"
         d="m 1653.3369,1248.9407 c 36.0056,-11.018 73.7902,-17.7366 122.3517,1.5889 l 2.3834,39.7246 11.1229,8.7394 -1.589,3.9725 -9.5339,0 -0.7945,13.5063 -27.0127,9.5339 -0.7945,14.3009 0.7945,393.2733 12.7119,0.7945 39.7246,13.5063 -0.7945,38.1356 0.7945,3.9725 3.9724,7.1504 -0.7945,2.3835 -3.1779,0 -0.7945,10.3284 1.589,7.9449 -42.1081,7.9449 c 0,0 3.9725,6.3559 0,6.3559 -3.9724,0 -10.3284,1.589 -10.3284,1.589 l -2.4868,1.4809 -0.2809,387.6353 6.7414,0 0.8427,-1.1236 62.6397,19.6627 -0.8427,40.168 4.4943,5.0561 0,4.7752 -2.2472,2.5281 -2.2471,12.3594 2.528,2.528 0.2809,3.3708 -2.528,2.8089 -53.3701,15.7301 0,5.618 -5.6179,0.2808 -0.5618,0.5618 4.2134,5.337 -5.8988,1.4045 -1.1236,12.0785 1.4045,364.0402 3.9325,-0.2809 5.3371,-1.1236 64.6058,19.3817 -1.4044,43.8197 3.3707,4.2134 0,6.1797 -2.8089,3.9326 0.2809,7.5841 -1.9663,5.6179 1.9663,2.809 -0.2809,6.4606 -60.1116,14.0447 1.4045,187.9189 5.0561,6.7415 0,6.4606 3.9325,6.1797 0.5618,3.6516 -3.9325,5.6179 0,9.5504 -5.8988,8.9887 0.5618,153.9305 65.1676,17.1346 -0.2809,31.1794 0.8427,3.6516 -0.8427,6.4606 2.809,1.6854 -1.4045,3.0899 2.5281,0.2808 0,8.4269 -2.5281,2.2472 0,5.6179 -1.6854,7.0223 1.4045,1.1236 0.5618,8.7078 -8.4268,0.2809 -58.7071,16.011 1.6853,377.2422 76.1226,22.1907 -0.2809,42.6961 3.9326,2.809 1.4044,13.7638 -2.8089,3.0899 1.1236,4.7752 16.011,0 -0.2809,-10.3931 9.5504,0.5618 -1.9662,50.842 9.2695,33.4265 38.4827,4.7752 0.2808,48.0331 -3.0898,3.6516 0.2809,2.809 -14.3257,9.2695 -3.0898,-1.4045 c 0,0 -6.1797,-0.5617 -5.337,0.8427 0.8427,1.4045 1.4045,2.5281 1.4045,2.5281 l 7.0223,0.5618 2.809,5.8988 -7.5842,3.3707 -20.2244,5.6179 -74.4372,-7.0224 -26.6851,3.3708 -6.7415,-0.5618 -2.2471,2.8089 0.2809,4.4944 -0.2809,7.865 0.2809,182.5819 7.5841,6.4606 -0.5618,8.9886 -0.8426,12.6403 1.1235,10.9549 -6.4606,6.4606 1.6854,89.6056 1.9663,4.2134 7.3033,2.809 -0.8427,13.4829 -6.7415,5.6179 44.3814,310.1083 5.8988,3.6516 0,7.5842 -7.5841,5.6179 1.9662,546.0602 -210.9523,1.1236 3.3708,-543.5322 -6.4606,-3.3707 -0.5618,-10.3931 7.5842,-1.9663 42.9769,-315.1644 -6.1797,-3.9325 0,-14.6065 8.7078,-5.3371 2.2472,-4.2134 0.8426,-85.9539 -6.4605,-6.4606 -2.809,-6.7415 2.5281,-2.528 -3.9326,-3.3708 -1.4045,-6.1797 4.2135,-4.2134 -0.2809,-9.2695 5.6179,-8.7078 1.4045,-176.6831 -5.6179,5.0562 -0.5618,12.0785 -4.7753,11.2358 -0.5617,7.865 -1.9663,19.6627 c 0,0 -19.6627,-0.8427 -19.3818,-5.6179 0.2809,-4.7752 7.0224,-62.6396 7.0224,-62.6396 l -3.3707,-2.809 -14.6066,9.5504 -35.1119,-4.4943 c 0,0 0.2809,-8.4268 0.8427,-9.8313 0.5618,-1.4045 21.6289,-9.2696 20.2245,-10.674 -1.4045,-1.4045 -32.8648,-22.7525 -32.8648,-22.7525 l -3.0898,3.9325 0.2809,4.7752 -8.146,14.8875 -16.011,46.3477 -7.8651,-4.7753 16.8537,-63.7632 -1.4044,-2.528 -1.1236,-2.2472 -3.6517,-0.2809 -3.0898,1.4045 -3.3708,6.7415 -8.7077,25.8423 -7.5842,-3.6516 9.5505,-33.7074 -5.0562,4.4943 -17.6963,-0.5618 -0.8427,-55.3363 17.4155,-8.7078 13.202,0.5618 1.9663,-10.9549 4.4943,-6.1797 9.5505,-36.5164 0.2809,-15.4492 7.5841,0.2809 0.5618,5.337 0.2809,1.9663 3.0899,0.5618 4.4943,-7.3033 0,-9.5505 5.8988,1.4045 2.2471,-4.4943 4.2135,0 2.8089,-45.7859 74.1564,-17.6964 0.8426,-144.661 -4.4943,-5.0561 -3.0898,-4.4944 1.4044,-3.9325 -1.1235,-3.6516 -3.0899,0.5618 -0.8427,-8.9887 2.5281,-3.6516 0.8427,-7.0224 6.4606,-10.674 0.5618,-186.5144 -61.2352,-17.1346 -6.4606,0.5618 1.4045,-14.3257 0.2809,-12.0785 0.2809,-8.7077 -1.6854,-1.4045 2.809,-44.1005 63.7632,-16.292 -0.5618,-155.335 -4.7752,-4.4943 -1.9663,-5.337 1.9663,-1.6854 0.2809,-4.4943 -4.7753,-1.6854 0.2809,-7.5842 4.2135,-1.9662 -1.1236,-11.2358 6.1797,-7.0224 1.1236,-187.638 -55.6173,-16.2919 -8.4268,0 1.9662,-8.146 1.6854,-2.2471 2.2472,-5.337 -1.4045,-17.1346 -1.1236,-5.0562 3.0898,-40.4489 1.4045,-3.0898 68.5384,-19.6627 0.8427,-376.9613 -3.6516,-1.4045 -4.4943,3.0899 c 0,0 -3.9326,-2.2472 -1.6854,-3.6517 2.2472,-1.4044 4.2134,-5.0561 4.2134,-5.0561 l -8.4268,-4.2134 -50.5612,-14.0448 -1.1235,-7.0223 2.8089,-1.1236 0.5618,-66.0104 49.7184,-14.8874 8.7078,-3.0899 11.7976,0.8427 -2.5281,-5.8988 1.1101,-384.5255 -56.0117,-17.876 4.767,-9.5339 -3.5752,-8.7394 3.1779,-2.3835 c 0,0 -1.9862,-28.6017 -1.1917,-30.9852 0.7945,-2.3834 3.178,-17.876 3.178,-17.876 l 44.4915,-11.1229 -2.3835,-3.5752 0,-312.2352 -7.5477,-1.589 -2.7807,-6.7531 3.178,-10.3284 0,-44.8888 3.1779,-8.3422 0.3973,-3.1779 -3.5752,-4.767 -0.3973,-7.5477 5.1642,-2.7807 1.1918,-5.1642 -12.3147,-3.9724 -1.1917,1.9862 0,11.5201 -1.9862,0.7945 -0.7945,-15.4926 -8.7394,-2.7807 1.1917,-7.5477 2.3835,-1.5889 -1.9862,-1.1918 -6.7532,1.589 -13.5064,-1.9862 0.3973,-8.3422 11.9174,-7.1504 -3.178,-8.3422 1.589,-4.7669 3.5752,0.3972 1.1917,5.1642 7.9449,2.3835 z"
         style="fill:#0000ff;fill-rule:evenodd;stroke:none;stroke-width:1px;stroke-linecap:butt;stroke-linejoin:miter;stroke-opacity:1" />
    </g>
  </g>
</svg>
