<?xml version="1.0" encoding="UTF-8" standalone="no"?>
<svg
   xmlns:dc="http://purl.org/dc/elements/1.1/"
   xmlns:cc="http://creativecommons.org/ns#"
   xmlns:rdf="http://www.w3.org/1999/02/22-rdf-syntax-ns#"
   xmlns:svg="http://www.w3.org/2000/svg"
   xmlns="http://www.w3.org/2000/svg"
   xmlns:sodipodi="http://sodipodi.sourceforge.net/DTD/sodipodi-0.dtd"
   xmlns:inkscape="http://www.inkscape.org/namespaces/inkscape"
   width="12.8in"
   height="19.2in"
   viewBox="0 0 3840 5760"
   id="svg2"
   version="1.1"
   inkscape:version="0.91 r13725"
   sodipodi:docname="skylinepath2a.svg">
  <metadata
     id="metadata9">
    <rdf:RDF>
      <cc:Work
         rdf:about="">
        <dc:format>image/svg+xml</dc:format>
        <dc:type
           rdf:resource="http://purl.org/dc/dcmitype/StillImage" />
        <dc:title></dc:title>
      </cc:Work>
    </rdf:RDF>
  </metadata>
  <defs
     id="defs7" />
  <sodipodi:namedview
     pagecolor="#ffffff"
     bordercolor="#666666"
     borderopacity="1"
     objecttolerance="10"
     gridtolerance="10"
     guidetolerance="10"
     inkscape:pageopacity="0"
     inkscape:pageshadow="2"
     inkscape:window-width="1440"
     inkscape:window-height="851"
     id="namedview5"
     showgrid="false"
     inkscape:zoom="0.27314814"
     inkscape:cx="1494.8423"
     inkscape:cy="1164.8338"
     inkscape:window-x="0"
     inkscape:window-y="25"
     inkscape:window-maximized="1"
     inkscape:current-layer="svg2" />
  <path
     style="fill:#2b0000;stroke:#000000;stroke-width:1"
     d="m 1724.21,84 c 17.9886,93.81948 5.4718,177.74152 10.6,262 -2.7173,71.17739 -5.0168,227.55422 3.19,159 10.3007,100.68093 3.6622,143.89122 9,165 -2.5521,23.36718 -10.4436,122.70963 10,117 -11.67,30.52593 53.7438,139.42793 10,131 18.4276,86.0915 -44.0364,15.61142 -21.5704,117.6492 -5.1707,61.2353 27.4836,132.2899 29.5704,146.3508 34.4796,16.0327 174.114,52.8733 113,21.88 77.6053,8.4181 107.002,143.1072 80.59,105.85 41.49,32.8297 85.5683,71.255 68.2835,148.9593 25.6707,629.1334 47.2352,1260.1664 75.5565,1889.3007 39.068,-42.9925 87.9864,-113.6958 164.2842,-151.0943 73.0841,-45.0792 148.1743,-151.2035 226.2858,-58.9157 66.661,35.6477 134.3602,76.0941 201.96,115.02 -1.597,-130.1496 -2.8325,-260.5693 -3.39,-390.59 139.5309,-61.4586 298.9366,-22.373 447.85,-36.92 170.0848,3.2122 -221.4522,-27.2536 -64.42,-6.4 -88.366,4.9081 -126.867,-9.6334 -16.01,-8.77 65.2913,2.8125 146.6744,-7.7536 202.01,3.68 -137.3205,21.4518 68.3218,-26.3293 30.7614,74.4427 5.7864,254.2426 6.3688,508.3603 15.2386,762.5573 86.0441,-7.3666 72.8561,-142.2093 171.7263,-173.0738 120.635,-74.986 286.0144,-16.3672 351.2737,114.0738 0,722.6667 0,1445.3333 0,2168 -1280,0 -2560,0 -3840,0 0,-693.6667 0,-1387.3333 0,-2081 45.121327,-15.0075 159.91362,-37.7904 143.32,51.09 46.87723,36.5245 35.28409,251.6073 40.5,176.9138 0.98973,182.9261 -0.96721,366.4153 1.49,549.1462 98.06858,1.3478 78.65285,-144.7085 65.67,-139.36 -12.86543,-90.0072 160.0504,-4.8599 134.01,-98.79 -0.30557,-278.5673 1.70211,-593.9855 -0.99,-844 -29.3979,-84.1276 65.32837,-75.4983 73,-71 65.41164,-5.9204 127.52022,-86.5031 104.74,-51.7238 1.19602,-73.8032 -2.23641,-147.6745 1.26,-221.2762 67.90101,-21.7912 106.40606,-63.543 201,-54.82 68.51948,3.9361 134.35507,1.4287 177.96,2.3 151.3307,24.7933 316.5193,12.5575 454.04,78.52 1.3566,46.0058 2.3475,215.5886 4,103.2762 11.649,-612.092 20.9577,-1224.3658 32.56,-1836.2562 79.3316,-8.8509 72.6243,-161.46 89.17,-94.22 41.3987,-38.7907 170.3581,-66.3435 127.27,-38.8 38.2899,-21.7807 66.6207,33.0171 57.63,-68 -1.0787,-49.6233 -55.4674,-171.76379 -9.63,-165 -19.422,41.96951 40.2711,-37.63158 15,-48 23.8314,-28.52754 24.2508,-125.00789 1,-124 12.3788,-75.12801 31.2134,-176.72393 4.8306,-141.72279 C 1746.3424,454.37865 1600.5427,789.95575 1717.82,516 c -12.7256,-82.98454 11.0549,-124.17337 -7.82,-212 34.2555,-30.21786 -32.4207,-193.10161 1.5485,-125.71287 5.9474,4.55188 20.236,-293.90411 7.9821,-98.931947 L 1720,75 l 4.21,9 0,0 z m -6.21,37 c 1.0404,3.31658 1.8452,-1.37377 0,0 z m -2,12 c -1.0404,3.31658 -1.8452,-1.37377 0,0 z m -1,14 c -1.0404,3.31658 -1.8452,-1.37377 0,0 z m 0,3 c -1.0404,3.31658 -1.8452,-1.37377 0,0 z m 20,45 c 1.0404,3.31658 1.8452,-1.37377 0,0 z m -16,141 c 1.0404,3.31658 1.8452,-1.37377 0,0 z m 1,75 c 1.0404,3.31658 1.8452,-1.37377 0,0 z m -8,379 c 1.0404,3.31658 1.8452,-1.37377 0,0 z m 3,1 c 1.0404,3.31658 1.8452,-1.37377 0,0 z m 10,38 c 1.0404,3.31658 1.8452,-1.37377 0,0 z m -12,74 c -1.0404,3.31658 -1.8452,-1.37377 0,0 z m 2,5 c 1.0404,3.31658 1.8452,-1.37377 0,0 z m -9,1 c -1.0404,3.31658 -1.8452,-1.37377 0,0 z m -1,3 c 1.0404,3.31658 1.8452,-1.37377 0,0 z m 63,38 c 8.1592,13.19651 0.7686,-1.19335 0,0 z m -7,3 c 10.1442,11.71937 2.587,-5.27858 0,0 z m -46,3 c 1.0404,3.31658 1.8452,-1.37377 0,0 z m -25,3 c -6.335,10.42896 6.9003,-2.28627 0,0 z m 18,20 -5,-6 5,6 z m 73,0 c -2.8812,11.51343 -17.8184,-5.4017 0,0 z m -26,13 c 0.4454,24.5007 -6.1601,-18.96806 0,0 z m -67,-3 c -1.8119,14.458 -16.5409,-8.19209 0,0 z m 68,11 c -1.0404,3.3166 -1.8452,-1.37377 0,0 z m 1,9 c -1.0404,3.3166 -1.8452,-1.3738 0,0 z m 1,10 -1,-5 1,5 z m 0,7 -2,-5 2,5 z m -59,2 c 10.1347,16.1578 -12.8195,-0.3022 0,0 z m 61,9 0,-4 0,4 z m 36,-3 c -3.9089,8.9928 -4.4126,-2.4343 0,0 z m -4,2 c 2.8872,10.4236 -10.4236,-2.8872 0,0 z m -119,13 c 3.3179,9.8103 -19.1256,-0.185 0,0 z m 92,5 c 6.4194,15.101 -17.0172,-3.1175 0,0 z m -70,8 c 10.5825,15.1886 -13.1174,-0.8876 0,0 z m 111,9 c -6.4414,4.0738 -0.769,-9.1904 0,0 z m -4,0 c -3.5278,10.585 -5.5512,-6.3625 0,0 z m -36,1 c 0.8223,8.4901 -5.0673,-2.6848 0,0 z m 5,20 c -3.6566,33.2699 -10.0914,-46.7308 0,0 z m -107,-3 c -16.943,6.0681 -3.019,-15.442 0,0 z m 29,8 c -15.4702,0.7017 0.7017,-15.4702 0,0 z m 121,3 c -8.5024,7.6003 -11.9561,-8.0202 0,0 z m -124,7 c -1.0404,3.3166 -1.8452,-1.3738 0,0 z m 83,11 c -3.9838,6.3543 -4.1323,-19.3149 0,0 z m -117,-2 c 7.2882,12.2425 -18.6139,-2.2128 0,0 z m 118.32,9.11 c 4.5791,39.8997 -12.7184,-12.1841 0,0 z M 1652,1124 c -1.0404,3.3166 -1.8452,-1.3738 0,0 z m -3,1 c -1.0404,3.3166 -1.8452,-1.3738 0,0 z m 124,11 c 1.0404,3.3166 1.8452,-1.3738 0,0 z m -26,4 c 1.0404,3.3166 1.8452,-1.3738 0,0 z m 30,13 -2,-13 2,13 z m -93,4 -5,-6 5,6 z m 94,-3 c 12.5021,31.7708 -13.1286,-3.8603 0,0 z m -2,4 c 1.0404,3.3166 1.8452,-1.3738 0,0 z m 55,0 c -1.1025,10.6674 -20.1175,4.6059 0,0 z m -149,1 c -1.0404,3.3166 -1.8452,-1.3738 0,0 z m -37,1 c -1.0404,3.3166 -1.8452,-1.3738 0,0 z m 133,8 c -1.0404,3.3166 -1.8452,-1.3738 0,0 z m 2,11 c -8.5446,2.6875 2.2216,-24.4826 0,0 z m -140,2 c 2.0097,12.7844 -14.3505,-5.7282 0,0 z m 164,12 3,-3 -3,3 z m -171,-3 c -1.0404,3.3166 -1.8452,-1.3738 0,0 z m 5,0 c -1.0404,3.3166 -1.8452,-1.3738 0,0 z m -8,10 1,-5 -1,5 z m -5,-4 c -1.0404,3.3166 -1.8452,-1.3738 0,0 z m -78,16 c -5.5512,6.3625 -3.5278,-10.585 0,0 z m -2,-1 c 1.0404,3.3166 1.8452,-1.3738 0,0 z m 490,316 c 1.0404,3.3166 1.8452,-1.3738 0,0 z m 1,32 c 1.0404,3.3166 1.8452,-1.3738 0,0 z m 1,13 c 1.0404,3.3166 1.8452,-1.3738 0,0 z m 1,51 c 1.0404,3.3166 1.8452,-1.3738 0,0 z m 1,18 c 1.0404,3.3166 1.8452,-1.3738 0,0 z m 1,37 c 1.0404,3.3166 1.8452,-1.3738 0,0 z m 3,86 c 1.0404,3.3166 1.8452,-1.3738 0,0 z m 2,61 c 1.0404,3.3166 1.8452,-1.3738 0,0 z m 2,43 c 1.0404,3.3166 1.8452,-1.3738 0,0 z m 1,12 0,-7 0,7 z m 0,26 c 1.0404,3.3166 1.8452,-1.3738 0,0 z m 0,2 c 1.0404,3.3166 1.8452,-1.3738 0,0 z m 1,13 c 1.0404,3.3166 1.8452,-1.3738 0,0 z m 1,38 c 1.0404,3.3166 1.8452,-1.3738 0,0 z m 4,121 c 1.0404,3.3166 1.8452,-1.3738 0,0 z m 2,39 c 1.0404,3.3166 1.8452,-1.3738 0,0 z m 5,148 c 1.0404,3.3166 1.8452,-1.3738 0,0 z m 0,4 c 1.0404,3.3166 1.8452,-1.3738 0,0 z m 0,8 c 1.0404,3.3166 1.8452,-1.3738 0,0 z m 1,22 c 1.0404,3.3166 1.8452,-1.3738 0,0 z m 0,2 c 1.0404,3.3166 1.8452,-1.3738 0,0 z m 1,7 c 1.0404,3.3166 1.8452,-1.3738 0,0 z m 0,9 c 1.0404,3.3166 1.8452,-1.3738 0,0 z m 0,17 c 1.0404,3.3166 1.8452,-1.3738 0,0 z m 1,14 c 1.0404,3.3166 1.8452,-1.3738 0,0 z M 930,2977 c 1.04044,3.3166 1.84518,-1.3738 0,0 z m -247,2 c 1.04044,3.3166 1.84518,-1.3738 0,0 z m -6,3 c 1.04044,3.3166 1.84518,-1.3738 0,0 z m -5,2 c 1.04044,3.3166 1.84518,-1.3738 0,0 z m -41,19 c 1.04044,3.3166 1.84518,-1.3738 0,0 z m -18,8 c 1.04044,3.3166 1.84518,-1.3738 0,0 z m -3,1 c 1.04044,3.3166 1.84518,-1.3738 0,0 z m 726,19 c 1.0404,3.3166 1.8452,-1.3738 0,0 z m 12,5 c 1.0404,3.3166 1.8452,-1.3738 0,0 z m -2,2 c 1.0404,3.3166 1.8452,-1.3738 0,0 z m 12,1 c 1.0404,3.3166 1.8452,-1.3738 0,0 z m -10,1 c 1.0404,3.3166 1.8452,-1.3738 0,0 z m -784,55 c 1.04044,3.3166 1.84518,-1.3738 0,0 z m 0,64 c 1.04044,3.3166 1.84518,-1.3738 0,0 z m 0,5 c 1.04044,3.3166 1.84518,-1.3738 0,0 z m -1,14 c 1.04044,3.3166 1.84518,-1.3738 0,0 z m 0,40 c 1.04044,3.3166 1.84518,-1.3738 0,0 z m 1,2 c 1.04044,3.3166 1.84518,-1.3738 0,0 z m -1,3 c 1.04044,3.3166 1.84518,-1.3738 0,0 z m 835,3 c 1.0404,3.3166 1.8452,-1.3738 0,0 z m -846,52 c 1.04044,3.3166 1.84518,-1.3738 0,0 z m -13,8 c 1.04044,3.3166 1.84518,-1.3738 0,0 z m 6,0 c 1.04044,3.3166 1.84518,-1.3738 0,0 z m 18,0 c 1.04044,3.3166 1.84518,-1.3738 0,0 z m 1,1 c 1.04044,3.3166 1.84518,-1.3738 0,0 z m -33,1 c 1.04044,3.3166 1.84518,-1.3738 0,0 z m 29,2 c 1.04044,3.3166 1.84518,-1.3738 0,0 z m 3,0 c 1.04044,3.3166 1.84518,-1.3738 0,0 z m -40,2 c 1.04044,3.3166 1.84518,-1.3738 0,0 z m -6,1 c 1.04044,3.3166 1.84518,-1.3738 0,0 z m 13,0 c 1.04044,3.3166 1.84518,-1.3738 0,0 z m 7,0 c 1.04044,3.3166 1.84518,-1.3738 0,0 z m -49,1 c 1.04044,3.3166 1.84518,-1.3738 0,0 z m 12,1 c 1.04044,3.3166 1.84518,-1.3738 0,0 z m 11,0 c 1.04044,3.3166 1.84518,-1.3738 0,0 z m 33,0 c 1.04044,3.3166 1.84518,-1.3738 0,0 z m -22,1 c 1.04044,3.3166 1.84518,-1.3738 0,0 z m -33,1 c 1.04044,3.3166 1.84518,-1.3738 0,0 z m -12,5 -1,-4 1,4 z m 20,-4 c 1.04044,3.3166 1.84518,-1.3738 0,0 z m 19,0 c 1.04044,3.3166 1.84518,-1.3738 0,0 z m -1,1 c 1.04044,3.3166 1.84518,-1.3738 0,0 z m -51,2 c 1.04044,3.3166 1.84518,-1.3738 0,0 z m -42,2 c 1.04044,3.3166 1.84518,-1.3738 0,0 z m -21,0 c -1.04044,3.3166 -1.84518,-1.3738 0,0 z m 20,1 c 1.04044,3.3166 1.84518,-1.3738 0,0 z m 5,0 c 1.04044,3.3166 1.84518,-1.3738 0,0 z m -6,1 c 1.04044,3.3166 1.84518,-1.3738 0,0 z m -18,4 c 5.00695,6.2592 5.87971,-11.2827 0,0 z m 61,-2 c 1.04044,3.3166 1.84518,-1.3738 0,0 z m -69,6 c 1.04044,3.3166 1.84518,-1.3738 0,0 z m 10,1 c 1.04044,3.3166 1.84518,-1.3738 0,0 z m -20,81 c -1.04044,3.3166 -1.84518,-1.3738 0,0 z m 0,7 c -1.04044,3.3166 -1.84518,-1.3738 0,0 z m 0,6 c -1.04044,3.3166 -1.84518,-1.3738 0,0 z m 0,3 c -1.04044,3.3166 -1.84518,-1.3738 0,0 z m 4,3 c 1.04044,3.3166 1.84518,-1.3738 0,0 z m -4,17 c -1.04044,3.3166 -1.84518,-1.3738 0,0 z m 5,37 c 1.04044,3.3166 1.84518,-1.3738 0,0 z m -4,46 c -1.04044,3.3166 -1.84518,-1.3738 0,0 z m 0,2 c -1.04044,3.3166 -1.84518,-1.3738 0,0 z m 3445,65 c 1.0404,3.3166 1.8452,-1.3738 0,0 z m -3446,6 c -1.04044,3.3166 -1.84518,-1.3738 0,0 z m 1,29 c -1.04044,3.3166 -1.84518,-1.3738 0,0 z m -1,175 c -1.04044,3.3166 -1.84518,-1.3738 0,0 z m 1,66 c -1.04044,3.3166 -1.84518,-1.3738 0,0 z m -178,537 c -1.04044,3.3166 -1.84518,-1.3738 0,0 z m 2,4 c -1.04044,3.3166 -1.84518,-1.3738 0,0 z m 24,26 c -1.04044,3.3166 -1.84518,-1.3738 0,0 z m -43,13 c -1.04044,3.3166 -1.84518,-1.3738 0,0 z m 7,19 c -1.04044,3.3166 -1.84518,-1.3738 0,0 z"
     id="Selection"
     inkscape:connector-curvature="0" />
</svg>
