<?xml version="1.0" encoding="UTF-8" standalone="no"?>
<!-- Created with Inkscape (http://www.inkscape.org/) -->

<svg
   xmlns:dc="http://purl.org/dc/elements/1.1/"
   xmlns:cc="http://creativecommons.org/ns#"
   xmlns:rdf="http://www.w3.org/1999/02/22-rdf-syntax-ns#"
   xmlns:svg="http://www.w3.org/2000/svg"
   xmlns="http://www.w3.org/2000/svg"
   xmlns:xlink="http://www.w3.org/1999/xlink"
   xmlns:sodipodi="http://sodipodi.sourceforge.net/DTD/sodipodi-0.dtd"
   xmlns:inkscape="http://www.inkscape.org/namespaces/inkscape"
   id="svg2"
   version="1.1"
   inkscape:version="0.91 r13725"
   width="3840"
   height="5760"
   viewBox="0 0 3840 5760"
   sodipodi:docname="quick12.svg">
  <metadata
     id="metadata8">
    <rdf:RDF>
      <cc:Work
         rdf:about="">
        <dc:format>image/svg+xml</dc:format>
        <dc:type
           rdf:resource="http://purl.org/dc/dcmitype/StillImage" />
        <dc:title></dc:title>
      </cc:Work>
    </rdf:RDF>
  </metadata>
  <defs
     id="defs6" />
  <sodipodi:namedview
     pagecolor="#ffffff"
     bordercolor="#666666"
     borderopacity="1"
     objecttolerance="10"
     gridtolerance="10"
     guidetolerance="10"
     inkscape:pageopacity="0"
     inkscape:pageshadow="2"
     inkscape:window-width="1440"
     inkscape:window-height="851"
     id="namedview4"
     showgrid="false"
     inkscape:zoom="0.082618553"
     inkscape:cx="1746.6743"
     inkscape:cy="4205.1779"
     inkscape:window-x="0"
     inkscape:window-y="25"
     inkscape:window-maximized="1"
     inkscape:current-layer="layer18"
     inkscape:snap-bbox="true"
     inkscape:object-paths="false"
     inkscape:snap-intersection-paths="false"
     inkscape:object-nodes="true"
     inkscape:snap-smooth-nodes="true"
     inkscape:snap-global="false"
     inkscape:snap-nodes="true">
    <sodipodi:guide
       position="0,0"
       orientation="0,3840"
       id="guide4195" />
    <sodipodi:guide
       position="3840,0"
       orientation="-5760,0"
       id="guide4197" />
    <sodipodi:guide
       position="3840,5760"
       orientation="0,-3840"
       id="guide4199" />
    <sodipodi:guide
       position="0,5760"
       orientation="5760,0"
       id="guide4201" />
    <sodipodi:guide
       position="0,127.97803"
       orientation="127.97803,0"
       id="guide4209" />
    <sodipodi:guide
       position="0,0"
       orientation="0,3840"
       id="guide4211" />
    <sodipodi:guide
       position="3840,0"
       orientation="-127.97803,0"
       id="guide4213" />
    <sodipodi:guide
       position="3840,127.97803"
       orientation="0,-3840"
       id="guide4215" />
    <sodipodi:guide
       position="1742.2692,4953.1033"
       orientation="104.62784,1.0786"
       id="guide4656" />
  </sodipodi:namedview>
  <g
     inkscape:groupmode="layer"
     id="layer3"
     inkscape:label="pic"
     style="display:none">
    <image
       width="3840"
       height="5760"
       preserveAspectRatio="none"
       xlink:href="file:///home/louie/Documents/prog/graphics/mine/wtc/View_to_One_World_Trade_Center.jpg"
       id="image10"
       x="0"
       y="0"
       sodipodi:absref="/home/louie/Documents/prog/graphics/mine/wtc/View_to_One_World_Trade_Center.jpg" />
  </g>
  <g
     inkscape:groupmode="layer"
     id="layer4"
     inkscape:label="sky"
     style="display:inline"
     sodipodi:insensitive="true">
    <rect
       style="opacity:1;fill:#2868c2;fill-opacity:1;stroke:none;stroke-width:6;stroke-miterlimit:4;stroke-dasharray:none;stroke-opacity:1"
       id="rect4203"
       width="3840"
       height="5632.022"
       x="0"
       y="0" />
  </g>
  <g
     inkscape:groupmode="layer"
     id="layer18"
     inkscape:label="wtc tower 2"
     style="display:inline">
    <path
       style="display:inline;opacity:1;fill:#28220b;fill-rule:evenodd;stroke:none;stroke-width:1px;stroke-linecap:butt;stroke-linejoin:miter;stroke-opacity:1"
       d="M 1723.6621 53.46875 L 1722.3145 53.738281 L 1721.5059 74.501953 L 1720.4277 74.501953 L 1718.5391 88.253906 L 1716.9219 99.310547 L 1710.4492 185.33203 L 1709.9102 190.72461 L 1718.2695 203.12891 L 1718.2695 212.02734 L 1709.9102 213.91602 L 1710.7188 218.23047 L 1713.1465 220.11719 L 1718.5391 219.84766 L 1718.8086 308.02734 L 1706.9434 310.99414 L 1707.2129 315.03711 L 1716.9219 318.54297 L 1717.4609 428.56445 L 1705.8652 431.53125 L 1703.4375 433.14844 L 1705.8652 438.54297 L 1716.9219 442.31641 L 1715.8418 549.37109 L 1700.2031 553.95703 L 1702.6289 560.69727 L 1715.0332 563.125 L 1717.4609 567.16992 C 1717.4609 567.16992 1719.0788 670.98854 1717.7305 670.44922 C 1716.3822 669.90991 1698.0449 674.76367 1698.0449 674.76367 L 1701.8203 682.04492 L 1715.0332 683.93164 L 1714.7637 792.06641 L 1697.2363 796.91992 L 1701.2812 803.39062 L 1714.7637 805.00977 L 1717.1914 912.06445 L 1699.3926 912.06445 L 1698.0449 914.2207 L 1696.4277 916.64844 L 1696.9668 926.35547 L 1692.9219 927.16406 L 1691.5723 938.2207 C 1691.5723 938.2207 1690.2246 937.41148 1690.2246 938.75977 C 1690.2246 940.10807 1687.2578 958.17578 1687.2578 958.17578 L 1628.9609 1201.0801 C 1593.662 1206.7651 1558.5282 1207.3534 1522.7539 1227.7754 C 1514.0624 1234.1128 1514.6832 1240.7602 1521.2285 1247.6055 L 1532.6699 1255.8047 C 1510.5301 1264.8194 1509.9369 1275.3915 1530 1287.457 L 1530.1914 1289.5547 C 1522.8659 1294.7199 1510.1262 1294.9247 1513.9824 1310.3398 L 1532.2891 1348.4746 L 1963.2207 1401.8652 L 1970.8477 1330.1699 L 1970.084 1324.0684 C 1984.8078 1319.3705 1975.564 1315.5606 1963.2207 1311.8652 L 1960.1699 1305 L 1958.6445 1299.6602 L 1971.0391 1298.5176 L 1971.6094 1288.2207 L 1962.457 1281.3555 L 1945.6777 1283.6445 L 1943.3906 1287.457 L 1938.0508 1284.9785 C 1956.2426 1273.3425 1955.4496 1261.4668 1933.4746 1249.3223 C 1948.0648 1242.1648 1956.6311 1233.502 1935 1217.2891 C 1900.1025 1206.2773 1869.4732 1200.3337 1842.7109 1198.9824 L 1772.2012 947.6582 L 1778.9434 947.92773 L 1777.0547 942.53516 L 1771.6621 942.26562 L 1765.7305 916.91797 L 1764.3809 916.91797 L 1763.8418 915.0293 L 1761.9551 913.41211 L 1743.3477 911.52539 L 1742.2695 806.89648 L 1758.9883 800.96484 L 1755.4824 794.49219 L 1741.7305 790.7168 L 1740.9219 683.93164 L 1756.5605 679.61719 L 1752.7852 672.87695 L 1737.6855 669.64062 L 1736.877 562.85547 L 1752.5156 558.27148 L 1750.0898 551.79883 L 1736.3359 550.45117 L 1733.1016 442.31641 L 1747.6621 437.46289 L 1744.6953 431.80078 L 1733.6406 428.83398 L 1732.832 319.35352 L 1740.3809 314.76758 L 1740.6504 310.99414 L 1730.9434 307.48828 L 1729.0566 220.6582 L 1737.6855 217.96094 L 1734.4492 213.10742 L 1729.3262 211.48828 L 1729.8652 202.32031 L 1735.5273 192.88281 L 1735.5273 185.0625 L 1734.1797 183.71484 L 1726.0898 97.693359 L 1724.4707 88.253906 L 1723.3926 74.501953 L 1723.6621 53.46875 z M 1769.2422 947.07227 L 1838.5137 1198.752 C 1812.3159 1196.3317 1785.4368 1194.5934 1756.4043 1195.0078 L 1755.334 1121.9902 L 1757.4746 1120.3867 L 1757.4746 1117.7109 L 1756.1367 1116.1074 L 1754.5312 1115.8398 L 1744.8242 1042.4766 L 1746.4297 1041.1855 L 1747.043 1039.8164 L 1746.4922 1038.1172 L 1744.6406 1036.8633 L 1742.7207 959.81055 L 1746.5996 954.1582 L 1764.4277 947.60742 L 1769.2422 947.07227 z M 1716.0176 955.36328 L 1716.9883 961.57617 L 1717.3613 1036.9023 L 1715.6426 1037.3945 L 1715.1699 1038.623 L 1715.7051 1039.6914 L 1717.1523 1041.3281 L 1706.3887 1116.9102 L 1703.7148 1118.5137 L 1703.4473 1120.1855 L 1704.0488 1121.1211 L 1707.459 1121.1895 L 1706.9238 1195.543 C 1680.1616 1196.3784 1655.7973 1197.776 1632.0352 1200.8906 L 1689.8066 956.96875 L 1716.0176 955.36328 z "
       id="path4669" />
  </g>
  <g
     inkscape:groupmode="layer"
     id="layer1"
     inkscape:label="wtc sil"
     style="display:inline">
    <path
       style="fill:#000000;fill-opacity:1;fill-rule:evenodd;stroke:none;stroke-width:1px;stroke-linecap:butt;stroke-linejoin:miter;stroke-opacity:1"
       d="m 1430.8475,1322.5424 399.661,-42.7119 201.7373,71.6949 177.0455,4280.4966 -798.0779,0 -11.2736,-2453.0049 z"
       id="path4162"
       inkscape:connector-curvature="0"
       sodipodi:nodetypes="ccccccc" />
  </g>
  <g
     inkscape:groupmode="layer"
     id="layer5"
     inkscape:label="wtcfaces all faces blue"
     style="display:inline">
    <path
       sodipodi:nodetypes="cccccc"
       inkscape:connector-curvature="0"
       id="path4256"
       d="m 1430.8475,1322.5424 399.661,-42.7119 201.7373,71.6949 177.0455,4280.4966 -798.0779,0 z"
       style="display:inline;fill:#25559e;fill-opacity:1;fill-rule:evenodd;stroke:none;stroke-width:1px;stroke-linecap:butt;stroke-linejoin:miter;stroke-opacity:1" />
  </g>
  <g
     inkscape:groupmode="layer"
     id="layer8"
     inkscape:label="wtcfaces lefttriangle"
     style="display:inline">
    <path
       style="opacity:0.49000011;fill:#153667;fill-opacity:1;fill-rule:evenodd;stroke:none;stroke-width:1px;stroke-linecap:butt;stroke-linejoin:miter;stroke-opacity:1"
       d="m 1433.5461,1392.7908 -27.4953,1663.734 1.0181,2575.4972 163.3348,0 z"
       id="path4391"
       inkscape:connector-curvature="0"
       sodipodi:nodetypes="ccccc" />
  </g>
  <g
     inkscape:groupmode="layer"
     id="layer6"
     inkscape:label="wtcfaces frontriangleouter"
     style="display:inline">
    <path
       style="fill:#ffe95b;fill-opacity:1;fill-rule:evenodd;stroke:none;stroke-width:1px;stroke-linecap:butt;stroke-linejoin:miter;stroke-opacity:1"
       d="M 2229.2977,5632.022 1829.1896,1280.074 1497.7712,5632.022 Z"
       id="path4260"
       inkscape:connector-curvature="0"
       sodipodi:nodetypes="cccc" />
  </g>
  <g
     inkscape:groupmode="layer"
     id="layer7"
     inkscape:label="wtcfaces fronttriangle inner"
     style="display:inline">
    <path
       style="fill:#d7ddd8;fill-opacity:1;fill-rule:evenodd;stroke:none;stroke-width:1px;stroke-linecap:butt;stroke-linejoin:miter;stroke-opacity:1"
       d="m 1831.2891,1538.9375 c -4.6932,6.4134 -1.5462,15.103 -3.3569,22.4543 -103.0444,1350.1958 -205.6936,2700.4217 -308.5787,4050.6297 229.334,0 458.668,0 688.002,0 -124.7412,-1356.5636 -249.3661,-2713.1481 -374.1953,-4069.6973 -0.8267,-0.8253 -0.847,-3.9675 -1.8711,-3.3867 z"
       id="path4262"
       inkscape:connector-curvature="0" />
  </g>
  <g
     inkscape:groupmode="layer"
     id="layer9"
     inkscape:label="building2 sil"
     style="display:inline">
    <path
       style="opacity:1;fill:#000000;fill-rule:evenodd;stroke:#000000;stroke-width:1px;stroke-linecap:butt;stroke-linejoin:miter;stroke-opacity:1"
       d="m 1394.1628,3047.2775 c -129.6428,-40.895 -371.9132,-64.7994 -707.27108,-73.4253 l -125.49499,56.1924 0.7106,241.0186 -9.12896,6.1201 -11.13304,3.4436 -156.70417,27.6971 0.30234,961.39 -37.4587,1362.308 1101.4476,3.7824 -41.4855,-856.1848 z"
       id="path4417"
       inkscape:connector-curvature="0"
       sodipodi:nodetypes="cccccccccccc" />
  </g>
  <g
     inkscape:groupmode="layer"
     id="layer10"
     inkscape:label="building2 faces"
     style="display:inline">
    <path
       style="display:inline;opacity:1;fill:#70594a;fill-opacity:0.96470588;fill-rule:evenodd;stroke:none;stroke-width:1px;stroke-linecap:butt;stroke-linejoin:miter;stroke-opacity:1"
       d="m 971.653,2984.5259 13.49665,2647.4961 520.28455,0 0.3769,-866.5117 -100.3925,-0.9942 -11.668,-1713.1308 c -96.7443,-41.153 -261.3439,-58.6734 -422.0976,-66.8594 z"
       id="path4255"
       inkscape:connector-curvature="0"
       sodipodi:nodetypes="ccccccc" />
    <path
       style="display:inline;opacity:1;fill:#d7c072;fill-opacity:1;fill-rule:evenodd;stroke:none;stroke-width:1px;stroke-linecap:butt;stroke-linejoin:miter;stroke-opacity:1"
       d="m 567.8893,3026.8403 -0.53492,2605.1817 417.79527,0 L 971.653,2984.5259 c -103.6163,-5.2764 -205.6397,-6.6848 -286.8477,-8.0098 z"
       id="path4321"
       inkscape:connector-curvature="0"
       sodipodi:nodetypes="cccccc" />
    <path
       style="display:inline;opacity:1;fill:#223d51;fill-opacity:0.98216864;fill-rule:evenodd;stroke:none;stroke-width:1px;stroke-linecap:butt;stroke-linejoin:miter;stroke-opacity:1"
       d="m 567.8893,3026.8403 -6.8711,2.9571 -0.051,241.1113 -21.0996,9.4551 -155.2598,29.9922 -1.7578,2321.666 184.50438,0 0.53472,-2605.1817 z"
       id="path4328"
       inkscape:connector-curvature="0"
       sodipodi:nodetypes="ccccccccc" />
  </g>
  <g
     inkscape:groupmode="layer"
     id="layer11"
     inkscape:label="building 4 sil"
     style="display:inline">
    <path
       inkscape:connector-curvature="0"
       id="path4511"
       d="m 2699.7325,2859.9406 80.5052,-28.0833 493.9971,-7.7563 0.5349,6.6865 24.3388,-0.5349 47.7703,2801.7694 -599.5385,0 z"
       style="opacity:1;fill:#000000;fill-rule:evenodd;stroke:none;stroke-width:1px;stroke-linecap:butt;stroke-linejoin:miter;stroke-opacity:1"
       sodipodi:nodetypes="cccccccc" />
  </g>
  <g
     inkscape:label="building 4 faces"
     id="g4513"
     inkscape:groupmode="layer"
     style="display:inline">
    <path
       inkscape:connector-curvature="0"
       id="path4526"
       d="m 2699.7325,2859.9406 80.5052,-28.0833 493.9971,-7.7563 0.5349,6.6865 24.3388,-0.5349 47.7703,2801.7694 -599.5385,0 z"
       style="opacity:1;fill:#89bad6;fill-opacity:1;fill-rule:evenodd;stroke:none;stroke-width:1px;stroke-linecap:butt;stroke-linejoin:miter;stroke-opacity:1"
       sodipodi:nodetypes="cccccccc" />
    <path
       style="opacity:1;fill:#16407a;fill-opacity:1;fill-rule:evenodd;stroke:none;stroke-width:1px;stroke-linecap:butt;stroke-linejoin:miter;stroke-opacity:1"
       d="m 2778.0742,2832.6113 -78.3418,27.3301 47.6074,2772.0801 87.2813,0 -56.5469,-2799.4102 z"
       id="path4535"
       inkscape:connector-curvature="0" />
    <path
       style="opacity:1;fill:#89bad6;fill-opacity:1;fill-rule:evenodd;stroke:none;stroke-width:1px;stroke-linecap:butt;stroke-linejoin:miter;stroke-opacity:1"
       d="m 2778.0742,2832.6113 56.5469,2799.4102 489.2148,0 -20.1797,-1057.4004 -28.2578,-1743.8477 -0.6289,0.014 -0.5351,-6.6855 -493.9961,7.7558 -2.1641,0.7539 z"
       id="path4532"
       inkscape:connector-curvature="0" />
    <path
       style="opacity:1;fill:#f1ede0;fill-opacity:1;fill-rule:evenodd;stroke:none;stroke-width:1px;stroke-linecap:butt;stroke-linejoin:miter;stroke-opacity:1"
       d="m 3275.3984,2830.7734 28.2578,1743.8477 20.1797,1057.4004 23.043,0 -47.7695,-2801.7695 -23.711,0.5214 z"
       id="path4515"
       inkscape:connector-curvature="0" />
  </g>
  <g
     inkscape:groupmode="layer"
     id="layer12"
     inkscape:label="building 4 faces 1"
     style="display:inline">
    <rect
       style="opacity:1;fill:#89bad6;fill-opacity:1;stroke:none;stroke-width:6;stroke-miterlimit:4;stroke-dasharray:none;stroke-opacity:1"
       id="rect4524"
       width="83.44725"
       height="81.307579"
       x="3941.2778"
       y="3117.5037" />
    <rect
       y="3117.5037"
       x="3857.8306"
       height="81.307579"
       width="83.44725"
       id="rect4537"
       style="opacity:1;fill:#16407a;fill-opacity:1;stroke:none;stroke-width:6;stroke-miterlimit:4;stroke-dasharray:none;stroke-opacity:1" />
    <rect
       y="3117.5037"
       x="4024.7251"
       height="81.307579"
       width="83.44725"
       id="rect4539"
       style="opacity:1;fill:#f1ede0;fill-opacity:1;stroke:none;stroke-width:6;stroke-miterlimit:4;stroke-dasharray:none;stroke-opacity:1" />
  </g>
  <g
     inkscape:groupmode="layer"
     id="layer13"
     inkscape:label="building3sil"
     style="display:inline">
    <path
       style="display:inline;opacity:1;fill:#aed4c6;fill-opacity:1;fill-rule:evenodd;stroke:none;stroke-width:1px;stroke-linecap:butt;stroke-linejoin:miter;stroke-opacity:1"
       d="m 2031.5173,5632.022 -38.1693,-1141.4101 59.7627,-6.8084 -12.3948,-926.1952 30.2437,-9.0621 1.3344,-132.1734 30.4537,-8.6255 -0.087,-54.1379 38.9814,-11.2175 -0.583,-21.4155 2.6942,0.2807 -0.1083,-27.9872 281.1232,-204.1877 291.1969,170.6015 0.2121,55.2078 42.6234,0.4726 0.8862,75.9845 30.7945,0.7184 2.4753,123.8093 34.042,-1.1348 3.7825,267.797 3.84,1849.483 z"
       id="path4230"
       inkscape:connector-curvature="0"
       sodipodi:nodetypes="ccccccccccccccccccccccc" />
    <path
       sodipodi:nodetypes="ccccccccccccccccccccccc"
       inkscape:connector-curvature="0"
       id="path4567"
       d="m 2031.5173,5632.022 -38.1693,-1141.4101 59.7627,-6.8084 -12.3948,-926.1952 30.2437,-9.0621 1.3344,-132.1734 30.4537,-8.6255 -0.087,-54.1379 38.9814,-11.2175 -0.583,-21.4155 2.6942,0.2807 -0.1083,-27.9872 281.1232,-204.1877 291.1969,170.6015 0.2121,55.2078 42.6234,0.4726 0.8862,75.9845 30.7945,0.7184 2.4753,123.8093 34.042,-1.1348 3.7825,267.797 3.84,1849.483 z"
       style="display:inline;opacity:1;fill:#000000;fill-opacity:1;fill-rule:evenodd;stroke:none;stroke-width:1px;stroke-linecap:butt;stroke-linejoin:miter;stroke-opacity:1" />
  </g>
  <g
     style="display:inline"
     inkscape:label="building3 faces"
     id="g4570"
     inkscape:groupmode="layer">
    <path
       style="display:inline;opacity:1;fill:#476575;fill-opacity:1;fill-rule:evenodd;stroke:none;stroke-width:1px;stroke-linecap:butt;stroke-linejoin:miter;stroke-opacity:1"
       d="m 2266.7578,3303.7246 -123.084,-2.8906 0.08,20.4238 -2.6953,-0.2812 0.584,21.416 -38.9824,11.2168 0.088,54.1386 -30.4531,8.625 -1.3359,132.1739 -30.2422,9.0605 12.3945,926.1953 -59.7636,6.8086 38.1699,1141.4102 252.1601,0 -49.8593,-2127.2363 36.75,1.1406 -3.8106,-202.2012 z"
       id="path4622"
       inkscape:connector-curvature="0" />
    <path
       style="display:inline;opacity:1;fill:#aed4c6;fill-opacity:1;fill-rule:evenodd;stroke:none;stroke-width:1px;stroke-linecap:butt;stroke-linejoin:miter;stroke-opacity:1"
       d="m 2266.7578,3303.7246 3.8106,202.2012 -36.75,-1.1406 49.8593,2127.2363 550.9434,0 -3.8399,-1849.4824 -3.7832,-267.7969 -34.041,1.1348 -2.4765,-123.8106 -30.793,-0.7187 -0.8867,-75.9844 -42.6231,-0.4727 0,-0.6074 0,0 -449.418,-10.5586 z"
       id="path4612"
       inkscape:connector-curvature="0" />
  </g>
  <g
     inkscape:groupmode="layer"
     id="layer15"
     inkscape:label="building3 faces roof"
     style="display:inline">
    <path
       style="display:inline;opacity:1;fill:#325367;fill-opacity:1;fill-rule:evenodd;stroke:none;stroke-width:1px;stroke-linecap:butt;stroke-linejoin:miter;stroke-opacity:1"
       d="m 2424.7676,3089.082 -281.1231,204.1875 0.029,7.5645 572.502,13.4492 -0.211,-54.5996 -291.1972,-170.6016 z"
       id="path4572"
       inkscape:connector-curvature="0" />
  </g>
  <g
     inkscape:groupmode="layer"
     id="layer16"
     inkscape:label="building3 faces side" />
</svg>
