<svg xmlns:rdf="http://www.w3.org/1999/02/22-rdf-syntax-ns#" xmlns="http://www.w3.org/2000/svg" height="5760" viewBox="0 0 3840 5760" width="3840" version="1.1" xmlns:cc="http://creativecommons.org/ns#" xmlns:dc="http://purl.org/dc/elements/1.1/">
 <!--
 <g>
  <rect height="5632" width="3840" y="0" x="0" fill="#2868c2"/>
 </g>
 <g fill="#28220b">
  <path d="m1708.2 1118.6 47.697-.2678 3.8044 194.78-47.697.2678z"/>
  <g>
   <path d="m1719.5 910.89 22.368-.23425 22.426 5.3454.058 5.5797-22.306 6.0565-22.368.23424-22.185-5.5906-.058-5.5797z"/>
   <path d="m1719.3 790.79 20.179-.21132 20.476 4.8806.056 5.3371-20.367 5.551-20.179.21132-20.235-5.1258-.056-5.3371z"/>
   <path d="m1719.2 670.69 18.234-.19096 18.285 4.6609.051 4.8519-18.184 5.0428-18.234.19096-18.285-4.6609-.051-4.8519z"/>
   <path d="m1718.8 550.6 16.289-.17059 16.335 4.1961.046 4.3667-16.241 4.7799-16.289.17058-16.094-4.4412-.046-4.3667z"/>
   <path d="m1718.6 430.51 14.101-.14767 14.385 3.7313.043 4.1241-14.301 4.2743-14.101.14768-14.144-3.9764-.043-4.1241z"/>
   <path d="m1718.4 310.41 12.156-.1273 12.194 3.5116.038 3.6389-12.118 3.7662-12.156.12731-12.194-3.5116-.038-3.6389z"/>
   <path d="m1747.3 919.09a4.1243 16.533 89.4 0 1 -16.489 4.2972 4.1243 16.533 89.4 0 1 -16.576 -3.951 4.1243 16.533 89.4 0 1 16.489 -4.2972 4.1243 16.533 89.4 0 1 16.576 3.951z"/>
   <path d="m1717.5 919.4 26.744-.28007 1.2739 121.64-26.744.2801z"/>
   <path d="m1744.7 798.29a3.8817 15.075 89.4 0 1 -15.033 4.0394 3.8817 15.075 89.4 0 1 -15.114 -3.7236 3.8817 15.075 89.4 0 1 15.033 -4.0394 3.8817 15.075 89.4 0 1 15.114 3.7237z"/>
   <path d="m1717.5 798.57 24.312-.25461 1.2777 122.01-24.312.25461z"/>
   <path d="m1741.9 677.74a3.6391 13.616 89.4 0 1 -13.577 3.7815 3.6391 13.616 89.4 0 1 -13.653 -3.4963 3.6391 13.616 89.4 0 1 13.577 -3.7815 3.6391 13.616 89.4 0 1 13.653 3.4963z"/>
   <path d="m1717.4 677.99 21.881-.22915 1.2828 122.5-21.881.22915z"/>
   <path d="m1739.3 556.94a3.1539 12.157 89.4 0 1 -12.123 3.281 3.1539 12.157 89.4 0 1 -12.189 -3.0264 3.1539 12.157 89.4 0 1 12.123 -3.281 3.1539 12.157 89.4 0 1 12.189 3.0264z"/>
   <path d="m1717.4 557.17 19.45-.20369 1.2777 122.01-19.45.20368z"/>
   <path d="m1736.2 436.39a2.9113 10.455 89.4 0 1 -10.424 3.0206 2.9113 10.455 89.4 0 1 -10.485 -2.8016 2.9113 10.455 89.4 0 1 10.424 -3.0206 2.9113 10.455 89.4 0 1 10.485 2.8017z"/>
   <path d="m1717.3 436.58 17.019-.17823 1.2621 120.52-17.019.17822z"/>
   <path d="m1733.6 315.59a2.6687 8.9961 89.4 0 1 -8.9677 2.7627 2.6687 8.9961 89.4 0 1 -9.0236 -2.5743 2.6687 8.9961 89.4 0 1 8.9677 -2.7628 2.6687 8.9961 89.4 0 1 9.0236 2.5743z"/>
   <path d="m1717.3 315.76 14.588-.15277 1.2751 121.76-14.588.15277z"/>
   <g transform="matrix(.099995 -.0010472 .0010472 .099995 1139.4 207.85)">
    <path d="m526.5 577v13l-42 14h-42l-41-14v-13l41-13h42z" transform="matrix(2.4314 0 0 2.4261 4712.1 -1272.3)"/>
    <path d="m5914.4 144.5a75.373 24.261 0 0 1 -75.373 24.261 75.373 24.261 0 0 1 -75.373 -24.261 75.373 24.261 0 0 1 75.373 -24.261 75.373 24.261 0 0 1 75.373 24.261z"/>
   </g>
   <path d="m1717.2 191.21 12.156-.12731 1.3192 125.97-12.156.12731z"/>
   <g stroke="#28220b" stroke-width="0.7">
    <path d="m1687.9 949.16-67.868 255.35"/>
    <path d="m1774.5 948.25 73.094 252.42"/>
    <path d="m1693.8 949.1-67.8 254.3"/>
    <path d="m1768.6 948.31 73.094 252.15"/>
    <path d="m1714.2 948.88-26.284 249.84"/>
    <path d="m1748.2 948.53 31.51 249.24"/>
    <path d="m1716.7 948.86-26.284 249.84"/>
    <path d="m1745.7 948.55 31.51 249.24"/>
   </g>
   <path d="m1718.8 1039.4 26.744-.28 10.377 79.252-47.697.2678z"/>
   <path d="m1721 74.313 2.1568-.02259 16.178 120.3-9.787 12.475-12.156.1273-10.212-12.266z"/>
   <path d="m1747 958.67 27.464-10.423-10.116-26.675-66.859.70017-9.5549 26.881 27.705 9.5169z" fill-rule="evenodd"/>
  </g>
  <path d="m1629 1201.1c-35.299 5.685-70.433 6.2733-106.21 26.695-8.6915 6.3374-8.0707 12.985-1.5254 19.83l11.441 8.1992c-22.14 9.0147-22.733 19.587-2.6699 31.652l.1914 2.0977c-7.3255 5.1652-20.065 5.37-16.209 20.785l18.307 38.135 430.93 53.391 7.627-71.695-.7637-6.1015c14.724-4.6979 5.48-8.5078-6.8633-12.203l-3.0508-6.8652-1.5254-5.3398 12.395-1.1426.5703-10.297-9.1524-6.8652-16.779 2.289-2.2871 3.8125-5.3398-2.4785c18.192-11.636 17.399-23.512-4.5762-35.656 14.59-7.1575 23.156-15.82 1.5254-32.033-34.898-11.012-65.527-16.955-92.289-18.307l-4.1972-.2304c-26.198-2.4203-53.077-4.1586-82.109-3.7442l-49.48.5352c-26.762.8354-51.126 2.233-74.889 5.3476z" fill-rule="evenodd"/>
 </g>
 -->
 <g>
  <path d="m1430.8 1322.5 399.66-42.712 201.74 71.695 177.05 4280.5h-798.08l-9.6688-2455.7z" fill-rule="evenodd"/>
 </g>
 <!--
 <g>
  <path d="m1430.8 1322.5 399.66-42.712 201.74 71.695 177.05 4280.5h-798.08z" fill-rule="evenodd" fill="#25559e"/>
 </g>
 <g>
  <path d="m1431 1348.9-29.11 1707.6 5.1788 2575.5h168.34z" fill-rule="evenodd" fill="#133669"/>
 </g>
 <g>
  <path d="m2229.3 5632-400.1-4351.9-331.4 4351.9z" fill-rule="evenodd" fill="#ffe95b"/>
 </g>
 <g>
  <path d="m1831.3 1538.9c-4.6932 6.4134-1.5462 15.103-3.3569 22.454-103.04 1350.2-205.69 2700.4-308.58 4050.6h688c-124.74-1356.6-249.37-2713.1-374.2-4069.7-.8267-.8253-.847-3.9675-1.8711-3.3867z" fill-rule="evenodd" fill="#c8d3de"/>
 </g>
 <g>
  <path d="m1394.2 3047.3c-129.64-40.895-371.91-64.799-707.27-73.425l-125.49 56.192.7106 241.02-9.129 6.1201-11.133 3.4436-156.7 27.697.30234 961.39-37.459 1362.3 1101.4 3.7824-41.486-856.18z" fill-rule="evenodd" stroke="#000" stroke-width="1px"/>
 </g>
 <g fill-rule="evenodd">
  <path d="m971.65 2984.5 13.497 2647.5h520.28l.3769-866.51-100.39-.9942-11.668-1713.1c-96.744-41.153-261.34-58.673-422.1-66.859z" fill="#70594a"/>
  <path d="m567.89 3026.8-.53492 2605.2h417.8l-13.51-2647.5c-103.62-5.2764-205.64-6.6848-286.85-8.0098z" fill="#d3b46b"/>
  <path d="m567.89 3026.8-6.8711 2.9571-.051 241.11-21.1 9.4551-155.26 29.992-1.7578 2321.7h184.5l.53472-2605.2z" fill-opacity=".98217" fill="#223d51"/>
 </g>
 <g>
  <path d="m2699.7 2859.9 80.505-28.083 494-7.7563.5349 6.6865 24.339-.5349 47.77 2801.8h-599.54z" fill-rule="evenodd"/>
 </g>
 <g fill-rule="evenodd">
  <path d="m2699.7 2859.9 80.505-28.083 494-7.7563.5349 6.6865 24.339-.5349 47.77 2801.8h-599.54z" fill="#89bad6"/>
  <path d="m2778.1 2832.6-78.342 27.33 47.607 2772.1h87.281l-56.547-2799.4z" fill="#16407a"/>
  <path d="m2778.1 2832.6 56.547 2799.4h489.21l-20.18-1057.4-28.258-1743.8-.6289.014-.5351-6.6855-494 7.7558-2.1641.7539z" fill="#89bad6"/>
  <path d="m3275.4 2830.8 28.258 1743.8 20.18 1057.4h23.043l-47.77-2801.8-23.711.5214z" fill="#f1ede0"/>
 </g>
 <g>
  <path d="m3288.7 3662.1-3.2095-123.03-404.4-17.117-53.859 14.535 3.6648 249.13 1.4177 1846.5 491.54-.0005z" fill-rule="evenodd" fill="#b3988a"/>
 </g>
 <g>
  <path d="m2885.3 3783.5-3.2095-261.04-55.632 14.978 4.2793 245.53 1.5061 1849.1h92.292z" fill-rule="evenodd" fill="#1b3c6b"/>
 </g>
 <g fill-rule="evenodd">
  <path d="m2031.5 5632-38.169-1141.4 59.763-6.8084-12.395-926.2 30.244-9.0621 1.3344-132.17 30.454-8.6255-.087-54.138 38.981-11.218-.583-21.416 2.6942.2807-.1083-27.987 281.12-204.19 291.2 170.6.2121 55.208 42.623.4726.8862 75.984 30.794.7184 2.4753 123.81 34.042-1.1348 3.7825 267.8 3.84 1849.5z" fill="#aed4c6"/>
  <path d="m2031.5 5632-38.169-1141.4 59.763-6.8084-12.395-926.2 30.244-9.0621 1.3344-132.17 30.454-8.6255-.087-54.138 38.981-11.218-.583-21.416 2.6942.2807-.1083-27.987 281.12-204.19 291.2 170.6.2121 55.208 42.623.4726.8862 75.984 30.794.7184 2.4753 123.81 34.042-1.1348 3.7825 267.8 3.84 1849.5z"/>
 </g>
 <g fill-rule="evenodd">
  <path d="m2266.8 3303.7-123.08-2.8906.08 20.424-2.6953-.2812.584 21.416-38.982 11.217.088 54.139-30.453 8.625-1.3359 132.17-30.242 9.0605 12.394 926.2-59.764 6.8086 38.17 1141.4h252.16l-49.859-2127.2 36.75 1.1406-3.8106-202.2z" fill="#476575"/>
  <path d="m2266.8 3303.7 3.8106 202.2-36.75-1.1406 49.859 2127.2h550.94l-3.8399-1849.5-3.7832-267.8-34.041 1.1348-2.4765-123.81-30.793-.7187-.8867-75.984-42.623-.4727v-.6074l-449.42-10.559z" fill="#aed4c6"/>
 </g>
 <g>
  <path d="m2424.8 3089.1-281.12 204.19.029 7.5645 572.5 13.449-.211-54.6-291.2-170.6z" fill-rule="evenodd" fill="#325367"/>
 </g>
 -->
</svg>
