<?xml version="1.0" encoding="UTF-8" standalone="no"?>
<svg
   xmlns:dc="http://purl.org/dc/elements/1.1/"
   xmlns:cc="http://creativecommons.org/ns#"
   xmlns:rdf="http://www.w3.org/1999/02/22-rdf-syntax-ns#"
   xmlns:svg="http://www.w3.org/2000/svg"
   xmlns="http://www.w3.org/2000/svg"
   xmlns:sodipodi="http://sodipodi.sourceforge.net/DTD/sodipodi-0.dtd"
   xmlns:inkscape="http://www.inkscape.org/namespaces/inkscape"
   width="226.29422"
   height="1239.1196"
   viewBox="0 0 2262.9421 12391.196"
   id="svg2"
   version="1.1"
   inkscape:version="0.91 r13725"
   sodipodi:docname="spire-sil-new3.svg">
  <metadata
     id="metadata81">
    <rdf:RDF>
      <cc:Work
         rdf:about="">
        <dc:format>image/svg+xml</dc:format>
        <dc:type
           rdf:resource="http://purl.org/dc/dcmitype/StillImage" />
        <dc:title></dc:title>
      </cc:Work>
    </rdf:RDF>
  </metadata>
  <defs
     id="defs79" />
  <sodipodi:namedview
     pagecolor="#ffffff"
     bordercolor="#666666"
     borderopacity="1"
     objecttolerance="10"
     gridtolerance="10"
     guidetolerance="10"
     inkscape:pageopacity="0"
     inkscape:pageshadow="2"
     inkscape:window-width="1440"
     inkscape:window-height="851"
     id="namedview77"
     showgrid="false"
     showborder="false"
     inkscape:snap-global="true"
     inkscape:snap-bbox="true"
     inkscape:object-paths="true"
     inkscape:snap-intersection-paths="true"
     inkscape:object-nodes="true"
     inkscape:snap-smooth-nodes="true"
     showguides="true"
     inkscape:guide-bbox="true"
     inkscape:snap-nodes="true"
     inkscape:zoom="0.50422005"
     inkscape:cx="-611.63358"
     inkscape:cy="663.03546"
     inkscape:window-x="0"
     inkscape:window-y="25"
     inkscape:window-maximized="1"
     inkscape:current-layer="svg2"
     fit-margin-top="0"
     fit-margin-left="0"
     fit-margin-right="0"
     fit-margin-bottom="0">
    <sodipodi:guide
       position="1013.7623,12992.842"
       orientation="18.05561,0"
       id="guide4312" />
    <sodipodi:guide
       position="590.19005,12391.089"
       orientation="0,1"
       id="guide4386" />
  </sodipodi:namedview>
  <g
     id="g4623"
     transform="translate(-4826.4929,1274.5172)">
    <polygon
       transform="matrix(2.4312498,-0.02546091,0.02540537,2.4259464,4709.9862,-1471.2203)"
       id="polygon6"
       points="601.5,3580 509.5,3604 417.5,3604 326.5,3580 326.5,3557 417.5,3534 509.5,3534 601.5,3557 "
       style="fill:#ff0000" />
    <polygon
       transform="matrix(2.4312498,-0.02546091,0.02540537,2.4259464,4709.9862,-1471.2203)"
       id="polygon8"
       points="589,3082 505,3104 422,3104 339,3082 339,3060 422,3039 505,3039 589,3060 "
       style="fill:#ff0000" />
    <polygon
       transform="matrix(2.4312498,-0.02546091,0.02540537,2.4259464,4709.9862,-1471.2203)"
       id="polygon10"
       points="576.5,2584 501.5,2604 426.5,2604 351.5,2584 351.5,2564 426.5,2544 501.5,2544 576.5,2564 "
       style="fill:#ff0000" />
    <polygon
       transform="matrix(2.4312498,-0.02546091,0.02540537,2.4259464,4709.9862,-1471.2203)"
       id="polygon12"
       points="564,2085 497,2104 430,2104 364,2085 364,2067 430,2049 497,2049 564,2067 "
       style="fill:#ff0000" />
    <polygon
       transform="matrix(2.4312498,-0.02546091,0.02540537,2.4259464,4709.9862,-1471.2203)"
       id="polygon14"
       points="551.5,1587 492.5,1604 434.5,1604 376.5,1587 376.5,1570 434.5,1554 492.5,1554 551.5,1570 "
       style="fill:#ff0000" />
    <polygon
       transform="matrix(2.4312498,-0.02546091,0.02540537,2.4259464,4709.9862,-1471.2203)"
       id="polygon16"
       points="539,1089 489,1104 439,1104 389,1089 389,1074 439,1059 489,1059 539,1074 "
       style="fill:#ff0000" />
    <ellipse
       transform="matrix(0.99994517,-0.01047178,0.01047178,0.99994517,0,0)"
       id="ellipse20"
       ry="41.243347"
       rx="165.33406"
       cy="7236.8599"
       cx="5852.0806"
       style="fill:#ff0000;stroke:none;stroke-width:0" />
    <rect
       transform="matrix(0.99994517,-0.01047178,0.01047178,0.99994517,0,0)"
       id="rect22"
       height="1216.4362"
       width="267.45215"
       y="7236.8599"
       x="5719.5698"
       style="fill:#ff0000;stroke:none;stroke-width:0" />
    <ellipse
       transform="matrix(0.99994517,-0.01047178,0.01047178,0.99994517,0,0)"
       id="ellipse24"
       ry="38.817268"
       rx="150.74576"
       cy="6028.6724"
       cx="5853.2964"
       style="fill:#ff0000;stroke:none;stroke-width:0" />
    <rect
       transform="matrix(0.99994517,-0.01047178,0.01047178,0.99994517,0,0)"
       id="rect26"
       height="1220.1177"
       width="243.13831"
       y="6028.6724"
       x="5731.7266"
       style="fill:#ff0000;stroke:none;stroke-width:0" />
    <ellipse
       transform="matrix(0.99994517,-0.01047178,0.01047178,0.99994517,0,0)"
       id="ellipse28"
       ry="36.391193"
       rx="136.15746"
       cy="4822.9111"
       cx="5852.0806"
       style="fill:#ff0000;stroke:none;stroke-width:0" />
    <rect
       transform="matrix(0.99994517,-0.01047178,0.01047178,0.99994517,0,0)"
       id="rect30"
       height="1225.0758"
       width="218.82448"
       y="4822.9111"
       x="5743.8838"
       style="fill:#ff0000;stroke:none;stroke-width:0" />
    <ellipse
       transform="matrix(0.99994517,-0.01047178,0.01047178,0.99994517,0,0)"
       id="ellipse32"
       ry="31.539032"
       rx="121.56915"
       cy="3614.7229"
       cx="5853.2964"
       style="fill:#ff0000;stroke:none;stroke-width:0" />
    <rect
       transform="matrix(0.99994517,-0.01047178,0.01047178,0.99994517,0,0)"
       id="rect34"
       height="1220.1177"
       width="194.51065"
       y="3614.7229"
       x="5756.0405"
       style="fill:#ff0000;stroke:none;stroke-width:0" />
    <ellipse
       transform="matrix(0.99994517,-0.01047178,0.01047178,0.99994517,0,0)"
       id="ellipse36"
       ry="29.112953"
       rx="104.54948"
       cy="2408.9617"
       cx="5852.0806"
       style="fill:#ff0000;stroke:none;stroke-width:0" />
    <rect
       transform="matrix(0.99994517,-0.01047178,0.01047178,0.99994517,0,0)"
       id="rect38"
       height="1205.2432"
       width="170.19682"
       y="2408.9617"
       x="5768.1978"
       style="fill:#ff0000;stroke:none;stroke-width:0" />
    <ellipse
       transform="matrix(0.99994517,-0.01047178,0.01047178,0.99994517,0,0)"
       id="ellipse40"
       ry="26.686872"
       rx="89.961182"
       cy="1200.7742"
       cx="5853.2964"
       style="fill:#ff0000;stroke:none;stroke-width:0" />
    <rect
       transform="matrix(0.99994517,-0.01047178,0.01047178,0.99994517,0,0)"
       id="rect42"
       height="1217.6385"
       width="145.88298"
       y="1200.7742"
       x="5780.3545"
       style="fill:#ff0000;stroke:none;stroke-width:0" />
    <g
       transform="matrix(0.99994517,-0.01047178,0.01047178,0.99994517,13.68096,61.094231)"
       id="g4483">
      <polygon
         style="fill:#ff0000"
         points="442.5,604 401.5,590 401.5,577 442.5,564 484.5,564 526.5,577 526.5,590 484.5,604 "
         id="polygon18"
         transform="matrix(2.4313831,0,0,2.4260794,4712.0938,-1272.3368)" />
      <ellipse
         style="fill:#ff0000;stroke:none;stroke-width:0"
         cx="5839.04"
         cy="144.49995"
         rx="75.372879"
         ry="24.260794"
         id="ellipse44" />
    </g>
    <rect
       transform="matrix(0.99994517,-0.01047178,0.01047178,0.99994517,0,0)"
       id="rect46"
       height="1259.7722"
       width="121.56915"
       y="-44.641953"
       x="5792.5117"
       style="fill:#ff0000;stroke:none;stroke-width:0" />
    <line
       id="line61"
       y2="9976.8213"
       x2="4829.874"
       y1="7474.1606"
       x1="5499.1914"
       style="fill:#ff0000;stroke:#ff0000;stroke-width:7.00000048" />
    <line
       id="line63"
       y2="9953.1934"
       x2="7086.0737"
       y1="7465.0991"
       x1="6364.4927"
       style="fill:#ff0000;stroke:#ff0000;stroke-width:7.00000048" />
    <line
       id="line65"
       y2="9976.2021"
       x2="4888.9541"
       y1="7473.542"
       x1="5558.27"
       style="fill:#ff0000;stroke:#ff0000;stroke-width:7.00000048" />
    <line
       id="line67"
       y2="9953.8115"
       x2="7026.9946"
       y1="7465.7178"
       x1="6305.4126"
       style="fill:#ff0000;stroke:#ff0000;stroke-width:7.00000048" />
    <line
       id="line69"
       y2="9969.8086"
       x2="5499.4746"
       y1="7471.4053"
       x1="5762.3101"
       style="fill:#ff0000;stroke:#ff0000;stroke-width:7.00000048" />
    <line
       id="line71"
       y2="9960.2051"
       x2="6416.4741"
       y1="7467.8545"
       x1="6101.3726"
       style="fill:#ff0000;stroke:#ff0000;stroke-width:7.00000048" />
    <line
       id="line73"
       y2="9969.5537"
       x2="5523.7871"
       y1="7471.1504"
       x1="5786.6226"
       style="fill:#ff0000;stroke:#ff0000;stroke-width:7.00000048" />
    <line
       id="line75"
       y2="9960.46"
       x2="6392.1616"
       y1="7468.1089"
       x1="6077.0601"
       style="fill:#ff0000;stroke:#ff0000;stroke-width:7.00000048" />
    <path
       inkscape:connector-curvature="0"
       id="rect4479"
       d="m 5701.8489,9168.9054 476.9678,-2.6782 38.0436,1947.7738 -476.9679,2.678 z"
       style="fill:#ff0000;fill-opacity:1;stroke:none;stroke-width:0" />
    <path
       sodipodi:nodetypes="ccccc"
       inkscape:connector-curvature="0"
       id="rect4481"
       d="m 5719.5698,8436.8594 267.4522,0 95.4692,793.5684 -476.9697,-2.3166 z"
       style="fill:#ff0000;fill-opacity:1;stroke:none;stroke-width:0"
       transform="matrix(0.99994517,-0.01047178,0.01047178,0.99994517,0,0)" />
    <path
       sodipodi:nodetypes="ccccccc"
       inkscape:connector-curvature="0"
       id="rect4489"
       d="m 5829.4872,-1274.2913 21.5679,-0.2259 161.7775,1202.959482 -97.8705,124.750716 -121.5624,1.273045 -102.123,-122.656326 z"
       style="fill:#ff0000;fill-opacity:1;stroke:none;stroke-width:0" />
    <path
       sodipodi:nodetypes="ccccccc"
       inkscape:connector-curvature="0"
       id="path4581"
       d="m 6089.8572,7569.3298 274.6357,-104.2307 -101.1585,-266.746 -668.5937,7.0017 -95.5491,268.8059 277.0472,95.1691 z"
       style="fill:#ff0000;fill-rule:evenodd;stroke:none;stroke-width:10px;stroke-linecap:butt;stroke-linejoin:miter;stroke-opacity:1" />
  </g>
</svg>
