<?xml version="1.0" encoding="UTF-8" standalone="no"?>
<svg
   xmlns:dc="http://purl.org/dc/elements/1.1/"
   xmlns:cc="http://creativecommons.org/ns#"
   xmlns:rdf="http://www.w3.org/1999/02/22-rdf-syntax-ns#"
   xmlns:svg="http://www.w3.org/2000/svg"
   xmlns="http://www.w3.org/2000/svg"
   xmlns:xlink="http://www.w3.org/1999/xlink"
   xmlns:sodipodi="http://sodipodi.sourceforge.net/DTD/sodipodi-0.dtd"
   xmlns:inkscape="http://www.inkscape.org/namespaces/inkscape"
   width="92.8"
   height="471.9"
   viewBox="0 0 928 4719"
   id="svg2"
   version="1.1"
   inkscape:version="0.91 r13725"
   sodipodi:docname="tmp3-mod2.svg">
  <metadata
     id="metadata81">
    <rdf:RDF>
      <cc:Work
         rdf:about="">
        <dc:format>image/svg+xml</dc:format>
        <dc:type
           rdf:resource="http://purl.org/dc/dcmitype/StillImage" />
        <dc:title></dc:title>
      </cc:Work>
    </rdf:RDF>
  </metadata>
  <defs
     id="defs79" />
  <sodipodi:namedview
     pagecolor="#ffffff"
     bordercolor="#666666"
     borderopacity="1"
     objecttolerance="10"
     gridtolerance="10"
     guidetolerance="10"
     inkscape:pageopacity="0"
     inkscape:pageshadow="2"
     inkscape:window-width="1440"
     inkscape:window-height="851"
     id="namedview77"
     showgrid="false"
     showborder="false"
     inkscape:snap-global="true"
     inkscape:snap-bbox="true"
     inkscape:object-paths="true"
     inkscape:snap-intersection-paths="true"
     inkscape:object-nodes="true"
     inkscape:snap-smooth-nodes="true"
     showguides="true"
     inkscape:guide-bbox="true"
     inkscape:snap-nodes="true"
     inkscape:zoom="1.0084401"
     inkscape:cx="362.32305"
     inkscape:cy="-366.70628"
     inkscape:window-x="0"
     inkscape:window-y="25"
     inkscape:window-maximized="1"
     inkscape:current-layer="svg2">
    <sodipodi:guide
       position="5840.2548,6595.1635"
       orientation="18.05561,0"
       id="guide4312" />
    <sodipodi:guide
       position="5416.6825,5993.4105"
       orientation="0,1"
       id="guide4386" />
  </sodipodi:namedview>
  <image
     sodipodi:absref="/home/louie/prog/graphics/mine/wtc/svgquickandirty/view-tower.png"
     y="-1301.0594"
     x="3743.7119"
     id="image4261"
     xlink:href="file:///home/louie/prog/graphics/mine/wtc/svgquickandirty/view-tower.png"
     preserveAspectRatio="none"
     height="12600"
     width="4670.0005" />
  <polygon
     style="fill:#ff0000"
     points="417.5,3534 509.5,3534 601.5,3557 601.5,3580 509.5,3604 417.5,3604 326.5,3580 326.5,3557 "
     id="polygon6"
     transform="matrix(2.4312498,-0.02546091,0.02540537,2.4259464,4709.9862,-1471.2203)" />
  <polygon
     style="fill:#ff0000"
     points="422,3039 505,3039 589,3060 589,3082 505,3104 422,3104 339,3082 339,3060 "
     id="polygon8"
     transform="matrix(2.4312498,-0.02546091,0.02540537,2.4259464,4709.9862,-1471.2203)" />
  <polygon
     style="fill:#ff0000"
     points="426.5,2544 501.5,2544 576.5,2564 576.5,2584 501.5,2604 426.5,2604 351.5,2584 351.5,2564 "
     id="polygon10"
     transform="matrix(2.4312498,-0.02546091,0.02540537,2.4259464,4709.9862,-1471.2203)" />
  <polygon
     style="fill:#ff0000"
     points="430,2049 497,2049 564,2067 564,2085 497,2104 430,2104 364,2085 364,2067 "
     id="polygon12"
     transform="matrix(2.4312498,-0.02546091,0.02540537,2.4259464,4709.9862,-1471.2203)" />
  <polygon
     style="fill:#ff0000"
     points="434.5,1554 492.5,1554 551.5,1570 551.5,1587 492.5,1604 434.5,1604 376.5,1587 376.5,1570 "
     id="polygon14"
     transform="matrix(2.4312498,-0.02546091,0.02540537,2.4259464,4709.9862,-1471.2203)" />
  <polygon
     style="fill:#ff0000"
     points="439,1059 489,1059 539,1074 539,1089 489,1104 439,1104 389,1089 389,1074 "
     id="polygon16"
     transform="matrix(2.4312498,-0.02546091,0.02540537,2.4259464,4709.9862,-1471.2203)" />
  <ellipse
     style="fill:#ff0000;stroke:none;stroke-width:0"
     cx="5852.0806"
     cy="7236.8599"
     rx="165.33406"
     ry="41.243347"
     id="ellipse20"
     transform="matrix(0.99994517,-0.01047178,0.01047178,0.99994517,0,0)" />
  <rect
     style="fill:#ff0000;stroke:none;stroke-width:0"
     x="5719.5698"
     y="7236.8599"
     width="267.45215"
     height="1216.4362"
     id="rect22"
     transform="matrix(0.99994517,-0.01047178,0.01047178,0.99994517,0,0)" />
  <ellipse
     style="fill:#ff0000;stroke:none;stroke-width:0"
     cx="5853.2964"
     cy="6028.6724"
     rx="150.74576"
     ry="38.817268"
     id="ellipse24"
     transform="matrix(0.99994517,-0.01047178,0.01047178,0.99994517,0,0)" />
  <rect
     style="fill:#ff0000;stroke:none;stroke-width:0"
     x="5731.7266"
     y="6028.6724"
     width="243.13831"
     height="1220.1177"
     id="rect26"
     transform="matrix(0.99994517,-0.01047178,0.01047178,0.99994517,0,0)" />
  <ellipse
     style="fill:#ff0000;stroke:none;stroke-width:0"
     cx="5852.0806"
     cy="4822.9111"
     rx="136.15746"
     ry="36.391193"
     id="ellipse28"
     transform="matrix(0.99994517,-0.01047178,0.01047178,0.99994517,0,0)" />
  <rect
     style="fill:#ff0000;stroke:none;stroke-width:0"
     x="5743.8838"
     y="4822.9111"
     width="218.82448"
     height="1225.0758"
     id="rect30"
     transform="matrix(0.99994517,-0.01047178,0.01047178,0.99994517,0,0)" />
  <ellipse
     style="fill:#ff0000;stroke:none;stroke-width:0"
     cx="5853.2964"
     cy="3614.7229"
     rx="121.56915"
     ry="31.539032"
     id="ellipse32"
     transform="matrix(0.99994517,-0.01047178,0.01047178,0.99994517,0,0)" />
  <rect
     style="fill:#ff0000;stroke:none;stroke-width:0"
     x="5756.0405"
     y="3614.7229"
     width="194.51065"
     height="1220.1177"
     id="rect34"
     transform="matrix(0.99994517,-0.01047178,0.01047178,0.99994517,0,0)" />
  <ellipse
     style="fill:#ff0000;stroke:none;stroke-width:0"
     cx="5852.0806"
     cy="2408.9617"
     rx="104.54948"
     ry="29.112953"
     id="ellipse36"
     transform="matrix(0.99994517,-0.01047178,0.01047178,0.99994517,0,0)" />
  <rect
     style="fill:#ff0000;stroke:none;stroke-width:0"
     x="5768.1978"
     y="2408.9617"
     width="170.19682"
     height="1205.2432"
     id="rect38"
     transform="matrix(0.99994517,-0.01047178,0.01047178,0.99994517,0,0)" />
  <ellipse
     style="fill:#ff0000;stroke:none;stroke-width:0"
     cx="5853.2964"
     cy="1200.7742"
     rx="89.961182"
     ry="26.686872"
     id="ellipse40"
     transform="matrix(0.99994517,-0.01047178,0.01047178,0.99994517,0,0)" />
  <rect
     style="fill:#ff0000;stroke:none;stroke-width:0"
     x="5780.3545"
     y="1200.7742"
     width="145.88298"
     height="1217.6385"
     id="rect42"
     transform="matrix(0.99994517,-0.01047178,0.01047178,0.99994517,0,0)" />
  <g
     id="g4483"
     transform="matrix(0.99994517,-0.01047178,0.01047178,0.99994517,13.68096,61.094231)">
    <polygon
       transform="matrix(2.4313831,0,0,2.4260794,4712.0938,-1272.3368)"
       id="polygon18"
       points="526.5,577 526.5,590 484.5,604 442.5,604 401.5,590 401.5,577 442.5,564 484.5,564 "
       style="fill:#ff0000" />
    <ellipse
       id="ellipse44"
       ry="24.260794"
       rx="75.372879"
       cy="144.49995"
       cx="5839.04"
       style="fill:#ff0000;stroke:none;stroke-width:0" />
  </g>
  <rect
     style="fill:#ff0000;stroke:none;stroke-width:0"
     x="5792.5117"
     y="-44.641953"
     width="121.56915"
     height="1259.7722"
     id="rect46"
     transform="matrix(0.99994517,-0.01047178,0.01047178,0.99994517,0,0)" />
  <line
     style="fill:#ff0000;stroke:#ff0000;stroke-width:7.00000048"
     x1="5499.1914"
     y1="7474.1606"
     x2="4829.874"
     y2="9976.8213"
     id="line61" />
  <line
     style="fill:#ff0000;stroke:#ff0000;stroke-width:7.00000048"
     x1="6364.4927"
     y1="7465.0991"
     x2="7086.0737"
     y2="9953.1934"
     id="line63" />
  <line
     style="fill:#ff0000;stroke:#ff0000;stroke-width:7.00000048"
     x1="5558.27"
     y1="7473.542"
     x2="4888.9541"
     y2="9976.2021"
     id="line65" />
  <line
     style="fill:#ff0000;stroke:#ff0000;stroke-width:7.00000048"
     x1="6305.4126"
     y1="7465.7178"
     x2="7026.9946"
     y2="9953.8115"
     id="line67" />
  <line
     style="fill:#ff0000;stroke:#ff0000;stroke-width:7.00000048"
     x1="5762.3101"
     y1="7471.4053"
     x2="5499.4746"
     y2="9969.8086"
     id="line69" />
  <line
     style="fill:#ff0000;stroke:#ff0000;stroke-width:7.00000048"
     x1="6101.3726"
     y1="7467.8545"
     x2="6416.4741"
     y2="9960.2051"
     id="line71" />
  <line
     style="fill:#ff0000;stroke:#ff0000;stroke-width:7.00000048"
     x1="5786.6226"
     y1="7471.1504"
     x2="5523.7871"
     y2="9969.5537"
     id="line73" />
  <line
     style="fill:#ff0000;stroke:#ff0000;stroke-width:7.00000048"
     x1="6077.0601"
     y1="7468.1089"
     x2="6392.1616"
     y2="9960.46"
     id="line75" />
  <path
     style="fill:#ff0000;stroke:none;stroke-width:0;fill-opacity:1"
     d="m 5701.8489,9168.9054 476.9678,-2.6782 38.0436,1947.7738 -476.9679,2.678 z"
     id="rect4479"
     inkscape:connector-curvature="0" />
  <path
     transform="matrix(0.99994517,-0.01047178,0.01047178,0.99994517,0,0)"
     style="fill:#ff0000;stroke:none;stroke-width:0;fill-opacity:1"
     d="m 5719.5698,8436.8594 267.4522,0 95.4692,793.5684 -476.9697,-2.3166 z"
     id="rect4481"
     inkscape:connector-curvature="0"
     sodipodi:nodetypes="ccccc" />
  <path
     style="fill:#ff0000;fill-opacity:1;stroke:none;stroke-width:0"
     d="m 5829.4872,-1274.2913 21.5679,-0.2259 161.7775,1202.959482 -97.8705,124.750716 -121.5624,1.273045 -102.123,-122.656326 z"
     id="rect4489"
     inkscape:connector-curvature="0"
     sodipodi:nodetypes="ccccccc" />
  <path
     style="fill:#ff0000;fill-rule:evenodd;stroke:none;stroke-width:10px;stroke-linecap:butt;stroke-linejoin:miter;stroke-opacity:1"
     d="m 6089.8572,7569.3298 274.6357,-104.2307 -101.1585,-266.746 -668.5937,7.0017 -95.5491,268.8059 277.0472,95.1691 z"
     id="path4581"
     inkscape:connector-curvature="0"
     sodipodi:nodetypes="ccccccc" />
</svg>
