    <svg width="3840" height="5760" viewBox="0 0 3840 5760">
      <rect x="0" y="0" width="3839" height="5759" style="stroke: red; fill: green;"/>
      <path d="M561 3030
      686 2975
      c 210.00915,4.0585 565.2949,10.2562 709,75
      L1395 3050 1396 3298
      1430 1322 1830 1279 2032 1353 2109 3350
      2142 3340 2142 3324 2144 3324 2144 3293 2420 3092 2430 3092 2704 3253
      2699 2860 2781 2830 3274 2823 3274 2829 3300 2829
      3314 3652 3373 3643 3373 3594 3387 3587
      3389 3585
      c 94.8119,-181.0627 335.5254,-191.1895 444,-3
      L3833 3582
      3839 3584  3839 5759 0 5759
      0 3679 12 3677 12 3672 67 3672 68 3663 70 3662 85 3662 85 3669 95 3669 95 3674 140 3674 141 3741 145 3741 145 3759 157 3759 157 3764 183 3764 183 4458 245 4458 245 4429 243 4425 243 4322 253 4317 252 4285 294 4273 366 4273 380 4268 385 4268
      385 3307 561 3277z
      "/>
      <ellipse cx="1720.678" cy="1302.7826" rx="218.42409" ry="41.132446"/>
      <ellipse cx="1720.678" cy="1269.5083" rx="218.42409" ry="41.132446"/>
      <ellipse cx="1720.678" cy="1235.6016" rx="218.42409" ry="41.132446"/>
    </svg>
