  <svg width="928" height="4719" viewBox="0 0 928 4719">
  <image xlink:href="centeringtower5withreflection.png"
  x="0" y="0"
  width="928" height="4719"/>
  

      <polygon id="subpeak" fill="black" points="410.2615 580.887, 517.7385 580.887,  464.0 688.364" />
    

      <polygon id="peak" fill="black" points="410.2615 581.887, 517.7385 581.887,  464.0 85.887" />
    

    <ellipse class="spire_top" cx="463.5" cy="3569" rx="68" ry="17" fill="black" stroke="none" stroke-width="0"></ellipse>
    

    <rect class="spire" x="409.0" y="3569.0" width="110.0" height="557.535" fill="black" stroke="none" stroke-width="0"></rect>
    

    <ellipse class="spire_top" cx="464.0" cy="3071" rx="62" ry="16" fill="black" stroke="none" stroke-width="0"></ellipse>
    

    <rect class="spire" x="414.0" y="3071.5" width="100.0" height="465" fill="black" stroke="none" stroke-width="0"></rect>
    

    <ellipse class="spire_top" cx="463.5" cy="2574" rx="56" ry="15" fill="black" stroke="none" stroke-width="0"></ellipse>
    

    <rect class="spire" x="419.0" y="2574.0" width="90.0" height="465" fill="black" stroke="none" stroke-width="0"></rect>
    

    <ellipse class="spire_top" cx="464.0" cy="2076" rx="50" ry="13" fill="black" stroke="none" stroke-width="0"></ellipse>
    

    <rect class="spire" x="424.0" y="2076.5" width="80.0" height="465" fill="black" stroke="none" stroke-width="0"></rect>
    

    <ellipse class="spire_top" cx="463.5" cy="1579" rx="43" ry="12" fill="black" stroke="none" stroke-width="0"></ellipse>
    

    <rect class="spire" x="429.0" y="1579.0" width="70.0" height="465" fill="black" stroke="none" stroke-width="0"></rect>
    

    <ellipse class="spire_top" cx="464.0" cy="1074.75" rx="30.9375" ry="7.875" fill="black" stroke="none" stroke-width="0"></ellipse>
    

    <rect class="spire" x="434.0" y="1074.75" width="60.0" height="465" fill="black" stroke="none" stroke-width="0"></rect>
    

    <ellipse class="spire_top" cx="464.0" cy="699.65" rx="23.375" ry="5.95" fill="black" stroke="none" stroke-width="0"></ellipse>
    

    <rect class="spire" x="439.0" y="575.9" width="50.0" height="465" fill="black" stroke="none" stroke-width="0"></rect>
    
<g id="wire_out">

        <path class="wire_outside" d="M 286 3690.38 l7 0 L -13 4769.14 l-7 0 z "  fill="black" stroke="none" stroke-width="0"></path>
    

        </g>
        <use xlink:href="#wire_out" transform="translate(24.3, 0)"/>
        <use xlink:href="#wire_out" transform="translate(927, 0) scale(-1, 1)"/>
        <use xlink:href="#wire_out" transform="translate(902.7, 0) scale(-1, 1)"/>
    
<g id="wire_in">

        <path class="wire_outside" d="M 390 3690.38 l7 0 L 272 4769.14 l-7 0 z "  fill="black" stroke="none" stroke-width="0"></path>
    

        </g>
        <use xlink:href="#wire_in" transform="translate(17.0, 0)"/>
        <use xlink:href="#wire_in" transform="translate(927, 0) scale(-1, 1)"/>
        <use xlink:href="#wire_in" transform="translate(910.0, 0) scale(-1, 1)"/>
    

      <polygon class="bottom_subplatform" fill="black" points="417.5 3534, 509.5 3534,  601.5 3557, 649 3697.38,    509.5 3744,  417.5, 3744,      279 3697.38,   326.5 3557" />
    

      <polygon class="barrier_base" fill="#666" points="417.5 3526, 509.5 3526,  601.5 3549, 601.5 3572,    509.5 3596,  417.5, 3596,      326.5 3572,   326.5 3549" />
    

      <polygon class="platform_underside" fill="black" points="417.5 3534, 509.5 3534,  601.5 3557, 601.5 3580,    509.5 3604,  417.5, 3604,      326.5 3580,   326.5 3557" />
    

    <rect class="barrier_center" x="418.166666667" y="3483" width="91.6666666667" height="43" fill="none" stroke="#666" stroke-width="2px"></rect>

    <polygon class="barrier_perimeter" fill="none" stroke="#666" stroke-width="2" points="327.5 3549.33333333 327.5 3506.33333333   418.166666667 3483 509.833333333 3483  600.5 3506.33333333 600.5 3549.33333333  509.833333333 3526 418.166666667 3526"/>
    

      <polygon class="barrier_base" fill="#666" points="422.0 3031, 505.0 3031,  589.0 3052, 589.0 3074,    505.0 3096,  422.0, 3096,      339.0 3074,   339.0 3052" />
    

      <polygon class="platform_underside" fill="black" points="422.0 3039, 505.0 3039,  589.0 3060, 589.0 3082,    505.0 3104,  422.0, 3104,      339.0 3082,   339.0 3060" />
    

    <rect class="barrier_center" x="422.333333333" y="2988" width="83.3333333333" height="43" fill="none" stroke="#666" stroke-width="2px"></rect>

    <polygon class="barrier_perimeter" fill="none" stroke="#666" stroke-width="2" points="340.0 3052.66666667 340.0 3009.66666667   422.333333333 2988 505.666666667 2988  588.0 3009.66666667 588.0 3052.66666667  505.666666667 3031 422.333333333 3031"/>
    

      <polygon class="barrier_base" fill="#666" points="426.5 2536, 501.5 2536,  576.5 2556, 576.5 2576,    501.5 2596,  426.5, 2596,      351.5 2576,   351.5 2556" />
    

      <polygon class="platform_underside" fill="black" points="426.5 2544, 501.5 2544,  576.5 2564, 576.5 2584,    501.5 2604,  426.5, 2604,      351.5 2584,   351.5 2564" />
    

    <rect class="barrier_center" x="426.5" y="2493" width="75.0" height="43" fill="none" stroke="#666" stroke-width="2px"></rect>

    <polygon class="barrier_perimeter" fill="none" stroke="#666" stroke-width="2" points="352.5 2556.0 352.5 2513.0   426.5 2493 501.5 2493  575.5 2513.0 575.5 2556.0  501.5 2536 426.5 2536"/>
    

      <polygon class="barrier_base" fill="#666" points="430.0 2041, 497.0 2041,  564.0 2059, 564.0 2077,    497.0 2096,  430.0, 2096,      364.0 2077,   364.0 2059" />
    

      <polygon class="platform_underside" fill="black" points="430.0 2049, 497.0 2049,  564.0 2067, 564.0 2085,    497.0 2104,  430.0, 2104,      364.0 2085,   364.0 2067" />
    

    <rect class="barrier_center" x="430.666666667" y="1998" width="66.6666666667" height="43" fill="none" stroke="#666" stroke-width="2px"></rect>

    <polygon class="barrier_perimeter" fill="none" stroke="#666" stroke-width="2" points="365.0 2059.33333333 365.0 2016.33333333   430.666666667 1998 497.333333333 1998  563.0 2016.33333333 563.0 2059.33333333  497.333333333 2041 430.666666667 2041"/>
    

      <polygon class="barrier_base" fill="#666" points="434.5 1546, 492.5 1546,  551.5 1562, 551.5 1579,    492.5 1596,  434.5, 1596,      376.5 1579,   376.5 1562" />
    

      <polygon class="platform_underside" fill="black" points="434.5 1554, 492.5 1554,  551.5 1570, 551.5 1587,    492.5 1604,  434.5, 1604,      376.5 1587,   376.5 1570" />
    

    <rect class="barrier_center" x="434.833333333" y="1503" width="58.3333333333" height="43" fill="none" stroke="#666" stroke-width="2px"></rect>

    <polygon class="barrier_perimeter" fill="none" stroke="#666" stroke-width="2" points="377.5 1562.66666667 377.5 1519.66666667   434.833333333 1503 493.166666667 1503  550.5 1519.66666667 550.5 1562.66666667  493.166666667 1546 434.833333333 1546"/>
    

      <polygon class="barrier_base" fill="#666" points="443.375 1051, 484.625 1051,  525.875 1061.5, 525.875 1072.0,    484.625 1082.5,  443.375, 1082.5,      402.125 1072.0,   402.125 1061.5" />
    

      <polygon class="platform_underside" fill="black" points="443.375 1059, 484.625 1059,  525.875 1069.5, 525.875 1080.0,    484.625 1090.5,  443.375, 1090.5,      402.125 1080.0,   402.125 1069.5" />
    

    <rect class="barrier_center" x="443.375" y="1008" width="41.25" height="43" fill="none" stroke="#666" stroke-width="2px"></rect>

    <polygon class="barrier_perimeter" fill="none" stroke="#666" stroke-width="2" points="403.125 1061.5 403.125 1018.5   443.375 1008 484.625 1008  524.875 1018.5 524.875 1061.5  484.625 1051 443.375 1051"/>
    

      <polygon class="barrier_base" fill="#666" points="448.416666667 679.75, 479.583333333 679.75,  510.75 687.683333333, 510.75 695.616666667,    479.583333333 703.55,  448.416666667, 703.55,      417.25 695.616666667,   417.25 687.683333333" />
    

      <polygon class="platform_underside" fill="black" points="448.416666667 687.75, 479.583333333 687.75,  510.75 695.683333333, 510.75 703.616666667,    479.583333333 711.55,  448.416666667, 711.55,      417.25 703.616666667,   417.25 695.683333333" />
    

    <rect class="barrier_center" x="448.416666667" y="636.75" width="31.1666666667" height="43" fill="none" stroke="#666" stroke-width="2px"></rect>

    <polygon class="barrier_perimeter" fill="none" stroke="#666" stroke-width="2" points="418.25 687.683333333 418.25 644.683333333   448.416666667 636.75 479.583333333 636.75  509.75 644.683333333 509.75 687.683333333  479.583333333 679.75 448.416666667 679.75"/>
    

      <polygon class="tapered_spire_base" fill="black" points="519.0 4075.85, 566.5002 4418.13185,  566.5002 4766.88185, 361.4998 4766.88185,  361.4998 4418.13185, 409.0 4075.85" />
    

  </svg>
