  <svg width="92.8" height="471.9" viewBox="0 0 928 4719">
  <image xlink:href="centeringtower5withreflection.png"
  x="0" y="0"
  width="928" height="4719"/>
  

      <polygon fill="black" points="410.875 577.333333333, 517.125 577.333333333,  464.0 683.583333333" />
    

      <polygon fill="black" points="410.875 578.333333333, 517.125 578.333333333,  464.0 82.3333333333" />
    

    <ellipse cx="463.5" cy="3569" rx="68" ry="17" fill="black" stroke="none" stroke-width="0"></ellipse>
    

    <rect x="409.0" y="3569.0" width="110.0" height="557.535" fill="black" stroke="none" stroke-width="0"></rect>
    

    <ellipse cx="464.0" cy="3071" rx="62" ry="16" fill="black" stroke="none" stroke-width="0"></ellipse>
    

    <rect x="414.0" y="3071.5" width="100.0" height="465" fill="black" stroke="none" stroke-width="0"></rect>
    

    <ellipse cx="463.5" cy="2574" rx="56" ry="15" fill="black" stroke="none" stroke-width="0"></ellipse>
    

    <rect x="419.0" y="2574.0" width="90.0" height="465" fill="black" stroke="none" stroke-width="0"></rect>
    

    <ellipse cx="464.0" cy="2076" rx="50" ry="13" fill="black" stroke="none" stroke-width="0"></ellipse>
    

    <rect x="424.0" y="2076.5" width="80.0" height="465" fill="black" stroke="none" stroke-width="0"></rect>
    

    <ellipse cx="463.5" cy="1579" rx="43" ry="12" fill="black" stroke="none" stroke-width="0"></ellipse>
    

    <rect x="429.0" y="1579.0" width="70.0" height="465" fill="black" stroke="none" stroke-width="0"></rect>
    

    <ellipse cx="464.0" cy="1081" rx="37" ry="11" fill="black" stroke="none" stroke-width="0"></ellipse>
    

    <rect x="434.0" y="1081.5" width="60.0" height="465" fill="black" stroke="none" stroke-width="0"></rect>
    

    <ellipse cx="463.5" cy="707.75" rx="31" ry="10" fill="black" stroke="none" stroke-width="0"></ellipse>
    

    <rect x="439.0" y="584.0" width="50.0" height="465" fill="black" stroke="none" stroke-width="0"></rect>
    
<g id="wire_out">

        <path d="M 286 3690.38 l7 0 L -13 4769.14 l-7 0 z "  fill="black" stroke="none" stroke-width="0"></path>
    

        </g>
        <use xlink:href="#wire_out" transform="translate(24.3, 0)"/>
        <use xlink:href="#wire_out" transform="translate(927, 0) scale(-1, 1)"/>
        <use xlink:href="#wire_out" transform="translate(902.7, 0) scale(-1, 1)"/>
    
<g id="wire_in">

        <path d="M 390 3690.38 l7 0 L 272 4769.14 l-7 0 z "  fill="black" stroke="none" stroke-width="0"></path>
    

        </g>
        <use xlink:href="#wire_in" transform="translate(17.0, 0)"/>
        <use xlink:href="#wire_in" transform="translate(927, 0) scale(-1, 1)"/>
        <use xlink:href="#wire_in" transform="translate(910.0, 0) scale(-1, 1)"/>
    

      <polygon fill="black" points="417.5 3534, 509.5 3534,  601.5 3557, 649 3697.38,    509.5 3744,  417.5, 3744,      279 3697.38,   326.5 3557" />
    

      <polygon fill="#666" points="417.5 3526, 509.5 3526,  601.5 3549, 601.5 3572,    509.5 3596,  417.5, 3596,      326.5 3572,   326.5 3549" />
    

      <polygon fill="black" points="417.5 3534, 509.5 3534,  601.5 3557, 601.5 3580,    509.5 3604,  417.5, 3604,      326.5 3580,   326.5 3557" />
    

    <rect id="level1" x="418.166666667" y="3483" width="91.6666666667" height="43" fill="none" stroke="#666" stroke-width="4px"></rect>

    <polygon fill="none" stroke="#666" stroke-width="4" points="326.5 3549.33333333 326.5 3506.33333333   418.166666667 3483 509.833333333 3483  601.5 3506.33333333 601.5 3549.33333333  509.833333333 3526 418.166666667 3526"/>
    

      <polygon fill="#666" points="422.0 3031, 505.0 3031,  589.0 3052, 589.0 3074,    505.0 3096,  422.0, 3096,      339.0 3074,   339.0 3052" />
    

      <polygon fill="black" points="422.0 3039, 505.0 3039,  589.0 3060, 589.0 3082,    505.0 3104,  422.0, 3104,      339.0 3082,   339.0 3060" />
    

    <rect id="level1" x="422.333333333" y="2988" width="83.3333333333" height="43" fill="none" stroke="#666" stroke-width="4px"></rect>

    <polygon fill="none" stroke="#666" stroke-width="4" points="339.0 3052.66666667 339.0 3009.66666667   422.333333333 2988 505.666666667 2988  589.0 3009.66666667 589.0 3052.66666667  505.666666667 3031 422.333333333 3031"/>
    

      <polygon fill="#666" points="426.5 2536, 501.5 2536,  576.5 2556, 576.5 2576,    501.5 2596,  426.5, 2596,      351.5 2576,   351.5 2556" />
    

      <polygon fill="black" points="426.5 2544, 501.5 2544,  576.5 2564, 576.5 2584,    501.5 2604,  426.5, 2604,      351.5 2584,   351.5 2564" />
    

    <rect id="level1" x="426.5" y="2493" width="75.0" height="43" fill="none" stroke="#666" stroke-width="4px"></rect>

    <polygon fill="none" stroke="#666" stroke-width="4" points="351.5 2556.0 351.5 2513.0   426.5 2493 501.5 2493  576.5 2513.0 576.5 2556.0  501.5 2536 426.5 2536"/>
    

      <polygon fill="#666" points="430.0 2041, 497.0 2041,  564.0 2059, 564.0 2077,    497.0 2096,  430.0, 2096,      364.0 2077,   364.0 2059" />
    

      <polygon fill="black" points="430.0 2049, 497.0 2049,  564.0 2067, 564.0 2085,    497.0 2104,  430.0, 2104,      364.0 2085,   364.0 2067" />
    

    <rect id="level1" x="430.666666667" y="1998" width="66.6666666667" height="43" fill="none" stroke="#666" stroke-width="4px"></rect>

    <polygon fill="none" stroke="#666" stroke-width="4" points="364.0 2059.33333333 364.0 2016.33333333   430.666666667 1998 497.333333333 1998  564.0 2016.33333333 564.0 2059.33333333  497.333333333 2041 430.666666667 2041"/>
    

      <polygon fill="#666" points="434.5 1546, 492.5 1546,  551.5 1562, 551.5 1579,    492.5 1596,  434.5, 1596,      376.5 1579,   376.5 1562" />
    

      <polygon fill="black" points="434.5 1554, 492.5 1554,  551.5 1570, 551.5 1587,    492.5 1604,  434.5, 1604,      376.5 1587,   376.5 1570" />
    

    <rect id="level1" x="434.833333333" y="1503" width="58.3333333333" height="43" fill="none" stroke="#666" stroke-width="4px"></rect>

    <polygon fill="none" stroke="#666" stroke-width="4" points="376.5 1562.66666667 376.5 1519.66666667   434.833333333 1503 493.166666667 1503  551.5 1519.66666667 551.5 1562.66666667  493.166666667 1546 434.833333333 1546"/>
    

      <polygon fill="#666" points="439.0 1051, 489.0 1051,  539.0 1066, 539.0 1081,    489.0 1096,  439.0, 1096,      389.0 1081,   389.0 1066" />
    

      <polygon fill="black" points="439.0 1059, 489.0 1059,  539.0 1074, 539.0 1089,    489.0 1104,  439.0, 1104,      389.0 1089,   389.0 1074" />
    

    <rect id="level1" x="439.0" y="1008" width="50.0" height="43" fill="none" stroke="#666" stroke-width="4px"></rect>

    <polygon fill="none" stroke="#666" stroke-width="4" points="389.0 1066.0 389.0 1023.0   439.0 1008 489.0 1008  539.0 1023.0 539.0 1066.0  489.0 1051 439.0 1051"/>
    

      <polygon fill="#666" points="442.5 679.75, 484.5 679.75,  526.5 692.75, 526.5 705.75,    484.5 719.75,  442.5, 719.75,      401.5 705.75,   401.5 692.75" />
    

      <polygon fill="black" points="442.5 687.75, 484.5 687.75,  526.5 700.75, 526.5 713.75,    484.5 727.75,  442.5, 727.75,      401.5 713.75,   401.5 700.75" />
    

    <rect id="level1" x="443.166666667" y="636.75" width="41.6666666667" height="43" fill="none" stroke="#666" stroke-width="4px"></rect>

    <polygon fill="none" stroke="#666" stroke-width="4" points="401.5 693.083333333 401.5 650.083333333   443.166666667 636.75 484.833333333 636.75  526.5 650.083333333 526.5 693.083333333  484.833333333 679.75 443.166666667 679.75"/>
    

      <polygon fill="black" points="519.0 4075.85, 566.5002 4418.13185,  566.5002 4766.88185, 361.4998 4766.88185,  361.4998 4418.13185, 409.0 4075.85" />
    

  </svg>
