<?xml version="1.0" encoding="UTF-8" standalone="no"?>
<!-- Created with Inkscape (http://www.inkscape.org/) -->

<svg
   xmlns:dc="http://purl.org/dc/elements/1.1/"
   xmlns:cc="http://creativecommons.org/ns#"
   xmlns:rdf="http://www.w3.org/1999/02/22-rdf-syntax-ns#"
   xmlns:svg="http://www.w3.org/2000/svg"
   xmlns="http://www.w3.org/2000/svg"
   xmlns:xlink="http://www.w3.org/1999/xlink"
   xmlns:sodipodi="http://sodipodi.sourceforge.net/DTD/sodipodi-0.dtd"
   xmlns:inkscape="http://www.inkscape.org/namespaces/inkscape"
   sodipodi:docname="tmpwindows3.svg"
   viewBox="0 0 3840 5760"
   height="5760"
   width="3840"
   inkscape:version="0.91 r13725"
   version="1.1"
   id="svg2">
  <sodipodi:namedview
     inkscape:current-layer="layer5"
     inkscape:window-maximized="1"
     inkscape:window-y="25"
     inkscape:window-x="0"
     inkscape:cy="725.39635"
     inkscape:cx="3143.5452"
     inkscape:zoom="0.44393046"
     inkscape:object-paths="true"
     inkscape:snap-intersection-paths="false"
     inkscape:snap-midpoints="false"
     inkscape:snap-bbox="true"
     showgrid="false"
     id="namedview4"
     inkscape:window-height="851"
     inkscape:window-width="1440"
     inkscape:pageshadow="2"
     inkscape:pageopacity="0"
     guidetolerance="10"
     gridtolerance="10"
     objecttolerance="10"
     borderopacity="1"
     bordercolor="#666666"
     pagecolor="#ffffff"
     inkscape:snap-global="false" />
  <metadata
     id="metadata8">
    <rdf:RDF>
      <cc:Work
         rdf:about="">
        <dc:format>image/svg+xml</dc:format>
        <dc:type
           rdf:resource="http://purl.org/dc/dcmitype/StillImage" />
        <dc:title></dc:title>
      </cc:Work>
    </rdf:RDF>
  </metadata>
  <defs
     id="defs6" />
  <g
     inkscape:groupmode="layer"
     id="layer1"
     inkscape:label="picture"
     style="display:inline">
    <image
       sodipodi:absref="/home/louie/prog/graphics/mine/wtc/View_to_One_World_Trade_Center.jpg"
       y="0"
       x="0"
       id="image10"
       xlink:href="file:///home/louie/prog/graphics/mine/wtc/View_to_One_World_Trade_Center.jpg"
       preserveAspectRatio="none"
       height="5760"
       width="3840" />
  </g>
  <g
     inkscape:groupmode="layer"
     id="layer6"
     inkscape:label="swatches"
     style="display:none">
    <rect
       style="opacity:1;fill:#5c4239;fill-opacity:1;stroke:none"
       id="rect5017"
       width="57.771175"
       height="51.352154"
       x="2787.9941"
       y="4953.3433" />
    <rect
       style="opacity:1;fill:#594036;fill-opacity:1;stroke:none"
       id="rect5019"
       width="62.050522"
       height="49.212482"
       x="2794.4131"
       y="5032.5112" />
    <rect
       style="opacity:1;fill:#4f362f;fill-opacity:1;stroke:none"
       id="rect5021"
       width="62.050522"
       height="42.793461"
       x="2792.2734"
       y="5105.2603" />
    <rect
       style="opacity:1;fill:#573e41;fill-opacity:1;stroke:none"
       id="rect5023"
       width="49.212482"
       height="57.771175"
       x="2719.5244"
       y="4949.064" />
    <rect
       style="opacity:1;fill:#4c393b;fill-opacity:1;stroke:none"
       id="rect5025"
       width="64.190201"
       height="42.793461"
       x="2708.8262"
       y="5030.3716" />
    <rect
       style="opacity:1;fill:#523c3e;fill-opacity:1;stroke:none"
       id="rect5027"
       width="59.910847"
       height="42.793686"
       x="2717.385"
       y="5107.3999" />
    <rect
       y="4953.3433"
       x="3787.9941"
       height="51.352154"
       width="57.771175"
       id="rect5057"
       style="opacity:1;fill:#382d2a;fill-opacity:1;stroke:none" />
    <rect
       y="5032.5112"
       x="3794.4131"
       height="49.212482"
       width="62.050522"
       id="rect5059"
       style="opacity:1;fill:#412e28;fill-opacity:1;stroke:none" />
    <rect
       y="5105.2603"
       x="3792.2734"
       height="42.793461"
       width="62.050522"
       id="rect5061"
       style="opacity:1;fill:#453226;fill-opacity:1;stroke:none" />
    <rect
       y="4949.064"
       x="3719.5244"
       height="57.771175"
       width="49.212482"
       id="rect5063"
       style="opacity:1;fill:#3e3029;fill-opacity:1;stroke:none" />
    <rect
       y="5030.3716"
       x="3708.8262"
       height="42.793461"
       width="64.190201"
       id="rect5065"
       style="opacity:1;fill:#3f2c27;fill-opacity:1;stroke:none" />
    <rect
       y="5107.3999"
       x="3717.385"
       height="42.793686"
       width="59.910847"
       id="rect5067"
       style="opacity:1;fill:#433025;fill-opacity:1;stroke:none" />
  </g>
  <g
     inkscape:groupmode="layer"
     id="layer4"
     inkscape:label="buildingframe"
     style="display:inline">
    <path
       style="fill:#543d39;fill-opacity:1;fill-rule:evenodd;stroke:none;stroke-width:1px;stroke-linecap:butt;stroke-linejoin:miter;stroke-opacity:1"
       d="m 2859.6731,4689.0936 18.1872,924.3388 806.1219,0 -5.1777,-132.955 -18.1558,-781.831 z"
       id="path5010"
       inkscape:connector-curvature="0"
       sodipodi:nodetypes="cccccc" />
  </g>
  <g
     inkscape:groupmode="layer"
     id="layer5"
     inkscape:label="buildingframe2"
     style="display:inline;opacity:1">
    <path
       style="fill:#402f28;fill-opacity:1;fill-rule:evenodd;stroke:none;stroke-width:1px;stroke-linecap:butt;stroke-linejoin:miter;stroke-opacity:1"
       d="m 3644.7625,4728.1494 22.6946,741.3589 -777.6703,-3.0259 -10.5909,-754.9757 z"
       id="path5013"
       inkscape:connector-curvature="0" />
  </g>
  <g
     inkscape:groupmode="layer"
     id="layer2"
     inkscape:label="windowlines"
     style="display:none">
    <rect
       style="opacity:1;fill:#ff5555;fill-opacity:1;stroke:none"
       id="rect4146"
       width="703.98914"
       height="2.8895013"
       x="2915.6433"
       y="4519.8374"
       transform="matrix(0.99988903,0.01489694,0,1,0,0)" />
    <g
       id="g4317"
       transform="translate(0,20)">
      <rect
         transform="matrix(0.99988903,0.01489694,0,1,0,0)"
         y="3859.8374"
         x="2915.6433"
         height="2.8895013"
         width="703.98914"
         id="rect4152"
         style="opacity:1;fill:#00ff00;fill-opacity:1;stroke:none" />
      <rect
         style="opacity:1;fill:#00ff00;fill-opacity:1;stroke:none"
         id="rect4154"
         width="706.39398"
         height="2.8895013"
         x="2926.5613"
         y="4552.2925"
         transform="matrix(0.99999705,-0.00242939,0,1,0,0)" />
    </g>
  </g>
  <g
     inkscape:groupmode="layer"
     id="layer3"
     inkscape:label="windows"
     style="display:inline">
    <g
       id="g4968">
      <path
         inkscape:connector-curvature="0"
         style="opacity:1;fill:#765546;fill-opacity:1;stroke:none"
         d="m 2883.3238,4763.2716 767.903,10.4872 0,2.8895 -767.903,-10.4872 z"
         id="rect4142" />
      <path
         inkscape:connector-curvature="0"
         style="opacity:1;fill:#765546;fill-opacity:1;stroke:none"
         d="m 2894.4441,5405.1827 770.609,-1.7161 0,2.8895 -770.609,1.7161 z"
         id="rect4148" />
      <g
         id="g4960">
        <path
           id="path4531"
           style="opacity:1;fill:#765546;fill-opacity:1;stroke:none"
           d="m 2888.4562,5059.5383 c 0,0 767.6773,4.8582 769.1474,4.8549 0,0 0,0 0,0.01 0,0.1018 0,2.8839 0,2.8839 0,0 -767.6773,-4.8582 -769.1474,-4.8549 0,0 0,0 0,-0.01 0,-0.1018 0,-2.8838 0,-2.8838"
           inkscape:connector-curvature="0" />
        <path
           id="path4533"
           style="opacity:1;fill:#765546;fill-opacity:1;stroke:none"
           d="m 2887.6008,5010.1605 c 0,0 767.715,5.7963 768.94,5.7936 0,0 0,0 0,0.01 0,0.1164 0,2.8831 0,2.8831 0,0 -767.7149,-5.7964 -768.9399,-5.7936 0,0 0,0 0,-0.01 0,-0.1163 0,-2.883 0,-2.883"
           inkscape:connector-curvature="0" />
        <path
           id="path4535"
           style="opacity:1;fill:#765546;fill-opacity:1;stroke:none"
           d="m 2886.7454,4960.7827 c 0,0 767.7526,6.7345 768.7326,6.7324 0,-10e-5 0,0 0,0.01 0,0.1309 0,2.8822 0,2.8822 0,0 -767.7525,-6.7345 -768.7325,-6.7323 0,0 0,0 0,-0.01 0,-0.131 0,-2.8823 0,-2.8823"
           inkscape:connector-curvature="0" />
        <path
           id="path4537"
           style="opacity:1;fill:#765546;fill-opacity:1;stroke:none"
           d="m 2885.89,4911.4049 c 0,0 767.7902,7.6727 768.5252,7.6711 0,0 0,0 0,0.01 0,0.1455 0,2.8815 0,2.8815 0,0 -767.7902,-7.6727 -768.5252,-7.6711 0,0 0,0 0,-0.01 0,-0.1455 0,-2.8815 0,-2.8815"
           inkscape:connector-curvature="0" />
        <path
           id="path4539"
           style="opacity:1;fill:#765546;fill-opacity:1;stroke:none"
           d="m 2885.0346,4862.0272 c 0,0 767.8278,8.6108 768.3178,8.6097 10e-4,0 0,0 0,0.01 0,0.16 0,2.8806 0,2.8806 0,0 -767.8277,-8.6108 -768.3178,-8.6097 -10e-4,0 0,0 0,-0.01 0,-0.16 0,-2.8806 0,-2.8806"
           inkscape:connector-curvature="0" />
        <path
           id="path4541"
           style="opacity:1;fill:#765546;fill-opacity:1;stroke:none"
           d="m 2884.1792,4812.6494 c 0,0 767.8654,9.549 768.1104,9.5485 5e-4,0 8e-4,0 8e-4,0.01 0,0.1746 0,2.8799 0,2.8799 0,0 -767.8654,-9.5491 -768.1104,-9.5485 -5e-4,0 -8e-4,0 -8e-4,-0.01 0,-0.1746 0,-2.8798 0,-2.8798"
           inkscape:connector-curvature="0" />
      </g>
      <g
         style="fill:#765546;fill-opacity:1"
         id="g4906">
        <path
           d="m 2893.4461,5347.5753 c 0,0 767.6144,-0.6148 770.3581,-0.6209 0,0 0.01,0 0.01,0 0,0 0,2e-4 0,5e-4 0,0.054 0,2.8881 0,2.8881 0,0 -10e-5,0 -4e-4,0 -0.6253,0 -767.6164,0.6148 -770.3577,0.6209 0,0 -0.01,0 -0.01,0 0,0 0,-2e-4 0,-5e-4 0,-0.054 0,-2.8881 0,-2.8881"
           style="opacity:1;fill:#765546;fill-opacity:1;stroke:none"
           id="path4908"
           inkscape:connector-curvature="0" />
        <path
           d="m 2892.4481,5289.9679 c 0,0 767.627,0.4798 770.116,0.4742 0,0 0.01,0 0.01,0 0,0 0,1e-4 0,3e-4 0,0.064 0,2.8873 0,2.8873 0,0 -10e-5,0 -3e-4,0 -0.5003,0 -767.6286,-0.4798 -770.1156,-0.4742 0,0 -0.01,0 -0.01,0 0,0 0,-10e-5 0,-3e-4 0,-0.064 0,-2.8873 0,-2.8873"
           style="opacity:1;fill:#765546;fill-opacity:1;stroke:none"
           id="path4910"
           inkscape:connector-curvature="0" />
        <path
           d="m 2891.4502,5232.3605 c 0,0 767.6395,1.5744 769.8737,1.5694 0,0 0,0 0,0.01 0,0 0,10e-5 0,3e-4 0,0.073 0,2.8864 0,2.8864 0,0 0,0 -2e-4,0 -0.3752,8e-4 -767.6407,-1.5744 -769.8736,-1.5694 0,0 0,0 0,-0.01 0,0 0,-1e-4 0,-3e-4 0,-0.073 0,-2.8864 0,-2.8864"
           style="opacity:1;fill:#765546;fill-opacity:1;stroke:none"
           id="path4912"
           inkscape:connector-curvature="0" />
        <path
           d="m 2890.4522,5174.7531 c 0,0 767.6521,2.669 769.6316,2.6646 0,0 0,0 0,0.01 0,0 0,1e-4 0,2e-4 0,0.083 0,2.8856 0,2.8856 0,0 -10e-5,0 -2e-4,0 -0.2501,6e-4 -767.6529,-2.669 -769.6315,-2.6646 0,0 0,0 0,-0.01 0,0 0,-1e-4 0,-2e-4 0,-0.083 0,-2.8855 0,-2.8855"
           style="opacity:1;fill:#765546;fill-opacity:1;stroke:none"
           id="path4914"
           inkscape:connector-curvature="0" />
        <path
           d="m 2889.4542,5117.1457 c 0,0 767.6647,3.7636 769.3895,3.7597 0,0 0,0 0,0.01 0,0 0,0 0,1e-4 0,0.092 0,2.8847 0,2.8847 0,0 0,0 -10e-5,0 -0.1251,3e-4 -767.6651,-3.7636 -769.3895,-3.7597 -9e-4,0 0,0 0,-0.01 0,0 0,0 0,-1e-4 0,-0.092 0,-2.8846 0,-2.8846"
           style="opacity:1;fill:#765546;fill-opacity:1;stroke:none"
           id="path4916"
           inkscape:connector-curvature="0" />
      </g>
    </g>
  </g>
</svg>
