<?xml version="1.0" encoding="UTF-8" standalone="no"?>
<!-- Created with Inkscape (http://www.inkscape.org/) -->

<svg
   xmlns:dc="http://purl.org/dc/elements/1.1/"
   xmlns:cc="http://creativecommons.org/ns#"
   xmlns:rdf="http://www.w3.org/1999/02/22-rdf-syntax-ns#"
   xmlns:svg="http://www.w3.org/2000/svg"
   xmlns="http://www.w3.org/2000/svg"
   xmlns:xlink="http://www.w3.org/1999/xlink"
   xmlns:sodipodi="http://sodipodi.sourceforge.net/DTD/sodipodi-0.dtd"
   xmlns:inkscape="http://www.inkscape.org/namespaces/inkscape"
   sodipodi:docname="tmpwindows2.svg"
   viewBox="0 0 3840 5760"
   height="5760"
   width="3840"
   inkscape:version="0.91 r13725"
   version="1.1"
   id="svg2">
  <sodipodi:namedview
     inkscape:current-layer="svg2"
     inkscape:window-maximized="1"
     inkscape:window-y="25"
     inkscape:window-x="0"
     inkscape:cy="705.90426"
     inkscape:cx="3151.5294"
     inkscape:zoom="0.46736111"
     inkscape:object-paths="true"
     inkscape:snap-intersection-paths="false"
     inkscape:snap-midpoints="false"
     inkscape:snap-bbox="true"
     showgrid="false"
     id="namedview4"
     inkscape:window-height="851"
     inkscape:window-width="1440"
     inkscape:pageshadow="2"
     inkscape:pageopacity="0"
     guidetolerance="10"
     gridtolerance="10"
     objecttolerance="10"
     borderopacity="1"
     bordercolor="#666666"
     pagecolor="#ffffff" />
  <metadata
     id="metadata8">
    <rdf:RDF>
      <cc:Work
         rdf:about="">
        <dc:format>image/svg+xml</dc:format>
        <dc:type
           rdf:resource="http://purl.org/dc/dcmitype/StillImage" />
        <dc:title></dc:title>
      </cc:Work>
    </rdf:RDF>
  </metadata>
  <defs
     id="defs6" />
  <image
     sodipodi:absref="/home/louie/prog/graphics/mine/wtc/View_to_One_World_Trade_Center.jpg"
     y="0"
     x="0"
     id="image10"
     xlink:href="file:///home/louie/prog/graphics/mine/wtc/View_to_One_World_Trade_Center.jpg"
     preserveAspectRatio="none"
     height="5760"
     width="3840" />
  <path
     id="rect4142"
     d="m 2883.3238,4763.2716 767.903,10.4872 0,2.8895 -767.903,-10.4872 z"
     style="opacity:1;fill:#00ff00;fill-opacity:1;stroke:none"
     inkscape:connector-curvature="0" />
  <rect
     style="opacity:1;fill:#ff5555;fill-opacity:1;stroke:none"
     id="rect4146"
     width="703.98914"
     height="2.8895013"
     x="2915.6433"
     y="4519.8374"
     transform="matrix(0.99988903,0.01489694,0,1,0,0)" />
  <path
     id="rect4148"
     d="m 2894.4441,5405.1827 770.609,-1.7161 0,2.8895 -770.609,1.7161 z"
     style="opacity:1;fill:#00ff00;fill-opacity:1;stroke:none"
     inkscape:connector-curvature="0" />
  <g
     id="g4317"
     transform="translate(0,20)">
    <rect
       transform="matrix(0.99988903,0.01489694,0,1,0,0)"
       y="3859.8374"
       x="2915.6433"
       height="2.8895013"
       width="703.98914"
       id="rect4152"
       style="opacity:1;fill:#00ff00;fill-opacity:1;stroke:none" />
    <rect
       style="opacity:1;fill:#00ff00;fill-opacity:1;stroke:none"
       id="rect4154"
       width="706.39398"
       height="2.8895013"
       x="2926.5613"
       y="4552.2925"
       transform="matrix(0.99999705,-0.00242939,0,1,0,0)" />
  </g>
  <g
     id="g4241"
     style="fill:#0000ff">
    <path
       id="path4243"
       style="opacity:1;stroke:none;fill-opacity:1;fill:#0000ff"
       d="M2920.93620885 5084.22715227C2920.93620885 5084.22715227 3624.53723063 5088.6165073 3626.08254792 5088.61275311C3626.08595087 5088.61274485 3626.08765609 5088.61452636 3626.08765609 5088.61797212C3626.08765609 5088.71253903 3626.08765609 5091.5022407 3626.08765609 5091.5022407C3626.08765609 5091.5022407 3626.08757188 5091.50224091 3626.08740354 5091.50224132C3625.7435795 5091.5030766 2922.48512225 5087.11288935 2920.94131204 5087.11663987C2920.93791241 5087.11664813 2920.93620885 5087.11486662 2920.93620885 5087.11142086C2920.93620885 5087.01685394 2920.93620885 5084.22715227 2920.93620885 5084.22715227" />
  </g>
  <path
     id="path4531"
     style="opacity:1;fill:#ff00ff;fill-opacity:1;stroke:none"
     d="m 2888.4562,5059.5383 c 0,0 767.6773,4.8582 769.1474,4.8549 0,0 0,0 0,0.01 0,0.1018 0,2.8839 0,2.8839 0,0 -767.6773,-4.8582 -769.1474,-4.8549 0,0 0,0 0,-0.01 0,-0.1018 0,-2.8838 0,-2.8838"
     inkscape:connector-curvature="0" />
  <path
     id="path4533"
     style="opacity:1;fill:#ff00ff;fill-opacity:1;stroke:none"
     d="m 2887.6008,5010.1605 c 0,0 767.715,5.7963 768.94,5.7936 0,0 0,0 0,0.01 0,0.1164 0,2.8831 0,2.8831 0,0 -767.7149,-5.7964 -768.9399,-5.7936 0,0 0,0 0,-0.01 0,-0.1163 0,-2.883 0,-2.883"
     inkscape:connector-curvature="0" />
  <path
     id="path4535"
     style="opacity:1;fill:#ff00ff;fill-opacity:1;stroke:none"
     d="m 2886.7454,4960.7827 c 0,0 767.7526,6.7345 768.7326,6.7324 0,-10e-5 0,0 0,0.01 0,0.1309 0,2.8822 0,2.8822 0,0 -767.7525,-6.7345 -768.7325,-6.7323 0,0 0,0 0,-0.01 0,-0.131 0,-2.8823 0,-2.8823"
     inkscape:connector-curvature="0" />
  <path
     id="path4537"
     style="opacity:1;fill:#ff00ff;fill-opacity:1;stroke:none"
     d="m 2885.89,4911.4049 c 0,0 767.7902,7.6727 768.5252,7.6711 0,0 0,0 0,0.01 0,0.1455 0,2.8815 0,2.8815 0,0 -767.7902,-7.6727 -768.5252,-7.6711 0,0 0,0 0,-0.01 0,-0.1455 0,-2.8815 0,-2.8815"
     inkscape:connector-curvature="0" />
  <path
     id="path4539"
     style="opacity:1;fill:#ff00ff;fill-opacity:1;stroke:none"
     d="m 2885.0346,4862.0272 c 0,0 767.8278,8.6108 768.3178,8.6097 10e-4,0 0,0 0,0.01 0,0.16 0,2.8806 0,2.8806 0,0 -767.8277,-8.6108 -768.3178,-8.6097 -10e-4,0 0,0 0,-0.01 0,-0.16 0,-2.8806 0,-2.8806"
     inkscape:connector-curvature="0" />
  <path
     id="path4541"
     style="opacity:1;fill:#ff00ff;fill-opacity:1;stroke:none"
     d="m 2884.1792,4812.6494 c 0,0 767.8654,9.549 768.1104,9.5485 5e-4,0 8e-4,0 8e-4,0.01 0,0.1746 0,2.8799 0,2.8799 0,0 -767.8654,-9.5491 -768.1104,-9.5485 -5e-4,0 -8e-4,0 -8e-4,-0.01 0,-0.1746 0,-2.8798 0,-2.8798"
     inkscape:connector-curvature="0" />
  <g
     id="g4906"
     style="fill:#000080">
    <path
       id="path4908"
       style="opacity:1;stroke:none;fill-opacity:1;fill:#000080"
       d="M2893.44611667 5347.5753C2893.44611667 5347.5753 3661.06045686 5346.96049747 3663.80417714 5346.95438301C3663.80906697 5346.95437212 3663.81151667 5346.95436667 3663.81151667 5346.95603333C3663.81151667 5346.95603333 3663.81151667 5346.9561803 3663.81151667 5346.95647194C3663.81151667 5347.01047673 3663.81151667 5349.8446 3663.81151667 5349.8446C3663.81151667 5349.8446 3663.81136356 5349.84460034 3663.8110575 5349.84460102C3663.18577022 5349.8459935 2896.19473215 5350.45940797 2893.45344904 5350.465517C2893.44856398 5350.46552788 2893.44611667 5350.46553333 2893.44611667 5350.46386667C2893.44611667 5350.46386667 2893.44611667 5350.4637197 2893.44611667 5350.46342806C2893.44611667 5350.40942327 2893.44611667 5347.57531667 2893.44611667 5347.57531667" />
    <path
       id="path4910"
       style="opacity:1;stroke:none;fill-opacity:1;fill:#000080"
       d="M2892.44813333 5289.9679C2892.44813333 5289.9679 3660.07506549 5290.44769798 3662.56406171 5290.44214641C3662.56797357 5290.4421377 3662.56993333 5290.44213333 3662.56993333 5290.44546667C3662.56993333 5290.44546667 3662.56993333 5290.44558424 3662.56993333 5290.44581755C3662.56993333 5290.50938138 3662.56993333 5293.3331 3662.56993333 5293.3331C3662.56993333 5293.3331 3662.56981085 5293.33310027 3662.569566 5293.33310082C3662.06933617 5293.3342148 2894.94104572 5292.85330638 2892.45399923 5292.8588536C2892.45009118 5292.85886231 2892.44813333 5292.85886667 2892.44813333 5292.85553333C2892.44813333 5292.85553333 2892.44813333 5292.85541576 2892.44813333 5292.85518245C2892.44813333 5292.79161862 2892.44813333 5289.96793333 2892.44813333 5289.96793333" />
    <path
       id="path4912"
       style="opacity:1;stroke:none;fill-opacity:1;fill:#000080"
       d="M2891.45015 5232.3605C2891.45015 5232.3605 3659.08967412 5233.93489848 3661.32394628 5233.92990981C3661.32688018 5233.92990327 3661.32835 5233.9299 3661.32835 5233.9349C3661.32835 5233.9349 3661.32835 5233.93498818 3661.32835 5233.93516316C3661.32835 5234.00828604 3661.32835 5236.8216 3661.32835 5236.8216C3661.32835 5236.8216 3661.32825814 5236.8216002 3661.3280745 5236.82160061C3660.95290213 5236.8224361 2893.68735929 5235.24720478 2891.45454942 5235.2521902C2891.45161839 5235.25219673 2891.45015 5235.2522 2891.45015 5235.2472C2891.45015 5235.2472 2891.45015 5235.24711182 2891.45015 5235.24693684C2891.45015 5235.17381396 2891.45015 5232.36055 2891.45015 5232.36055" />
    <path
       id="path4914"
       style="opacity:1;stroke:none;fill-opacity:1;fill:#000080"
       d="M2890.45216667 5174.7531C2890.45216667 5174.7531 3658.10428274 5177.42209899 3660.08383085 5177.4176732C3660.08578679 5177.41766885 3660.08676667 5177.41766667 3660.08676667 5177.42433333C3660.08676667 5177.42433333 3660.08676667 5177.42439212 3660.08676667 5177.42450878C3660.08676667 5177.50719069 3660.08676667 5180.3101 3660.08676667 5180.3101C3660.08676667 5180.3101 3660.08670542 5180.31010014 3660.086583 5180.31010041C3659.83646809 5180.3106574 2892.43367286 5177.64110319 2890.45509961 5177.6455268C2890.45314559 5177.64553115 2890.45216667 5177.64553333 2890.45216667 5177.63886667C2890.45216667 5177.63886667 2890.45216667 5177.63880788 2890.45216667 5177.63869122C2890.45216667 5177.55600931 2890.45216667 5174.75316667 2890.45216667 5174.75316667" />
    <path
       id="path4916"
       style="opacity:1;stroke:none;fill-opacity:1;fill:#000080"
       d="M2889.45418333 5117.1457C2889.45418333 5117.1457 3657.11889137 5120.90929949 3658.84371543 5120.9054366C3658.84469339 5120.90543442 3658.84518333 5120.90543333 3658.84518333 5120.91376667C3658.84518333 5120.91376667 3658.84518333 5120.91379606 3658.84518333 5120.91385439C3658.84518333 5121.00609535 3658.84518333 5123.7986 3658.84518333 5123.7986C3658.84518333 5123.7986 3658.84515271 5123.79860007 3658.8450915 5123.7986002C3658.72003404 5123.7988787 2891.17998643 5120.03500159 2889.45564981 5120.0388634C2889.4546728 5120.03886558 2889.45418333 5120.03886667 2889.45418333 5120.03053333C2889.45418333 5120.03053333 2889.45418333 5120.03050394 2889.45418333 5120.03044561C2889.45418333 5119.93820465 2889.45418333 5117.14578333 2889.45418333 5117.14578333" />
  </g>
</svg>
