<?xml version="1.0" encoding="UTF-8" standalone="no"?>
<!-- Created with Inkscape (http://www.inkscape.org/) -->

<svg
   xmlns:dc="http://purl.org/dc/elements/1.1/"
   xmlns:cc="http://creativecommons.org/ns#"
   xmlns:rdf="http://www.w3.org/1999/02/22-rdf-syntax-ns#"
   xmlns:svg="http://www.w3.org/2000/svg"
   xmlns="http://www.w3.org/2000/svg"
   xmlns:sodipodi="http://sodipodi.sourceforge.net/DTD/sodipodi-0.dtd"
   xmlns:inkscape="http://www.inkscape.org/namespaces/inkscape"
   width="476"
   height="476"
   viewBox="0 0 476 476.00001"
   id="svg2"
   version="1.1"
   inkscape:version="0.91 r13725"
   style="enable-background:new"
   sodipodi:docname="windows.svg">
  <defs
     id="defs4">
    <filter
       inkscape:collect="always"
       style="color-interpolation-filters:sRGB"
       id="filter4144">
      <feBlend
         inkscape:collect="always"
         mode="darken"
         in2="BackgroundImage"
         id="feBlend4146" />
    </filter>
    <inkscape:path-effect
       effect="construct_grid"
       id="path-effect8094"
       is_visible="true"
       nr_x="10"
       nr_y="24" />
  </defs>
  <sodipodi:namedview
     id="base"
     pagecolor="#ffffff"
     bordercolor="#666666"
     borderopacity="1.0"
     inkscape:pageopacity="0.0"
     inkscape:pageshadow="2"
     inkscape:zoom="1"
     inkscape:cx="20.2815"
     inkscape:cy="238"
     inkscape:document-units="px"
     inkscape:current-layer="layer1"
     showgrid="false"
     units="px"
     fit-margin-top="0"
     fit-margin-left="0"
     fit-margin-right="0"
     fit-margin-bottom="0"
     inkscape:window-width="1440"
     inkscape:window-height="851"
     inkscape:window-x="0"
     inkscape:window-y="25"
     inkscape:window-maximized="1" />
  <metadata
     id="metadata7">
    <rdf:RDF>
      <cc:Work
         rdf:about="">
        <dc:format>image/svg+xml</dc:format>
        <dc:type
           rdf:resource="http://purl.org/dc/dcmitype/StillImage" />
        <dc:title></dc:title>
      </cc:Work>
    </rdf:RDF>
  </metadata>
  <g
     inkscape:label="Layer 1"
     inkscape:groupmode="layer"
     id="layer1"
     style="filter:url(#filter4144)"
     transform="translate(27.5,-617.86218)">
    <path
       style="color:#000000;clip-rule:nonzero;display:inline;overflow:visible;visibility:visible;opacity:0.78800001;isolation:auto;mix-blend-mode:normal;color-interpolation:sRGB;color-interpolation-filters:linearRGB;solid-color:#000000;solid-opacity:1;fill:#ffffff;fill-opacity:1;fill-rule:nonzero;stroke:#000000;stroke-width:1;stroke-linecap:butt;stroke-linejoin:miter;stroke-miterlimit:4;stroke-dasharray:none;stroke-dashoffset:0;stroke-opacity:1;color-rendering:auto;image-rendering:auto;shape-rendering:auto;text-rendering:auto;enable-background:accumulate"
       inkscape:transform-center-x="-6.363529"
       inkscape:transform-center-y="19.685101"
       d="m 334.326,628.14026 -313.788,31.5768 m 313.4016,9.0099 -313.788,31.5768 m 313.4016,9.0099 -313.788,31.5768 m 313.4016,9.0099 -313.788,31.5768 m 313.4016,9.0099 -313.788,31.5768 m 313.4016,9.0099 -313.788,31.5768 m 313.4016,9.0099 -313.788,31.5768 m 313.4016,9.0099 -313.788,31.5768 m 313.4016,9.0099 -313.788,31.5768 m 313.4016,9.0099 -313.788,31.57684 m 313.4016,9.0099 -313.788,31.5768 m 317.652,-437.44384 -3.864,405.86704 m -9.2105,-404.55134 -3.864,405.86704 m -9.2105,-404.55134 -3.864,405.86704 m -9.2105,-404.55134 -3.864,405.86704 m -9.2105,-404.55134 -3.864,405.86704 m -9.2105,-404.55134 -3.864,405.86704 m -9.2105,-404.55134 -3.864,405.86704 m -9.2105,-404.55134 -3.864,405.86704 M 229.73,638.66586 225.866,1044.5329 m -9.2105,-404.55134 -3.864,405.86704 m -9.2105,-404.55134 -3.864,405.86704 m -9.2105,-404.55134 -3.864,405.86704 m -9.2105,-404.55134 -3.864,405.86704 m -9.2105,-404.55134 -3.864,405.86704 m -9.2105,-404.55134 -3.864,405.86704 m -9.2105,-404.55134 -3.864,405.86704 M 125.134,649.19146 121.27,1055.0585 m -9.2105,-404.55134 -3.864,405.86704 M 98.985,651.82286 95.121,1057.6899 M 85.9105,653.13856 82.0465,1059.0056 M 72.836,654.45426 68.972,1060.3213 M 59.7615,655.76996 55.8975,1061.637 M 46.687,657.08566 42.823,1062.9527 M 33.6125,658.40136 29.7485,1064.2684 M 20.538,659.71706 16.674,1065.5841"
       id="rect8091"
       inkscape:path-effect="#path-effect8094"
       inkscape:original-d="m 321.2515,629.45596 13.0745,-1.3157 -0.3864,40.5867 -13.0745,1.3155 z"
       inkscape:connector-curvature="0" />
  </g>
</svg>
