<?xml version="1.0" encoding="UTF-8" standalone="no"?>
<!-- Created with Inkscape (http://www.inkscape.org/) -->

<svg
   xmlns:dc="http://purl.org/dc/elements/1.1/"
   xmlns:cc="http://creativecommons.org/ns#"
   xmlns:rdf="http://www.w3.org/1999/02/22-rdf-syntax-ns#"
   xmlns:svg="http://www.w3.org/2000/svg"
   xmlns="http://www.w3.org/2000/svg"
   xmlns:xlink="http://www.w3.org/1999/xlink"
   xmlns:sodipodi="http://sodipodi.sourceforge.net/DTD/sodipodi-0.dtd"
   xmlns:inkscape="http://www.inkscape.org/namespaces/inkscape"
   id="svg2"
   version="1.1"
   inkscape:version="0.91 r13725"
   width="3840"
   height="5760"
   viewBox="0 0 3840 5760"
   sodipodi:docname="windowsfront01.svg">
  <metadata
     id="metadata8">
    <rdf:RDF>
      <cc:Work
         rdf:about="">
        <dc:format>image/svg+xml</dc:format>
        <dc:type
           rdf:resource="http://purl.org/dc/dcmitype/StillImage" />
        <dc:title></dc:title>
      </cc:Work>
    </rdf:RDF>
  </metadata>
  <defs
     id="defs6" />
  <sodipodi:namedview
     pagecolor="#ffffff"
     bordercolor="#666666"
     borderopacity="1"
     objecttolerance="10"
     gridtolerance="10"
     guidetolerance="10"
     inkscape:pageopacity="0"
     inkscape:pageshadow="2"
     inkscape:window-width="1440"
     inkscape:window-height="851"
     id="namedview4"
     showgrid="false"
     inkscape:snap-bbox="true"
     inkscape:object-paths="true"
     inkscape:snap-intersection-paths="true"
     inkscape:object-nodes="true"
     inkscape:snap-smooth-nodes="true"
     inkscape:snap-global="false"
     inkscape:zoom="0.058420139"
     inkscape:cx="-1798.3392"
     inkscape:cy="-1840.805"
     inkscape:window-x="0"
     inkscape:window-y="25"
     inkscape:window-maximized="1"
     inkscape:current-layer="svg2" />
  <image
     width="3840"
     height="5760"
     preserveAspectRatio="none"
     xlink:href="file:///home/louie/prog/graphics/mine/wtc/View_to_One_World_Trade_Center.jpg"
     id="image10"
     x="0"
     y="0"
     sodipodi:absref="/home/louie/prog/graphics/mine/wtc/View_to_One_World_Trade_Center.jpg" />
  <rect
     style="opacity:0.647;fill:#00ff00;fill-opacity:1;stroke:none"
     id="rect4142"
     width="704.27698"
     height="2.9999983"
     x="2920.9209"
     y="5063.0503" />
  <rect
     y="-3276.3252"
     x="4766.0688"
     height="2.9999998"
     width="637.909"
     id="rect4152"
     style="opacity:0.647;fill:#00ff00;fill-opacity:1;stroke:none"
     transform="matrix(0,1,-1,0,0,0)" />
  <rect
     style="opacity:0.647;fill:#00ff00;fill-opacity:1;stroke:none"
     id="rect4172"
     width="704.27698"
     height="637.909"
     x="72.120071"
     y="6089.2793" />
  <text
     xml:space="preserve"
     style="font-style:normal;font-weight:normal;font-size:40px;line-height:125%;font-family:sans-serif;letter-spacing:0px;word-spacing:0px;fill:#000000;fill-opacity:1;stroke:none;stroke-width:1px;stroke-linecap:butt;stroke-linejoin:miter;stroke-opacity:1"
     x="111.26299"
     y="6059.5542"
     id="text4182"
     sodipodi:linespacing="125%"><tspan
       sodipodi:role="line"
       x="111.26299"
       y="6059.5542"
       id="tspan4190">22 by 12 windows </tspan><tspan
       sodipodi:role="line"
       x="111.26299"
       y="6109.5542"
       id="tspan4186" /></text>
  <g
     id="g4365"
     inkscape:tile-cx="432.81725"
     inkscape:tile-cy="7246.9857"
     inkscape:tile-w="704.27698"
     inkscape:tile-h="637.909"
     inkscape:tile-x0="80.678764"
     inkscape:tile-y0="6928.0312">
    <rect
       style="opacity:1;fill:#916f6f;fill-opacity:1;stroke:none"
       id="rect4180"
       width="704.27698"
       height="637.909"
       x="80.678764"
       y="6928.0312" />
    <path
       inkscape:connector-curvature="0"
       id="rect4218"
       d="m 100.67969,7545.9395 c 221.42513,0 442.85026,0 664.27539,0 0,-199.3028 0,-398.6055 0,-597.9083 -221.42513,0 -442.85026,10e-5 -664.27539,0 0,199.3028 0,398.6055 0,597.9083 z"
       style="opacity:1;fill:#e9afaf;fill-opacity:1;stroke:none" />
    <path
       inkscape:connector-curvature="0"
       id="path4252"
       d="m 110.67969,7535.9395 c 214.75846,0 429.51692,0 644.27539,0 0,-192.6361 0,-385.2722 0,-577.9083 -214.75847,0 -429.51693,10e-5 -644.27539,0 0,192.6361 0,385.2722 0,577.9083 z"
       style="opacity:1;fill:#916f6f;fill-opacity:1;stroke:none" />
    <path
       inkscape:connector-curvature="0"
       id="path4264"
       d="m 130.67969,7515.9395 c 201.42513,0 402.85026,0 604.27539,0 0,-179.3028 0,-358.6055 0,-537.9083 -201.42513,10e-5 -402.85026,0 -604.27539,0 0,179.3028 0,358.6055 0,537.9083 z"
       style="opacity:1;fill:#36292f;fill-opacity:1;stroke:none" />
    <path
       inkscape:connector-curvature="0"
       id="path4292"
       d="m 170.67969,7475.9395 c 174.75846,0 349.51692,0 524.27539,0 0,-152.6361 0,-305.2722 0,-457.9083 -174.75847,10e-5 -349.51693,0 -524.27539,0 0,152.6361 0,305.2722 0,457.9083 z"
       style="opacity:1;fill:#ffb380;fill-opacity:1;stroke:none" />
  </g>
  <use
     x="0"
     y="0"
     inkscape:tiled-clone-of="#g4365"
     xlink:href="#g4365"
     transform="translate(0,637.909)"
     id="use4374" />
  <use
     x="0"
     y="0"
     inkscape:tiled-clone-of="#g4365"
     xlink:href="#g4365"
     transform="translate(0,1275.818)"
     id="use4376" />
  <use
     x="0"
     y="0"
     inkscape:tiled-clone-of="#g4365"
     xlink:href="#g4365"
     transform="translate(0,1913.727)"
     id="use4378" />
  <use
     x="0"
     y="0"
     inkscape:tiled-clone-of="#g4365"
     xlink:href="#g4365"
     transform="translate(0,2551.636)"
     id="use4380" />
  <use
     x="0"
     y="0"
     inkscape:tiled-clone-of="#g4365"
     xlink:href="#g4365"
     transform="translate(0,3189.545)"
     id="use4382" />
  <use
     x="0"
     y="0"
     inkscape:tiled-clone-of="#g4365"
     xlink:href="#g4365"
     transform="translate(0,3827.454)"
     id="use4384" />
  <use
     x="0"
     y="0"
     inkscape:tiled-clone-of="#g4365"
     xlink:href="#g4365"
     transform="translate(0,4465.363)"
     id="use4386" />
  <use
     x="0"
     y="0"
     inkscape:tiled-clone-of="#g4365"
     xlink:href="#g4365"
     transform="translate(0,5103.272)"
     id="use4388" />
  <use
     x="0"
     y="0"
     inkscape:tiled-clone-of="#g4365"
     xlink:href="#g4365"
     transform="translate(0,5741.181)"
     id="use4390" />
  <use
     x="0"
     y="0"
     inkscape:tiled-clone-of="#g4365"
     xlink:href="#g4365"
     transform="translate(0,6379.09)"
     id="use4392" />
  <use
     x="0"
     y="0"
     inkscape:tiled-clone-of="#g4365"
     xlink:href="#g4365"
     transform="translate(0,7016.999)"
     id="use4394" />
  <use
     x="0"
     y="0"
     inkscape:tiled-clone-of="#g4365"
     xlink:href="#g4365"
     transform="translate(0,7654.908)"
     id="use4396" />
  <use
     x="0"
     y="0"
     inkscape:tiled-clone-of="#g4365"
     xlink:href="#g4365"
     transform="translate(0,8292.817)"
     id="use4398" />
  <use
     x="0"
     y="0"
     inkscape:tiled-clone-of="#g4365"
     xlink:href="#g4365"
     transform="translate(0,8930.726)"
     id="use4400" />
  <use
     x="0"
     y="0"
     inkscape:tiled-clone-of="#g4365"
     xlink:href="#g4365"
     transform="translate(0,9568.6349)"
     id="use4402" />
  <use
     x="0"
     y="0"
     inkscape:tiled-clone-of="#g4365"
     xlink:href="#g4365"
     transform="translate(0,10206.544)"
     id="use4404" />
  <use
     x="0"
     y="0"
     inkscape:tiled-clone-of="#g4365"
     xlink:href="#g4365"
     transform="translate(0,10844.453)"
     id="use4406" />
  <use
     x="0"
     y="0"
     inkscape:tiled-clone-of="#g4365"
     xlink:href="#g4365"
     transform="translate(0,11482.362)"
     id="use4408" />
  <use
     x="0"
     y="0"
     inkscape:tiled-clone-of="#g4365"
     xlink:href="#g4365"
     transform="translate(0,12120.271)"
     id="use4410" />
  <use
     x="0"
     y="0"
     inkscape:tiled-clone-of="#g4365"
     xlink:href="#g4365"
     transform="translate(0,12758.18)"
     id="use4412" />
  <use
     x="0"
     y="0"
     inkscape:tiled-clone-of="#g4365"
     xlink:href="#g4365"
     transform="translate(0,13396.089)"
     id="use4414" />
  <use
     x="0"
     y="0"
     inkscape:tiled-clone-of="#g4365"
     xlink:href="#g4365"
     transform="translate(704.27698,0)"
     id="use4416" />
  <use
     x="0"
     y="0"
     inkscape:tiled-clone-of="#g4365"
     xlink:href="#g4365"
     transform="translate(704.27698,637.909)"
     id="use4418" />
  <use
     x="0"
     y="0"
     inkscape:tiled-clone-of="#g4365"
     xlink:href="#g4365"
     transform="translate(704.27698,1275.818)"
     id="use4420" />
  <use
     x="0"
     y="0"
     inkscape:tiled-clone-of="#g4365"
     xlink:href="#g4365"
     transform="translate(704.27698,1913.727)"
     id="use4422" />
  <use
     x="0"
     y="0"
     inkscape:tiled-clone-of="#g4365"
     xlink:href="#g4365"
     transform="translate(704.27698,2551.636)"
     id="use4424" />
  <use
     x="0"
     y="0"
     inkscape:tiled-clone-of="#g4365"
     xlink:href="#g4365"
     transform="translate(704.27698,3189.545)"
     id="use4426" />
  <use
     x="0"
     y="0"
     inkscape:tiled-clone-of="#g4365"
     xlink:href="#g4365"
     transform="translate(704.27698,3827.454)"
     id="use4428" />
  <use
     x="0"
     y="0"
     inkscape:tiled-clone-of="#g4365"
     xlink:href="#g4365"
     transform="translate(704.27698,4465.363)"
     id="use4430" />
  <use
     x="0"
     y="0"
     inkscape:tiled-clone-of="#g4365"
     xlink:href="#g4365"
     transform="translate(704.27698,5103.272)"
     id="use4432" />
  <use
     x="0"
     y="0"
     inkscape:tiled-clone-of="#g4365"
     xlink:href="#g4365"
     transform="translate(704.27698,5741.181)"
     id="use4434" />
  <use
     x="0"
     y="0"
     inkscape:tiled-clone-of="#g4365"
     xlink:href="#g4365"
     transform="translate(704.27698,6379.09)"
     id="use4436" />
  <use
     x="0"
     y="0"
     inkscape:tiled-clone-of="#g4365"
     xlink:href="#g4365"
     transform="translate(704.27698,7016.999)"
     id="use4438" />
  <use
     x="0"
     y="0"
     inkscape:tiled-clone-of="#g4365"
     xlink:href="#g4365"
     transform="translate(704.27698,7654.908)"
     id="use4440" />
  <use
     x="0"
     y="0"
     inkscape:tiled-clone-of="#g4365"
     xlink:href="#g4365"
     transform="translate(704.27698,8292.817)"
     id="use4442" />
  <use
     x="0"
     y="0"
     inkscape:tiled-clone-of="#g4365"
     xlink:href="#g4365"
     transform="translate(704.27698,8930.726)"
     id="use4444" />
  <use
     x="0"
     y="0"
     inkscape:tiled-clone-of="#g4365"
     xlink:href="#g4365"
     transform="translate(704.27698,9568.6349)"
     id="use4446" />
  <use
     x="0"
     y="0"
     inkscape:tiled-clone-of="#g4365"
     xlink:href="#g4365"
     transform="translate(704.27698,10206.544)"
     id="use4448" />
  <use
     x="0"
     y="0"
     inkscape:tiled-clone-of="#g4365"
     xlink:href="#g4365"
     transform="translate(704.27698,10844.453)"
     id="use4450" />
  <use
     x="0"
     y="0"
     inkscape:tiled-clone-of="#g4365"
     xlink:href="#g4365"
     transform="translate(704.27698,11482.362)"
     id="use4452" />
  <use
     x="0"
     y="0"
     inkscape:tiled-clone-of="#g4365"
     xlink:href="#g4365"
     transform="translate(704.27698,12120.271)"
     id="use4454" />
  <use
     x="0"
     y="0"
     inkscape:tiled-clone-of="#g4365"
     xlink:href="#g4365"
     transform="translate(704.27698,12758.18)"
     id="use4456" />
  <use
     x="0"
     y="0"
     inkscape:tiled-clone-of="#g4365"
     xlink:href="#g4365"
     transform="translate(704.27698,13396.089)"
     id="use4458" />
  <use
     x="0"
     y="0"
     inkscape:tiled-clone-of="#g4365"
     xlink:href="#g4365"
     transform="translate(1408.554,0)"
     id="use4460" />
  <use
     x="0"
     y="0"
     inkscape:tiled-clone-of="#g4365"
     xlink:href="#g4365"
     transform="translate(1408.554,637.909)"
     id="use4462" />
  <use
     x="0"
     y="0"
     inkscape:tiled-clone-of="#g4365"
     xlink:href="#g4365"
     transform="translate(1408.554,1275.818)"
     id="use4464" />
  <use
     x="0"
     y="0"
     inkscape:tiled-clone-of="#g4365"
     xlink:href="#g4365"
     transform="translate(1408.554,1913.727)"
     id="use4466" />
  <use
     x="0"
     y="0"
     inkscape:tiled-clone-of="#g4365"
     xlink:href="#g4365"
     transform="translate(1408.554,2551.636)"
     id="use4468" />
  <use
     x="0"
     y="0"
     inkscape:tiled-clone-of="#g4365"
     xlink:href="#g4365"
     transform="translate(1408.554,3189.545)"
     id="use4470" />
  <use
     x="0"
     y="0"
     inkscape:tiled-clone-of="#g4365"
     xlink:href="#g4365"
     transform="translate(1408.554,3827.454)"
     id="use4472" />
  <use
     x="0"
     y="0"
     inkscape:tiled-clone-of="#g4365"
     xlink:href="#g4365"
     transform="translate(1408.554,4465.363)"
     id="use4474" />
  <use
     x="0"
     y="0"
     inkscape:tiled-clone-of="#g4365"
     xlink:href="#g4365"
     transform="translate(1408.554,5103.272)"
     id="use4476" />
  <use
     x="0"
     y="0"
     inkscape:tiled-clone-of="#g4365"
     xlink:href="#g4365"
     transform="translate(1408.554,5741.181)"
     id="use4478" />
  <use
     x="0"
     y="0"
     inkscape:tiled-clone-of="#g4365"
     xlink:href="#g4365"
     transform="translate(1408.554,6379.09)"
     id="use4480" />
  <use
     x="0"
     y="0"
     inkscape:tiled-clone-of="#g4365"
     xlink:href="#g4365"
     transform="translate(1408.554,7016.999)"
     id="use4482" />
  <use
     x="0"
     y="0"
     inkscape:tiled-clone-of="#g4365"
     xlink:href="#g4365"
     transform="translate(1408.554,7654.908)"
     id="use4484" />
  <use
     x="0"
     y="0"
     inkscape:tiled-clone-of="#g4365"
     xlink:href="#g4365"
     transform="translate(1408.554,8292.817)"
     id="use4486" />
  <use
     x="0"
     y="0"
     inkscape:tiled-clone-of="#g4365"
     xlink:href="#g4365"
     transform="translate(1408.554,8930.726)"
     id="use4488" />
  <use
     x="0"
     y="0"
     inkscape:tiled-clone-of="#g4365"
     xlink:href="#g4365"
     transform="translate(1408.554,9568.6349)"
     id="use4490" />
  <use
     x="0"
     y="0"
     inkscape:tiled-clone-of="#g4365"
     xlink:href="#g4365"
     transform="translate(1408.554,10206.544)"
     id="use4492" />
  <use
     x="0"
     y="0"
     inkscape:tiled-clone-of="#g4365"
     xlink:href="#g4365"
     transform="translate(1408.554,10844.453)"
     id="use4494" />
  <use
     x="0"
     y="0"
     inkscape:tiled-clone-of="#g4365"
     xlink:href="#g4365"
     transform="translate(1408.554,11482.362)"
     id="use4496" />
  <use
     x="0"
     y="0"
     inkscape:tiled-clone-of="#g4365"
     xlink:href="#g4365"
     transform="translate(1408.554,12120.271)"
     id="use4498" />
  <use
     x="0"
     y="0"
     inkscape:tiled-clone-of="#g4365"
     xlink:href="#g4365"
     transform="translate(1408.554,12758.18)"
     id="use4500" />
  <use
     x="0"
     y="0"
     inkscape:tiled-clone-of="#g4365"
     xlink:href="#g4365"
     transform="translate(1408.554,13396.089)"
     id="use4502" />
  <use
     x="0"
     y="0"
     inkscape:tiled-clone-of="#g4365"
     xlink:href="#g4365"
     transform="translate(2112.8309,0)"
     id="use4504" />
  <use
     x="0"
     y="0"
     inkscape:tiled-clone-of="#g4365"
     xlink:href="#g4365"
     transform="translate(2112.8309,637.909)"
     id="use4506" />
  <use
     x="0"
     y="0"
     inkscape:tiled-clone-of="#g4365"
     xlink:href="#g4365"
     transform="translate(2112.8309,1275.818)"
     id="use4508" />
  <use
     x="0"
     y="0"
     inkscape:tiled-clone-of="#g4365"
     xlink:href="#g4365"
     transform="translate(2112.8309,1913.727)"
     id="use4510" />
  <use
     x="0"
     y="0"
     inkscape:tiled-clone-of="#g4365"
     xlink:href="#g4365"
     transform="translate(2112.8309,2551.636)"
     id="use4512" />
  <use
     x="0"
     y="0"
     inkscape:tiled-clone-of="#g4365"
     xlink:href="#g4365"
     transform="translate(2112.8309,3189.545)"
     id="use4514" />
  <use
     x="0"
     y="0"
     inkscape:tiled-clone-of="#g4365"
     xlink:href="#g4365"
     transform="translate(2112.8309,3827.454)"
     id="use4516" />
  <use
     x="0"
     y="0"
     inkscape:tiled-clone-of="#g4365"
     xlink:href="#g4365"
     transform="translate(2112.8309,4465.363)"
     id="use4518" />
  <use
     x="0"
     y="0"
     inkscape:tiled-clone-of="#g4365"
     xlink:href="#g4365"
     transform="translate(2112.8309,5103.272)"
     id="use4520" />
  <use
     x="0"
     y="0"
     inkscape:tiled-clone-of="#g4365"
     xlink:href="#g4365"
     transform="translate(2112.8309,5741.181)"
     id="use4522" />
  <use
     x="0"
     y="0"
     inkscape:tiled-clone-of="#g4365"
     xlink:href="#g4365"
     transform="translate(2112.8309,6379.09)"
     id="use4524" />
  <use
     x="0"
     y="0"
     inkscape:tiled-clone-of="#g4365"
     xlink:href="#g4365"
     transform="translate(2112.8309,7016.999)"
     id="use4526" />
  <use
     x="0"
     y="0"
     inkscape:tiled-clone-of="#g4365"
     xlink:href="#g4365"
     transform="translate(2112.8309,7654.908)"
     id="use4528" />
  <use
     x="0"
     y="0"
     inkscape:tiled-clone-of="#g4365"
     xlink:href="#g4365"
     transform="translate(2112.8309,8292.817)"
     id="use4530" />
  <use
     x="0"
     y="0"
     inkscape:tiled-clone-of="#g4365"
     xlink:href="#g4365"
     transform="translate(2112.8309,8930.726)"
     id="use4532" />
  <use
     x="0"
     y="0"
     inkscape:tiled-clone-of="#g4365"
     xlink:href="#g4365"
     transform="translate(2112.8309,9568.6349)"
     id="use4534" />
  <use
     x="0"
     y="0"
     inkscape:tiled-clone-of="#g4365"
     xlink:href="#g4365"
     transform="translate(2112.8309,10206.544)"
     id="use4536" />
  <use
     x="0"
     y="0"
     inkscape:tiled-clone-of="#g4365"
     xlink:href="#g4365"
     transform="translate(2112.8309,10844.453)"
     id="use4538" />
  <use
     x="0"
     y="0"
     inkscape:tiled-clone-of="#g4365"
     xlink:href="#g4365"
     transform="translate(2112.8309,11482.362)"
     id="use4540" />
  <use
     x="0"
     y="0"
     inkscape:tiled-clone-of="#g4365"
     xlink:href="#g4365"
     transform="translate(2112.8309,12120.271)"
     id="use4542" />
  <use
     x="0"
     y="0"
     inkscape:tiled-clone-of="#g4365"
     xlink:href="#g4365"
     transform="translate(2112.8309,12758.18)"
     id="use4544" />
  <use
     x="0"
     y="0"
     inkscape:tiled-clone-of="#g4365"
     xlink:href="#g4365"
     transform="translate(2112.8309,13396.089)"
     id="use4546" />
  <use
     x="0"
     y="0"
     inkscape:tiled-clone-of="#g4365"
     xlink:href="#g4365"
     transform="translate(2817.1079,0)"
     id="use4548" />
  <use
     x="0"
     y="0"
     inkscape:tiled-clone-of="#g4365"
     xlink:href="#g4365"
     transform="translate(2817.1079,637.909)"
     id="use4550" />
  <use
     x="0"
     y="0"
     inkscape:tiled-clone-of="#g4365"
     xlink:href="#g4365"
     transform="translate(2817.1079,1275.818)"
     id="use4552" />
  <use
     x="0"
     y="0"
     inkscape:tiled-clone-of="#g4365"
     xlink:href="#g4365"
     transform="translate(2817.1079,1913.727)"
     id="use4554" />
  <use
     x="0"
     y="0"
     inkscape:tiled-clone-of="#g4365"
     xlink:href="#g4365"
     transform="translate(2817.1079,2551.636)"
     id="use4556" />
  <use
     x="0"
     y="0"
     inkscape:tiled-clone-of="#g4365"
     xlink:href="#g4365"
     transform="translate(2817.1079,3189.545)"
     id="use4558" />
  <use
     x="0"
     y="0"
     inkscape:tiled-clone-of="#g4365"
     xlink:href="#g4365"
     transform="translate(2817.1079,3827.454)"
     id="use4560" />
  <use
     x="0"
     y="0"
     inkscape:tiled-clone-of="#g4365"
     xlink:href="#g4365"
     transform="translate(2817.1079,4465.363)"
     id="use4562" />
  <use
     x="0"
     y="0"
     inkscape:tiled-clone-of="#g4365"
     xlink:href="#g4365"
     transform="translate(2817.1079,5103.272)"
     id="use4564" />
  <use
     x="0"
     y="0"
     inkscape:tiled-clone-of="#g4365"
     xlink:href="#g4365"
     transform="translate(2817.1079,5741.181)"
     id="use4566" />
  <use
     x="0"
     y="0"
     inkscape:tiled-clone-of="#g4365"
     xlink:href="#g4365"
     transform="translate(2817.1079,6379.09)"
     id="use4568" />
  <use
     x="0"
     y="0"
     inkscape:tiled-clone-of="#g4365"
     xlink:href="#g4365"
     transform="translate(2817.1079,7016.999)"
     id="use4570" />
  <use
     x="0"
     y="0"
     inkscape:tiled-clone-of="#g4365"
     xlink:href="#g4365"
     transform="translate(2817.1079,7654.908)"
     id="use4572" />
  <use
     x="0"
     y="0"
     inkscape:tiled-clone-of="#g4365"
     xlink:href="#g4365"
     transform="translate(2817.1079,8292.817)"
     id="use4574" />
  <use
     x="0"
     y="0"
     inkscape:tiled-clone-of="#g4365"
     xlink:href="#g4365"
     transform="translate(2817.1079,8930.726)"
     id="use4576" />
  <use
     x="0"
     y="0"
     inkscape:tiled-clone-of="#g4365"
     xlink:href="#g4365"
     transform="translate(2817.1079,9568.6349)"
     id="use4578" />
  <use
     x="0"
     y="0"
     inkscape:tiled-clone-of="#g4365"
     xlink:href="#g4365"
     transform="translate(2817.1079,10206.544)"
     id="use4580" />
  <use
     x="0"
     y="0"
     inkscape:tiled-clone-of="#g4365"
     xlink:href="#g4365"
     transform="translate(2817.1079,10844.453)"
     id="use4582" />
  <use
     x="0"
     y="0"
     inkscape:tiled-clone-of="#g4365"
     xlink:href="#g4365"
     transform="translate(2817.1079,11482.362)"
     id="use4584" />
  <use
     x="0"
     y="0"
     inkscape:tiled-clone-of="#g4365"
     xlink:href="#g4365"
     transform="translate(2817.1079,12120.271)"
     id="use4586" />
  <use
     x="0"
     y="0"
     inkscape:tiled-clone-of="#g4365"
     xlink:href="#g4365"
     transform="translate(2817.1079,12758.18)"
     id="use4588" />
  <use
     x="0"
     y="0"
     inkscape:tiled-clone-of="#g4365"
     xlink:href="#g4365"
     transform="translate(2817.1079,13396.089)"
     id="use4590" />
  <use
     x="0"
     y="0"
     inkscape:tiled-clone-of="#g4365"
     xlink:href="#g4365"
     transform="translate(3521.3849,0)"
     id="use4592" />
  <use
     x="0"
     y="0"
     inkscape:tiled-clone-of="#g4365"
     xlink:href="#g4365"
     transform="translate(3521.3849,637.909)"
     id="use4594" />
  <use
     x="0"
     y="0"
     inkscape:tiled-clone-of="#g4365"
     xlink:href="#g4365"
     transform="translate(3521.3849,1275.818)"
     id="use4596" />
  <use
     x="0"
     y="0"
     inkscape:tiled-clone-of="#g4365"
     xlink:href="#g4365"
     transform="translate(3521.3849,1913.727)"
     id="use4598" />
  <use
     x="0"
     y="0"
     inkscape:tiled-clone-of="#g4365"
     xlink:href="#g4365"
     transform="translate(3521.3849,2551.636)"
     id="use4600" />
  <use
     x="0"
     y="0"
     inkscape:tiled-clone-of="#g4365"
     xlink:href="#g4365"
     transform="translate(3521.3849,3189.545)"
     id="use4602" />
  <use
     x="0"
     y="0"
     inkscape:tiled-clone-of="#g4365"
     xlink:href="#g4365"
     transform="translate(3521.3849,3827.454)"
     id="use4604" />
  <use
     x="0"
     y="0"
     inkscape:tiled-clone-of="#g4365"
     xlink:href="#g4365"
     transform="translate(3521.3849,4465.363)"
     id="use4606" />
  <use
     x="0"
     y="0"
     inkscape:tiled-clone-of="#g4365"
     xlink:href="#g4365"
     transform="translate(3521.3849,5103.272)"
     id="use4608" />
  <use
     x="0"
     y="0"
     inkscape:tiled-clone-of="#g4365"
     xlink:href="#g4365"
     transform="translate(3521.3849,5741.181)"
     id="use4610" />
  <use
     x="0"
     y="0"
     inkscape:tiled-clone-of="#g4365"
     xlink:href="#g4365"
     transform="translate(3521.3849,6379.09)"
     id="use4612" />
  <use
     x="0"
     y="0"
     inkscape:tiled-clone-of="#g4365"
     xlink:href="#g4365"
     transform="translate(3521.3849,7016.999)"
     id="use4614" />
  <use
     x="0"
     y="0"
     inkscape:tiled-clone-of="#g4365"
     xlink:href="#g4365"
     transform="translate(3521.3849,7654.908)"
     id="use4616" />
  <use
     x="0"
     y="0"
     inkscape:tiled-clone-of="#g4365"
     xlink:href="#g4365"
     transform="translate(3521.3849,8292.817)"
     id="use4618" />
  <use
     x="0"
     y="0"
     inkscape:tiled-clone-of="#g4365"
     xlink:href="#g4365"
     transform="translate(3521.3849,8930.726)"
     id="use4620" />
  <use
     x="0"
     y="0"
     inkscape:tiled-clone-of="#g4365"
     xlink:href="#g4365"
     transform="translate(3521.3849,9568.6349)"
     id="use4622" />
  <use
     x="0"
     y="0"
     inkscape:tiled-clone-of="#g4365"
     xlink:href="#g4365"
     transform="translate(3521.3849,10206.544)"
     id="use4624" />
  <use
     x="0"
     y="0"
     inkscape:tiled-clone-of="#g4365"
     xlink:href="#g4365"
     transform="translate(3521.3849,10844.453)"
     id="use4626" />
  <use
     x="0"
     y="0"
     inkscape:tiled-clone-of="#g4365"
     xlink:href="#g4365"
     transform="translate(3521.3849,11482.362)"
     id="use4628" />
  <use
     x="0"
     y="0"
     inkscape:tiled-clone-of="#g4365"
     xlink:href="#g4365"
     transform="translate(3521.3849,12120.271)"
     id="use4630" />
  <use
     x="0"
     y="0"
     inkscape:tiled-clone-of="#g4365"
     xlink:href="#g4365"
     transform="translate(3521.3849,12758.18)"
     id="use4632" />
  <use
     x="0"
     y="0"
     inkscape:tiled-clone-of="#g4365"
     xlink:href="#g4365"
     transform="translate(3521.3849,13396.089)"
     id="use4634" />
  <use
     x="0"
     y="0"
     inkscape:tiled-clone-of="#g4365"
     xlink:href="#g4365"
     transform="translate(4225.6619,0)"
     id="use4636" />
  <use
     x="0"
     y="0"
     inkscape:tiled-clone-of="#g4365"
     xlink:href="#g4365"
     transform="translate(4225.6619,637.909)"
     id="use4638" />
  <use
     x="0"
     y="0"
     inkscape:tiled-clone-of="#g4365"
     xlink:href="#g4365"
     transform="translate(4225.6619,1275.818)"
     id="use4640" />
  <use
     x="0"
     y="0"
     inkscape:tiled-clone-of="#g4365"
     xlink:href="#g4365"
     transform="translate(4225.6619,1913.727)"
     id="use4642" />
  <use
     x="0"
     y="0"
     inkscape:tiled-clone-of="#g4365"
     xlink:href="#g4365"
     transform="translate(4225.6619,2551.636)"
     id="use4644" />
  <use
     x="0"
     y="0"
     inkscape:tiled-clone-of="#g4365"
     xlink:href="#g4365"
     transform="translate(4225.6619,3189.545)"
     id="use4646" />
  <use
     x="0"
     y="0"
     inkscape:tiled-clone-of="#g4365"
     xlink:href="#g4365"
     transform="translate(4225.6619,3827.454)"
     id="use4648" />
  <use
     x="0"
     y="0"
     inkscape:tiled-clone-of="#g4365"
     xlink:href="#g4365"
     transform="translate(4225.6619,4465.363)"
     id="use4650" />
  <use
     x="0"
     y="0"
     inkscape:tiled-clone-of="#g4365"
     xlink:href="#g4365"
     transform="translate(4225.6619,5103.272)"
     id="use4652" />
  <use
     x="0"
     y="0"
     inkscape:tiled-clone-of="#g4365"
     xlink:href="#g4365"
     transform="translate(4225.6619,5741.181)"
     id="use4654" />
  <use
     x="0"
     y="0"
     inkscape:tiled-clone-of="#g4365"
     xlink:href="#g4365"
     transform="translate(4225.6619,6379.09)"
     id="use4656" />
  <use
     x="0"
     y="0"
     inkscape:tiled-clone-of="#g4365"
     xlink:href="#g4365"
     transform="translate(4225.6619,7016.999)"
     id="use4658" />
  <use
     x="0"
     y="0"
     inkscape:tiled-clone-of="#g4365"
     xlink:href="#g4365"
     transform="translate(4225.6619,7654.908)"
     id="use4660" />
  <use
     x="0"
     y="0"
     inkscape:tiled-clone-of="#g4365"
     xlink:href="#g4365"
     transform="translate(4225.6619,8292.817)"
     id="use4662" />
  <use
     x="0"
     y="0"
     inkscape:tiled-clone-of="#g4365"
     xlink:href="#g4365"
     transform="translate(4225.6619,8930.726)"
     id="use4664" />
  <use
     x="0"
     y="0"
     inkscape:tiled-clone-of="#g4365"
     xlink:href="#g4365"
     transform="translate(4225.6619,9568.6349)"
     id="use4666" />
  <use
     x="0"
     y="0"
     inkscape:tiled-clone-of="#g4365"
     xlink:href="#g4365"
     transform="translate(4225.6619,10206.544)"
     id="use4668" />
  <use
     x="0"
     y="0"
     inkscape:tiled-clone-of="#g4365"
     xlink:href="#g4365"
     transform="translate(4225.6619,10844.453)"
     id="use4670" />
  <use
     x="0"
     y="0"
     inkscape:tiled-clone-of="#g4365"
     xlink:href="#g4365"
     transform="translate(4225.6619,11482.362)"
     id="use4672" />
  <use
     x="0"
     y="0"
     inkscape:tiled-clone-of="#g4365"
     xlink:href="#g4365"
     transform="translate(4225.6619,12120.271)"
     id="use4674" />
  <use
     x="0"
     y="0"
     inkscape:tiled-clone-of="#g4365"
     xlink:href="#g4365"
     transform="translate(4225.6619,12758.18)"
     id="use4676" />
  <use
     x="0"
     y="0"
     inkscape:tiled-clone-of="#g4365"
     xlink:href="#g4365"
     transform="translate(4225.6619,13396.089)"
     id="use4678" />
  <use
     x="0"
     y="0"
     inkscape:tiled-clone-of="#g4365"
     xlink:href="#g4365"
     transform="translate(4929.9388,0)"
     id="use4680" />
  <use
     x="0"
     y="0"
     inkscape:tiled-clone-of="#g4365"
     xlink:href="#g4365"
     transform="translate(4929.9388,637.909)"
     id="use4682" />
  <use
     x="0"
     y="0"
     inkscape:tiled-clone-of="#g4365"
     xlink:href="#g4365"
     transform="translate(4929.9388,1275.818)"
     id="use4684" />
  <use
     x="0"
     y="0"
     inkscape:tiled-clone-of="#g4365"
     xlink:href="#g4365"
     transform="translate(4929.9388,1913.727)"
     id="use4686" />
  <use
     x="0"
     y="0"
     inkscape:tiled-clone-of="#g4365"
     xlink:href="#g4365"
     transform="translate(4929.9388,2551.636)"
     id="use4688" />
  <use
     x="0"
     y="0"
     inkscape:tiled-clone-of="#g4365"
     xlink:href="#g4365"
     transform="translate(4929.9388,3189.545)"
     id="use4690" />
  <use
     x="0"
     y="0"
     inkscape:tiled-clone-of="#g4365"
     xlink:href="#g4365"
     transform="translate(4929.9388,3827.454)"
     id="use4692" />
  <use
     x="0"
     y="0"
     inkscape:tiled-clone-of="#g4365"
     xlink:href="#g4365"
     transform="translate(4929.9388,4465.363)"
     id="use4694" />
  <use
     x="0"
     y="0"
     inkscape:tiled-clone-of="#g4365"
     xlink:href="#g4365"
     transform="translate(4929.9388,5103.272)"
     id="use4696" />
  <use
     x="0"
     y="0"
     inkscape:tiled-clone-of="#g4365"
     xlink:href="#g4365"
     transform="translate(4929.9388,5741.181)"
     id="use4698" />
  <use
     x="0"
     y="0"
     inkscape:tiled-clone-of="#g4365"
     xlink:href="#g4365"
     transform="translate(4929.9388,6379.09)"
     id="use4700" />
  <use
     x="0"
     y="0"
     inkscape:tiled-clone-of="#g4365"
     xlink:href="#g4365"
     transform="translate(4929.9388,7016.999)"
     id="use4702" />
  <use
     x="0"
     y="0"
     inkscape:tiled-clone-of="#g4365"
     xlink:href="#g4365"
     transform="translate(4929.9388,7654.908)"
     id="use4704" />
  <use
     x="0"
     y="0"
     inkscape:tiled-clone-of="#g4365"
     xlink:href="#g4365"
     transform="translate(4929.9388,8292.817)"
     id="use4706" />
  <use
     x="0"
     y="0"
     inkscape:tiled-clone-of="#g4365"
     xlink:href="#g4365"
     transform="translate(4929.9388,8930.726)"
     id="use4708" />
  <use
     x="0"
     y="0"
     inkscape:tiled-clone-of="#g4365"
     xlink:href="#g4365"
     transform="translate(4929.9388,9568.6349)"
     id="use4710" />
  <use
     x="0"
     y="0"
     inkscape:tiled-clone-of="#g4365"
     xlink:href="#g4365"
     transform="translate(4929.9388,10206.544)"
     id="use4712" />
  <use
     x="0"
     y="0"
     inkscape:tiled-clone-of="#g4365"
     xlink:href="#g4365"
     transform="translate(4929.9388,10844.453)"
     id="use4714" />
  <use
     x="0"
     y="0"
     inkscape:tiled-clone-of="#g4365"
     xlink:href="#g4365"
     transform="translate(4929.9388,11482.362)"
     id="use4716" />
  <use
     x="0"
     y="0"
     inkscape:tiled-clone-of="#g4365"
     xlink:href="#g4365"
     transform="translate(4929.9388,12120.271)"
     id="use4718" />
  <use
     x="0"
     y="0"
     inkscape:tiled-clone-of="#g4365"
     xlink:href="#g4365"
     transform="translate(4929.9388,12758.18)"
     id="use4720" />
  <use
     x="0"
     y="0"
     inkscape:tiled-clone-of="#g4365"
     xlink:href="#g4365"
     transform="translate(4929.9388,13396.089)"
     id="use4722" />
  <use
     x="0"
     y="0"
     inkscape:tiled-clone-of="#g4365"
     xlink:href="#g4365"
     transform="translate(5634.2158,0)"
     id="use4724" />
  <use
     x="0"
     y="0"
     inkscape:tiled-clone-of="#g4365"
     xlink:href="#g4365"
     transform="translate(5634.2158,637.909)"
     id="use4726" />
  <use
     x="0"
     y="0"
     inkscape:tiled-clone-of="#g4365"
     xlink:href="#g4365"
     transform="translate(5634.2158,1275.818)"
     id="use4728" />
  <use
     x="0"
     y="0"
     inkscape:tiled-clone-of="#g4365"
     xlink:href="#g4365"
     transform="translate(5634.2158,1913.727)"
     id="use4730" />
  <use
     x="0"
     y="0"
     inkscape:tiled-clone-of="#g4365"
     xlink:href="#g4365"
     transform="translate(5634.2158,2551.636)"
     id="use4732" />
  <use
     x="0"
     y="0"
     inkscape:tiled-clone-of="#g4365"
     xlink:href="#g4365"
     transform="translate(5634.2158,3189.545)"
     id="use4734" />
  <use
     x="0"
     y="0"
     inkscape:tiled-clone-of="#g4365"
     xlink:href="#g4365"
     transform="translate(5634.2158,3827.454)"
     id="use4736" />
  <use
     x="0"
     y="0"
     inkscape:tiled-clone-of="#g4365"
     xlink:href="#g4365"
     transform="translate(5634.2158,4465.363)"
     id="use4738" />
  <use
     x="0"
     y="0"
     inkscape:tiled-clone-of="#g4365"
     xlink:href="#g4365"
     transform="translate(5634.2158,5103.272)"
     id="use4740" />
  <use
     x="0"
     y="0"
     inkscape:tiled-clone-of="#g4365"
     xlink:href="#g4365"
     transform="translate(5634.2158,5741.181)"
     id="use4742" />
  <use
     x="0"
     y="0"
     inkscape:tiled-clone-of="#g4365"
     xlink:href="#g4365"
     transform="translate(5634.2158,6379.09)"
     id="use4744" />
  <use
     x="0"
     y="0"
     inkscape:tiled-clone-of="#g4365"
     xlink:href="#g4365"
     transform="translate(5634.2158,7016.999)"
     id="use4746" />
  <use
     x="0"
     y="0"
     inkscape:tiled-clone-of="#g4365"
     xlink:href="#g4365"
     transform="translate(5634.2158,7654.908)"
     id="use4748" />
  <use
     x="0"
     y="0"
     inkscape:tiled-clone-of="#g4365"
     xlink:href="#g4365"
     transform="translate(5634.2158,8292.817)"
     id="use4750" />
  <use
     x="0"
     y="0"
     inkscape:tiled-clone-of="#g4365"
     xlink:href="#g4365"
     transform="translate(5634.2158,8930.726)"
     id="use4752" />
  <use
     x="0"
     y="0"
     inkscape:tiled-clone-of="#g4365"
     xlink:href="#g4365"
     transform="translate(5634.2158,9568.6349)"
     id="use4754" />
  <use
     x="0"
     y="0"
     inkscape:tiled-clone-of="#g4365"
     xlink:href="#g4365"
     transform="translate(5634.2158,10206.544)"
     id="use4756" />
  <use
     x="0"
     y="0"
     inkscape:tiled-clone-of="#g4365"
     xlink:href="#g4365"
     transform="translate(5634.2158,10844.453)"
     id="use4758" />
  <use
     x="0"
     y="0"
     inkscape:tiled-clone-of="#g4365"
     xlink:href="#g4365"
     transform="translate(5634.2158,11482.362)"
     id="use4760" />
  <use
     x="0"
     y="0"
     inkscape:tiled-clone-of="#g4365"
     xlink:href="#g4365"
     transform="translate(5634.2158,12120.271)"
     id="use4762" />
  <use
     x="0"
     y="0"
     inkscape:tiled-clone-of="#g4365"
     xlink:href="#g4365"
     transform="translate(5634.2158,12758.18)"
     id="use4764" />
  <use
     x="0"
     y="0"
     inkscape:tiled-clone-of="#g4365"
     xlink:href="#g4365"
     transform="translate(5634.2158,13396.089)"
     id="use4766" />
  <use
     x="0"
     y="0"
     inkscape:tiled-clone-of="#g4365"
     xlink:href="#g4365"
     transform="translate(6338.4928,0)"
     id="use4768" />
  <use
     x="0"
     y="0"
     inkscape:tiled-clone-of="#g4365"
     xlink:href="#g4365"
     transform="translate(6338.4928,637.909)"
     id="use4770" />
  <use
     x="0"
     y="0"
     inkscape:tiled-clone-of="#g4365"
     xlink:href="#g4365"
     transform="translate(6338.4928,1275.818)"
     id="use4772" />
  <use
     x="0"
     y="0"
     inkscape:tiled-clone-of="#g4365"
     xlink:href="#g4365"
     transform="translate(6338.4928,1913.727)"
     id="use4774" />
  <use
     x="0"
     y="0"
     inkscape:tiled-clone-of="#g4365"
     xlink:href="#g4365"
     transform="translate(6338.4928,2551.636)"
     id="use4776" />
  <use
     x="0"
     y="0"
     inkscape:tiled-clone-of="#g4365"
     xlink:href="#g4365"
     transform="translate(6338.4928,3189.545)"
     id="use4778" />
  <use
     x="0"
     y="0"
     inkscape:tiled-clone-of="#g4365"
     xlink:href="#g4365"
     transform="translate(6338.4928,3827.454)"
     id="use4780" />
  <use
     x="0"
     y="0"
     inkscape:tiled-clone-of="#g4365"
     xlink:href="#g4365"
     transform="translate(6338.4928,4465.363)"
     id="use4782" />
  <use
     x="0"
     y="0"
     inkscape:tiled-clone-of="#g4365"
     xlink:href="#g4365"
     transform="translate(6338.4928,5103.272)"
     id="use4784" />
  <use
     x="0"
     y="0"
     inkscape:tiled-clone-of="#g4365"
     xlink:href="#g4365"
     transform="translate(6338.4928,5741.181)"
     id="use4786" />
  <use
     x="0"
     y="0"
     inkscape:tiled-clone-of="#g4365"
     xlink:href="#g4365"
     transform="translate(6338.4928,6379.09)"
     id="use4788" />
  <use
     x="0"
     y="0"
     inkscape:tiled-clone-of="#g4365"
     xlink:href="#g4365"
     transform="translate(6338.4928,7016.999)"
     id="use4790" />
  <use
     x="0"
     y="0"
     inkscape:tiled-clone-of="#g4365"
     xlink:href="#g4365"
     transform="translate(6338.4928,7654.908)"
     id="use4792" />
  <use
     x="0"
     y="0"
     inkscape:tiled-clone-of="#g4365"
     xlink:href="#g4365"
     transform="translate(6338.4928,8292.817)"
     id="use4794" />
  <use
     x="0"
     y="0"
     inkscape:tiled-clone-of="#g4365"
     xlink:href="#g4365"
     transform="translate(6338.4928,8930.726)"
     id="use4796" />
  <use
     x="0"
     y="0"
     inkscape:tiled-clone-of="#g4365"
     xlink:href="#g4365"
     transform="translate(6338.4928,9568.6349)"
     id="use4798" />
  <use
     x="0"
     y="0"
     inkscape:tiled-clone-of="#g4365"
     xlink:href="#g4365"
     transform="translate(6338.4928,10206.544)"
     id="use4800" />
  <use
     x="0"
     y="0"
     inkscape:tiled-clone-of="#g4365"
     xlink:href="#g4365"
     transform="translate(6338.4928,10844.453)"
     id="use4802" />
  <use
     x="0"
     y="0"
     inkscape:tiled-clone-of="#g4365"
     xlink:href="#g4365"
     transform="translate(6338.4928,11482.362)"
     id="use4804" />
  <use
     x="0"
     y="0"
     inkscape:tiled-clone-of="#g4365"
     xlink:href="#g4365"
     transform="translate(6338.4928,12120.271)"
     id="use4806" />
  <use
     x="0"
     y="0"
     inkscape:tiled-clone-of="#g4365"
     xlink:href="#g4365"
     transform="translate(6338.4928,12758.18)"
     id="use4808" />
  <use
     x="0"
     y="0"
     inkscape:tiled-clone-of="#g4365"
     xlink:href="#g4365"
     transform="translate(6338.4928,13396.089)"
     id="use4810" />
  <use
     x="0"
     y="0"
     inkscape:tiled-clone-of="#g4365"
     xlink:href="#g4365"
     transform="translate(7042.7698,0)"
     id="use4812" />
  <use
     x="0"
     y="0"
     inkscape:tiled-clone-of="#g4365"
     xlink:href="#g4365"
     transform="translate(7042.7698,637.909)"
     id="use4814" />
  <use
     x="0"
     y="0"
     inkscape:tiled-clone-of="#g4365"
     xlink:href="#g4365"
     transform="translate(7042.7698,1275.818)"
     id="use4816" />
  <use
     x="0"
     y="0"
     inkscape:tiled-clone-of="#g4365"
     xlink:href="#g4365"
     transform="translate(7042.7698,1913.727)"
     id="use4818" />
  <use
     x="0"
     y="0"
     inkscape:tiled-clone-of="#g4365"
     xlink:href="#g4365"
     transform="translate(7042.7698,2551.636)"
     id="use4820" />
  <use
     x="0"
     y="0"
     inkscape:tiled-clone-of="#g4365"
     xlink:href="#g4365"
     transform="translate(7042.7698,3189.545)"
     id="use4822" />
  <use
     x="0"
     y="0"
     inkscape:tiled-clone-of="#g4365"
     xlink:href="#g4365"
     transform="translate(7042.7698,3827.454)"
     id="use4824" />
  <use
     x="0"
     y="0"
     inkscape:tiled-clone-of="#g4365"
     xlink:href="#g4365"
     transform="translate(7042.7698,4465.363)"
     id="use4826" />
  <use
     x="0"
     y="0"
     inkscape:tiled-clone-of="#g4365"
     xlink:href="#g4365"
     transform="translate(7042.7698,5103.272)"
     id="use4828" />
  <use
     x="0"
     y="0"
     inkscape:tiled-clone-of="#g4365"
     xlink:href="#g4365"
     transform="translate(7042.7698,5741.181)"
     id="use4830" />
  <use
     x="0"
     y="0"
     inkscape:tiled-clone-of="#g4365"
     xlink:href="#g4365"
     transform="translate(7042.7698,6379.09)"
     id="use4832" />
  <use
     x="0"
     y="0"
     inkscape:tiled-clone-of="#g4365"
     xlink:href="#g4365"
     transform="translate(7042.7698,7016.999)"
     id="use4834" />
  <use
     x="0"
     y="0"
     inkscape:tiled-clone-of="#g4365"
     xlink:href="#g4365"
     transform="translate(7042.7698,7654.908)"
     id="use4836" />
  <use
     x="0"
     y="0"
     inkscape:tiled-clone-of="#g4365"
     xlink:href="#g4365"
     transform="translate(7042.7698,8292.817)"
     id="use4838" />
  <use
     x="0"
     y="0"
     inkscape:tiled-clone-of="#g4365"
     xlink:href="#g4365"
     transform="translate(7042.7698,8930.726)"
     id="use4840" />
  <use
     x="0"
     y="0"
     inkscape:tiled-clone-of="#g4365"
     xlink:href="#g4365"
     transform="translate(7042.7698,9568.6349)"
     id="use4842" />
  <use
     x="0"
     y="0"
     inkscape:tiled-clone-of="#g4365"
     xlink:href="#g4365"
     transform="translate(7042.7698,10206.544)"
     id="use4844" />
  <use
     x="0"
     y="0"
     inkscape:tiled-clone-of="#g4365"
     xlink:href="#g4365"
     transform="translate(7042.7698,10844.453)"
     id="use4846" />
  <use
     x="0"
     y="0"
     inkscape:tiled-clone-of="#g4365"
     xlink:href="#g4365"
     transform="translate(7042.7698,11482.362)"
     id="use4848" />
  <use
     x="0"
     y="0"
     inkscape:tiled-clone-of="#g4365"
     xlink:href="#g4365"
     transform="translate(7042.7698,12120.271)"
     id="use4850" />
  <use
     x="0"
     y="0"
     inkscape:tiled-clone-of="#g4365"
     xlink:href="#g4365"
     transform="translate(7042.7698,12758.18)"
     id="use4852" />
  <use
     x="0"
     y="0"
     inkscape:tiled-clone-of="#g4365"
     xlink:href="#g4365"
     transform="translate(7042.7698,13396.089)"
     id="use4854" />
  <use
     x="0"
     y="0"
     inkscape:tiled-clone-of="#g4365"
     xlink:href="#g4365"
     transform="translate(7747.0468,0)"
     id="use4856" />
  <use
     x="0"
     y="0"
     inkscape:tiled-clone-of="#g4365"
     xlink:href="#g4365"
     transform="translate(7747.0468,637.909)"
     id="use4858" />
  <use
     x="0"
     y="0"
     inkscape:tiled-clone-of="#g4365"
     xlink:href="#g4365"
     transform="translate(7747.0468,1275.818)"
     id="use4860" />
  <use
     x="0"
     y="0"
     inkscape:tiled-clone-of="#g4365"
     xlink:href="#g4365"
     transform="translate(7747.0468,1913.727)"
     id="use4862" />
  <use
     x="0"
     y="0"
     inkscape:tiled-clone-of="#g4365"
     xlink:href="#g4365"
     transform="translate(7747.0468,2551.636)"
     id="use4864" />
  <use
     x="0"
     y="0"
     inkscape:tiled-clone-of="#g4365"
     xlink:href="#g4365"
     transform="translate(7747.0468,3189.545)"
     id="use4866" />
  <use
     x="0"
     y="0"
     inkscape:tiled-clone-of="#g4365"
     xlink:href="#g4365"
     transform="translate(7747.0468,3827.454)"
     id="use4868" />
  <use
     x="0"
     y="0"
     inkscape:tiled-clone-of="#g4365"
     xlink:href="#g4365"
     transform="translate(7747.0468,4465.363)"
     id="use4870" />
  <use
     x="0"
     y="0"
     inkscape:tiled-clone-of="#g4365"
     xlink:href="#g4365"
     transform="translate(7747.0468,5103.272)"
     id="use4872" />
  <use
     x="0"
     y="0"
     inkscape:tiled-clone-of="#g4365"
     xlink:href="#g4365"
     transform="translate(7747.0468,5741.181)"
     id="use4874" />
  <use
     x="0"
     y="0"
     inkscape:tiled-clone-of="#g4365"
     xlink:href="#g4365"
     transform="translate(7747.0468,6379.09)"
     id="use4876" />
  <use
     x="0"
     y="0"
     inkscape:tiled-clone-of="#g4365"
     xlink:href="#g4365"
     transform="translate(7747.0468,7016.999)"
     id="use4878" />
  <use
     x="0"
     y="0"
     inkscape:tiled-clone-of="#g4365"
     xlink:href="#g4365"
     transform="translate(7747.0468,7654.908)"
     id="use4880" />
  <use
     x="0"
     y="0"
     inkscape:tiled-clone-of="#g4365"
     xlink:href="#g4365"
     transform="translate(7747.0468,8292.817)"
     id="use4882" />
  <use
     x="0"
     y="0"
     inkscape:tiled-clone-of="#g4365"
     xlink:href="#g4365"
     transform="translate(7747.0468,8930.726)"
     id="use4884" />
  <use
     x="0"
     y="0"
     inkscape:tiled-clone-of="#g4365"
     xlink:href="#g4365"
     transform="translate(7747.0468,9568.6349)"
     id="use4886" />
  <use
     x="0"
     y="0"
     inkscape:tiled-clone-of="#g4365"
     xlink:href="#g4365"
     transform="translate(7747.0468,10206.544)"
     id="use4888" />
  <use
     x="0"
     y="0"
     inkscape:tiled-clone-of="#g4365"
     xlink:href="#g4365"
     transform="translate(7747.0468,10844.453)"
     id="use4890" />
  <use
     x="0"
     y="0"
     inkscape:tiled-clone-of="#g4365"
     xlink:href="#g4365"
     transform="translate(7747.0468,11482.362)"
     id="use4892" />
  <use
     x="0"
     y="0"
     inkscape:tiled-clone-of="#g4365"
     xlink:href="#g4365"
     transform="translate(7747.0468,12120.271)"
     id="use4894" />
  <use
     x="0"
     y="0"
     inkscape:tiled-clone-of="#g4365"
     xlink:href="#g4365"
     transform="translate(7747.0468,12758.18)"
     id="use4896" />
  <use
     x="0"
     y="0"
     inkscape:tiled-clone-of="#g4365"
     xlink:href="#g4365"
     transform="translate(7747.0468,13396.089)"
     id="use4898" />
</svg>
